<svg width="48" height="48" fill="none" xmlns="http://www.w3.org/2000/svg"><mask id="a" style="mask-type:luminance" maskUnits="userSpaceOnUse" x="0" y="0" width="48" height="48"><path d="M0 0h48v48H0V0Z" fill="#fff"/></mask><g mask="url(#a)" fill-rule="evenodd" clip-rule="evenodd"><path d="M26.066 27.999c-1.377.003-2.755.003-4.132 0a.703.703 0 1 0-.003 1.406c1.38.003 2.759.003 4.138 0A.703.703 0 1 0 26.066 28Z" fill="url(#b)"/><path d="M33.983 37.289a.703.703 0 0 0-.23-.967 8.252 8.252 0 0 1-3.778-5.377.703.703 0 1 0-1.377.285 9.659 9.659 0 0 0 4.418 6.29c.331.203.764.1.968-.231Z" fill="url(#c)"/><path d="M7.615 38.686c5.338 1.289 10.679-2.098 11.788-7.456a.703.703 0 1 0-1.377-.285c-.948 4.579-5.515 7.477-10.081 6.374h-.003l-.173-.042c-4.287-1.035-7.025-5.24-6.224-9.575.679-3.665 1.6-7.372 2.694-11.115a8.267 8.267 0 0 1 7.66-5.933 351.418 351.418 0 0 1 24.203 0 8.267 8.267 0 0 1 7.659 5.933c1.094 3.743 2.015 7.45 2.694 11.115.801 4.334-1.937 8.54-6.224 9.575l-.086.02h-.002l-.087.022m-32.44 1.367-.176-.042h-.001c-5.01-1.21-8.214-6.126-7.276-11.197.688-3.722 1.622-7.476 2.727-11.254a9.674 9.674 0 0 1 8.96-6.944c8.1-.28 16.2-.28 24.3 0a9.674 9.674 0 0 1 8.96 6.944c1.105 3.778 2.039 7.532 2.727 11.254.939 5.07-2.265 9.987-7.276 11.197l-.089.02-.086.022a9.675 9.675 0 0 1-4.598-.007.703.703 0 1 1 .336-1.365 8.267 8.267 0 0 0 3.931.005" fill="url(#d)"/><path d="M18.814 30.386a2.527 2.527 0 1 1 0-5.055 2.527 2.527 0 0 1 0 5.055Zm-3.934-2.528a3.934 3.934 0 1 0 7.868 0 3.934 3.934 0 0 0-7.868 0Z" fill="url(#e)"/><path d="M29.186 30.386a2.527 2.527 0 1 1 0-5.055 2.527 2.527 0 0 1 0 5.055Zm-3.933-2.528a3.934 3.934 0 1 0 7.867 0 3.934 3.934 0 0 0-7.867 0Z" fill="url(#f)"/><path d="M10.262 26.767h.042c1.528-.001 2.77-1.22 2.81-2.743l.004-.134.134-.004a2.815 2.815 0 0 0 2.743-2.81v-.042c0-1.528-1.22-2.77-2.743-2.811l-.134-.004-.004-.134a2.815 2.815 0 0 0-2.81-2.743h-.042a2.816 2.816 0 0 0-2.81 2.743l-.004.134-.134.004a2.815 2.815 0 0 0-2.743 2.81v.043c0 1.527 1.22 2.769 2.743 2.81l.134.004.003.134a2.816 2.816 0 0 0 2.811 2.743Zm.041-1.407h-.04a1.41 1.41 0 0 1-1.406-1.374m1.446 1.374a1.41 1.41 0 0 0 1.406-1.374l-1.406 1.374Zm-1.446-1.374c-.007-.266-.014-.532-.019-.798a.703.703 0 0 0-.689-.689c-.266-.005-.531-.011-.797-.018m4.357 1.505.018-.798-.018.798Zm1.505-1.506c-.266.008-.532.014-.798.02a.703.703 0 0 0-.689.688m1.487-.707a1.409 1.409 0 0 0 1.375-1.406v-.04m-8.612.04v-.041a1.41 1.41 0 0 1 1.375-1.405c.265-.008.531-.014.797-.019a.703.703 0 0 0 .69-.69c.004-.265.01-.53.018-.797m-2.88 2.952Zm0 0a1.41 1.41 0 0 0 1.375 1.405l-1.375-1.405Zm8.612-.041a1.41 1.41 0 0 0-1.375-1.405l1.375 1.405Zm-1.375-1.405a106.31 106.31 0 0 0-.797-.019.703.703 0 0 1-.69-.689l-.018-.798m-2.852 0a1.41 1.41 0 0 1 1.406-1.374h.04a1.41 1.41 0 0 1 1.406 1.374" fill="url(#g)"/><path d="M40.457 19.858a1.307 1.307 0 1 1-1.848-1.849 1.307 1.307 0 0 1 1.848 1.85Zm-2.843.995a2.713 2.713 0 1 0 3.838-3.837 2.713 2.713 0 0 0-3.838 3.837Z" fill="url(#h)"/><path d="M36.216 24.1a1.307 1.307 0 1 1-1.848-1.85 1.307 1.307 0 0 1 1.848 1.85Zm-2.843.994a2.713 2.713 0 1 0 3.838-3.837 2.713 2.713 0 0 0-3.837 3.837Z" fill="url(#i)"/><path d="M20.03 19.758a2 2 0 0 0 2 2h4.16a2 2 0 1 0 0-4h-4.16a2 2 0 0 0-2 2Zm2 .594a.594.594 0 0 1 0-1.188h4.16a.594.594 0 1 1 0 1.188h-4.16Z" fill="url(#j)"/><path d="M16.446 14.434a.703.703 0 0 0-.29-.951 2.472 2.472 0 0 1-1.298-1.962 19.953 19.953 0 0 1-.078-1.642.703.703 0 0 0-1.407.007c.003.587.033 1.174.084 1.759v.002a3.878 3.878 0 0 0 2.037 3.077.703.703 0 0 0 .952-.29Z" fill="url(#k)"/><path d="M30.79 13.767c-4.06.158-8.12.175-12.18.048a.703.703 0 0 0-.043 1.406c4.093.128 8.185.11 12.277-.05m2.298-3.65a2.46 2.46 0 0 1-2.353 2.246m2.353-2.246c.048-.549.076-1.097.078-1.642a.703.703 0 1 1 1.407.007 21.416 21.416 0 0 1-.084 1.759v.001a3.867 3.867 0 0 1-3.699 3.526" fill="url(#l)"/></g><defs><linearGradient id="b" x1="21.23" y1="28.703" x2="26.77" y2="28.703" gradientUnits="userSpaceOnUse"><stop offset="0" stop-color="#0CBAF1"/><stop offset="1" stop-color="#E95CE9"/></linearGradient><linearGradient id="c" x1="28.583" y1="34.004" x2="34.088" y2="34.004" gradientUnits="userSpaceOnUse"><stop offset="0" stop-color="#0CBAF1"/><stop offset="1" stop-color="#E95CE9"/></linearGradient><linearGradient id="d" x1="0" y1="24" x2="48" y2="24" gradientUnits="userSpaceOnUse"><stop offset="0" stop-color="#0CBAF1"/><stop offset="1" stop-color="#E95CE9"/></linearGradient><linearGradient id="e" x1="14.88" y1="27.858" x2="22.748" y2="27.858" gradientUnits="userSpaceOnUse"><stop offset="0" stop-color="#0CBAF1"/><stop offset="1" stop-color="#E95CE9"/></linearGradient><linearGradient id="f" x1="25.253" y1="27.858" x2="33.12" y2="27.858" gradientUnits="userSpaceOnUse"><stop offset="0" stop-color="#0CBAF1"/><stop offset="1" stop-color="#E95CE9"/></linearGradient><linearGradient id="g" x1="4.571" y1="21.055" x2="15.995" y2="21.055" gradientUnits="userSpaceOnUse"><stop offset="0" stop-color="#0CBAF1"/><stop offset="1" stop-color="#E95CE9"/></linearGradient><linearGradient id="h" x1="36.819" y1="18.934" x2="42.246" y2="18.934" gradientUnits="userSpaceOnUse"><stop offset="0" stop-color="#0CBAF1"/><stop offset="1" stop-color="#E95CE9"/></linearGradient><linearGradient id="i" x1="32.579" y1="23.175" x2="38.005" y2="23.175" gradientUnits="userSpaceOnUse"><stop offset="0" stop-color="#0CBAF1"/><stop offset="1" stop-color="#E95CE9"/></linearGradient><linearGradient id="j" x1="20.029" y1="19.758" x2="28.19" y2="19.758" gradientUnits="userSpaceOnUse"><stop offset="0" stop-color="#0CBAF1"/><stop offset="1" stop-color="#E95CE9"/></linearGradient><linearGradient id="k" x1="13.373" y1="11.993" x2="16.528" y2="11.993" gradientUnits="userSpaceOnUse"><stop offset="0" stop-color="#0CBAF1"/><stop offset="1" stop-color="#E95CE9"/></linearGradient><linearGradient id="l" x1="17.886" y1="12.243" x2="34.627" y2="12.243" gradientUnits="userSpaceOnUse"><stop offset="0" stop-color="#0CBAF1"/><stop offset="1" stop-color="#E95CE9"/></linearGradient></defs></svg>