<svg width="48" height="48" fill="none" xmlns="http://www.w3.org/2000/svg"><g clip-path="url(#a)"><mask id="b" style="mask-type:luminance" maskUnits="userSpaceOnUse" x="0" y="0" width="48" height="48"><path d="M0 0h48v48H0V0Z" fill="#fff"/></mask><g mask="url(#b)" fill-rule="evenodd" clip-rule="evenodd"><path d="M39.797 40.162c0 .388.315.703.703.703h2.707A4.8 4.8 0 0 0 48 36.06V16.476a4.8 4.8 0 0 0-4.793-4.807H32.429a.703.703 0 0 0 0 1.406h10.778a3.394 3.394 0 0 1 3.387 3.4V36.06c0 1.88-1.519 3.4-3.387 3.4H40.5a.703.703 0 0 0-.703.703Z" fill="url(#c)"/><path d="M6.563 47.938a.703.703 0 0 0 .754-.115l7.847-6.958h21.181a.703.703 0 0 0 0-1.406H14.897a.703.703 0 0 0-.466.177l-6.877 6.098v-5.572a.703.703 0 0 0-.703-.703H4.793a3.394 3.394 0 0 1-3.387-3.4V16.474c0-1.88 1.519-3.4 3.387-3.4h10.574a.703.703 0 0 0 0-1.406H4.793A4.8 4.8 0 0 0 0 16.475v19.583a4.8 4.8 0 0 0 4.793 4.807h1.355v6.432c0 .277.162.528.415.641Z" fill="url(#d)"/><path d="M7.531 22.013c0 .388.315.703.703.703h31.532a.703.703 0 0 0 0-1.406H8.234a.703.703 0 0 0-.703.703Z" fill="url(#e)"/><path d="M7.531 26.766c0 .388.315.703.703.703h31.532a.703.703 0 0 0 0-1.407H8.234a.703.703 0 0 0-.703.704Z" fill="url(#f)"/><path d="M7.531 31.518c0 .388.315.703.703.703h18.922a.703.703 0 0 0 0-1.406H8.234a.703.703 0 0 0-.703.703Z" fill="url(#g)"/><path d="M14.42 9.58A9.58 9.58 0 0 0 24 19.162 9.58 9.58 0 1 0 19.32 1.22a.703.703 0 0 0 .688 1.226 8.174 8.174 0 1 1-2.552 2.236.703.703 0 1 0-1.125-.844 9.54 9.54 0 0 0-1.911 5.743Z" fill="url(#h)"/><path d="M18.436 15.566A6.624 6.624 0 0 1 24 12.542c2.278 0 4.302 1.196 5.54 3.045A8.138 8.138 0 0 1 24 17.755c-2.15 0-4.104-.83-5.564-2.19Zm-1.395.595a9.553 9.553 0 0 0 6.959 3 9.553 9.553 0 0 0 6.943-2.982.703.703 0 0 0 .101-.833c-1.423-2.5-4.029-4.21-7.044-4.21a8.035 8.035 0 0 0-7.066 4.207.703.703 0 0 0 .107.818Z" fill="url(#i)"/><path d="M19.87 8.436a4.129 4.129 0 1 0 8.259 0 4.129 4.129 0 0 0-8.258 0ZM24 11.16a2.723 2.723 0 1 1 0-5.445 2.723 2.723 0 0 1 0 5.445Z" fill="url(#j)"/></g></g><defs><linearGradient id="c" x1="31.726" y1="26.267" x2="48" y2="26.267" gradientUnits="userSpaceOnUse"><stop offset="0" stop-color="#0CBAF1"/><stop offset="1" stop-color="#E95CE9"/></linearGradient><linearGradient id="d" x1="0" y1="29.834" x2="37.048" y2="29.834" gradientUnits="userSpaceOnUse"><stop offset="0" stop-color="#0CBAF1"/><stop offset="1" stop-color="#E95CE9"/></linearGradient><linearGradient id="e" x1="7.531" y1="22.013" x2="40.469" y2="22.013" gradientUnits="userSpaceOnUse"><stop offset="0" stop-color="#0CBAF1"/><stop offset="1" stop-color="#E95CE9"/></linearGradient><linearGradient id="f" x1="7.531" y1="26.766" x2="40.469" y2="26.766" gradientUnits="userSpaceOnUse"><stop offset="0" stop-color="#0CBAF1"/><stop offset="1" stop-color="#E95CE9"/></linearGradient><linearGradient id="g" x1="7.531" y1="31.518" x2="27.859" y2="31.518" gradientUnits="userSpaceOnUse"><stop offset="0" stop-color="#0CBAF1"/><stop offset="1" stop-color="#E95CE9"/></linearGradient><linearGradient id="h" x1="14.42" y1="9.581" x2="33.58" y2="9.581" gradientUnits="userSpaceOnUse"><stop offset="0" stop-color="#0CBAF1"/><stop offset="1" stop-color="#E95CE9"/></linearGradient><linearGradient id="i" x1="16.848" y1="15.148" x2="31.137" y2="15.148" gradientUnits="userSpaceOnUse"><stop offset="0" stop-color="#0CBAF1"/><stop offset="1" stop-color="#E95CE9"/></linearGradient><linearGradient id="j" x1="19.871" y1="8.436" x2="28.129" y2="8.436" gradientUnits="userSpaceOnUse"><stop offset="0" stop-color="#0CBAF1"/><stop offset="1" stop-color="#E95CE9"/></linearGradient><clipPath id="a"><path fill="#fff" d="M0 0h48v48H0z"/></clipPath></defs></svg>