<svg width="48" height="48" fill="none" xmlns="http://www.w3.org/2000/svg"><mask id="a" style="mask-type:luminance" maskUnits="userSpaceOnUse" x="0" y="0" width="48" height="48"><path d="M0 0h48v48H0V0Z" fill="#fff"/></mask><g mask="url(#a)" fill-rule="evenodd" clip-rule="evenodd"><path d="M7.35 6.645a3.256 3.256 0 0 0 3.249 3.249.703.703 0 0 0 0-1.407 1.85 1.85 0 0 1-1.843-1.842V3.248A1.85 1.85 0 0 1 10.6 1.406a1.85 1.85 0 0 1 1.845 1.842v1.698a.703.703 0 0 0 1.406 0V3.248C13.85 1.46 12.39 0 10.6 0a3.256 3.256 0 0 0-3.25 3.25v3.396Z" fill="url(#b)"/><path d="M16.505 6.645a3.256 3.256 0 0 0 3.248 3.249.703.703 0 0 0 0-1.407 1.85 1.85 0 0 1-1.842-1.842V3.248a1.85 1.85 0 0 1 1.842-1.842A1.85 1.85 0 0 1 21.6 3.248v1.698a.703.703 0 1 0 1.406 0V3.248C23.005 1.46 21.545 0 19.753 0a3.256 3.256 0 0 0-3.248 3.25v3.396Z" fill="url(#c)"/><path d="M25.66 6.645a3.256 3.256 0 0 0 3.248 3.249.703.703 0 0 0 0-1.407 1.85 1.85 0 0 1-1.842-1.842V3.248a1.85 1.85 0 0 1 1.842-1.842 1.85 1.85 0 0 1 1.846 1.842v1.698a.703.703 0 1 0 1.406 0V3.248C32.16 1.46 30.7 0 28.908 0a3.256 3.256 0 0 0-3.249 3.25v3.396Z" fill="url(#d)"/><path d="M34.814 6.645c0 1.789 1.46 3.249 3.252 3.249a.703.703 0 0 0 0-1.407 1.85 1.85 0 0 1-1.846-1.842V3.248a1.85 1.85 0 0 1 1.846-1.842 1.85 1.85 0 0 1 1.842 1.842v1.698a.703.703 0 1 0 1.407 0V3.248A3.256 3.256 0 0 0 38.065 0a3.257 3.257 0 0 0-3.25 3.25v3.396Z" fill="url(#e)"/><path d="M31.99 38.095a.703.703 0 0 0-.11-.988L15.055 23.612a.703.703 0 1 0-.88 1.097l16.827 13.495a.703.703 0 0 0 .988-.109Z" fill="url(#f)"/><path d="M26.608 25.732a.703.703 0 0 0 .989-.109l2.62-3.268a.703.703 0 0 0-1.097-.88l-2.62 3.269a.703.703 0 0 0 .108.988Z" fill="url(#g)"/><path d="M21.555 26.701a.703.703 0 0 0 .992-.067c.93-1.063 2.047-2.429 2.903-4.067a.703.703 0 1 0-1.247-.65c-.776 1.486-1.805 2.75-2.715 3.792a.703.703 0 0 0 .067.992Z" fill="url(#h)"/><path d="M26.76 30.874c.312.23.752.163.982-.15.818-1.113 1.83-2.394 3.112-3.471a.703.703 0 1 0-.905-1.077c-1.413 1.188-2.505 2.58-3.34 3.715a.703.703 0 0 0 .15.983Z" fill="url(#i)"/><path d="M30.013 33.485c.317.225.756.15.98-.166 1.105-1.555 2.703-3.43 5.597-3.569a.703.703 0 0 0-.067-1.404c-3.585.17-5.527 2.54-6.676 4.159a.703.703 0 0 0 .166.98Z" fill="url(#j)"/><path d="M19.39 23.755a.703.703 0 0 0 .963-.246c.43-.723 1.025-1.896.833-3.595a.703.703 0 0 0-1.398.158c.143 1.257-.282 2.109-.644 2.72a.703.703 0 0 0 .245.963Z" fill="url(#k)"/><path d="M10.492 47.974c.277-.049.576-.162.879-.302a.69.69 0 0 0 .043-.021l19.07-10.415a.703.703 0 0 0 .103-1.166L16.348 24.648a.703.703 0 0 0-1.115.354L9.208 45.86a.703.703 0 0 0-.011.047c-.074.34-.12.664-.105.95.014.275.094.655.423.914.326.258.712.249.977.203Zm.074-1.747 5.725-19.822 12.593 10.102-18.122 9.898a4.295 4.295 0 0 1-.247.103c.012-.08.028-.174.051-.281Z" fill="url(#l)"/><path d="M22.237 41.727a.703.703 0 0 0 .109-.988l-7.723-9.636a.703.703 0 0 0-1.097.88l7.722 9.635a.703.703 0 0 0 .989.11Z" fill="url(#m)"/><path d="M18.065 44.005a.703.703 0 0 0 .108-.989l-5.14-6.41a.703.703 0 0 0-1.096.88l5.14 6.41a.703.703 0 0 0 .988.109Z" fill="url(#n)"/><path d="M15.115 45.615a.703.703 0 0 0 .109-.989l-3.314-4.132a.703.703 0 1 0-1.097.88l3.314 4.132a.703.703 0 0 0 .988.109Z" fill="url(#o)"/><path d="M25.186 40.117a.703.703 0 0 0 .11-.988l-4.03-5.028a.703.703 0 1 0-1.097.879l4.029 5.028a.703.703 0 0 0 .988.11Zm-6.104-7.616a.703.703 0 0 0 .11-.989l-3.445-4.3a.703.703 0 1 0-1.097.88l3.444 4.3a.703.703 0 0 0 .988.109Z" fill="url(#p)"/><path d="M2.412 41.07a1.13 1.13 0 0 0 1.129 1.128h7.66a.703.703 0 0 0 0-1.406H3.819V5.65h40.364v35.142H21.218a.703.703 0 0 0 0 1.406h23.241a1.13 1.13 0 0 0 1.129-1.128V5.372a1.13 1.13 0 0 0-1.129-1.128H3.541a1.13 1.13 0 0 0-1.129 1.128V41.07Z" fill="url(#q)"/><path d="M2.412 15.84c0 .388.315.703.703.703h19.14a.703.703 0 0 0 0-1.406H3.114a.703.703 0 0 0-.703.703Zm22.384 0c0 .388.314.703.703.703h19.386a.703.703 0 0 0 0-1.406H25.499a.703.703 0 0 0-.703.703Zm-22.384-3.3c0 .388.315.702.703.702h41.77a.703.703 0 0 0 0-1.406H3.115a.703.703 0 0 0-.703.703Z" fill="url(#r)"/></g><defs><linearGradient id="b" x1="7.35" y1="4.946" x2="13.85" y2="4.946" gradientUnits="userSpaceOnUse"><stop offset="0" stop-color="#0CBAF1"/><stop offset="1" stop-color="#E95CE9"/></linearGradient><linearGradient id="c" x1="16.505" y1="4.946" x2="23.005" y2="4.946" gradientUnits="userSpaceOnUse"><stop offset="0" stop-color="#0CBAF1"/><stop offset="1" stop-color="#E95CE9"/></linearGradient><linearGradient id="d" x1="25.659" y1="4.946" x2="32.16" y2="4.946" gradientUnits="userSpaceOnUse"><stop offset="0" stop-color="#0CBAF1"/><stop offset="1" stop-color="#E95CE9"/></linearGradient><linearGradient id="e" x1="34.814" y1="4.946" x2="41.315" y2="4.946" gradientUnits="userSpaceOnUse"><stop offset="0" stop-color="#0CBAF1"/><stop offset="1" stop-color="#E95CE9"/></linearGradient><linearGradient id="f" x1="13.911" y1="30.908" x2="32.144" y2="30.908" gradientUnits="userSpaceOnUse"><stop offset="0" stop-color="#0CBAF1"/><stop offset="1" stop-color="#E95CE9"/></linearGradient><linearGradient id="g" x1="26.345" y1="23.549" x2="30.372" y2="23.549" gradientUnits="userSpaceOnUse"><stop offset="0" stop-color="#0CBAF1"/><stop offset="1" stop-color="#E95CE9"/></linearGradient><linearGradient id="h" x1="21.314" y1="24.207" x2="25.53" y2="24.207" gradientUnits="userSpaceOnUse"><stop offset="0" stop-color="#0CBAF1"/><stop offset="1" stop-color="#E95CE9"/></linearGradient><linearGradient id="i" x1="26.472" y1="28.511" x2="31.105" y2="28.511" gradientUnits="userSpaceOnUse"><stop offset="0" stop-color="#0CBAF1"/><stop offset="1" stop-color="#E95CE9"/></linearGradient><linearGradient id="j" x1="29.717" y1="30.98" x2="37.259" y2="30.98" gradientUnits="userSpaceOnUse"><stop offset="0" stop-color="#0CBAF1"/><stop offset="1" stop-color="#E95CE9"/></linearGradient><linearGradient id="k" x1="19.045" y1="21.572" x2="21.223" y2="21.572" gradientUnits="userSpaceOnUse"><stop offset="0" stop-color="#0CBAF1"/><stop offset="1" stop-color="#E95CE9"/></linearGradient><linearGradient id="l" x1="9.089" y1="36.246" x2="30.85" y2="36.246" gradientUnits="userSpaceOnUse"><stop offset="0" stop-color="#0CBAF1"/><stop offset="1" stop-color="#E95CE9"/></linearGradient><linearGradient id="m" x1="13.371" y1="36.361" x2="22.5" y2="36.361" gradientUnits="userSpaceOnUse"><stop offset="0" stop-color="#0CBAF1"/><stop offset="1" stop-color="#E95CE9"/></linearGradient><linearGradient id="n" x1="11.782" y1="40.251" x2="18.328" y2="40.251" gradientUnits="userSpaceOnUse"><stop offset="0" stop-color="#0CBAF1"/><stop offset="1" stop-color="#E95CE9"/></linearGradient><linearGradient id="o" x1="10.658" y1="43" x2="15.378" y2="43" gradientUnits="userSpaceOnUse"><stop offset="0" stop-color="#0CBAF1"/><stop offset="1" stop-color="#E95CE9"/></linearGradient><linearGradient id="p" x1="14.495" y1="33.61" x2="25.45" y2="33.61" gradientUnits="userSpaceOnUse"><stop offset="0" stop-color="#0CBAF1"/><stop offset="1" stop-color="#E95CE9"/></linearGradient><linearGradient id="q" x1="2.412" y1="23.221" x2="45.588" y2="23.221" gradientUnits="userSpaceOnUse"><stop offset="0" stop-color="#0CBAF1"/><stop offset="1" stop-color="#E95CE9"/></linearGradient><linearGradient id="r" x1="2.412" y1="14.19" x2="45.588" y2="14.19" gradientUnits="userSpaceOnUse"><stop offset="0" stop-color="#0CBAF1"/><stop offset="1" stop-color="#E95CE9"/></linearGradient></defs></svg>