<svg width="48" height="48" fill="none" xmlns="http://www.w3.org/2000/svg"><mask id="a" style="mask-type:luminance" maskUnits="userSpaceOnUse" x="0" y="0" width="48" height="48"><path d="M0 0h48v48H0V0Z" fill="#fff"/></mask><g mask="url(#a)" fill-rule="evenodd" clip-rule="evenodd"><path d="M18.962 39.651a1.864 1.864 0 0 1-1.864-1.861v-.003l-.01-1.697v-.001c-.004-2.769-1.023-5.465-2.93-7.495a13.449 13.449 0 0 1-3.659-9.122c-.064-7.39 5.919-13.516 13.308-13.619a13.463 13.463 0 0 1 9.998 4.219.703.703 0 1 0 1.021-.967 14.869 14.869 0 0 0-11.038-4.658c-8.164.114-14.765 6.874-14.695 15.037a14.855 14.855 0 0 0 4.04 10.073c1.652 1.758 2.545 4.107 2.549 6.535v.003l.01 1.697v.002a3.27 3.27 0 0 0 3.27 3.264l10.1-.001a3.27 3.27 0 0 0 3.27-3.275v-.003l-.01-1.762v-.002c-.003-2.386.874-4.695 2.503-6.414l-.475-.45.475.45a14.857 14.857 0 0 0 4.083-10.249 14.84 14.84 0 0 0-2.236-7.855.703.703 0 1 0-1.195.742 13.433 13.433 0 0 1 2.024 7.113 13.45 13.45 0 0 1-3.697 9.282c-1.89 1.994-2.892 4.656-2.888 7.385v.003l.01 1.762c0 1.03-.834 1.867-1.864 1.867h-10.1Z" fill="url(#b)"/><path d="M21.422 48a3.137 3.137 0 0 1-3.137-3.15L21.422 48Zm0 0h5.144a3.136 3.136 0 0 0 3.137-3.123l.02-4.52a.703.703 0 0 0-.704-.706H19.008a.703.703 0 0 0-.703.701l-.02 4.498m1.406.006.017-3.798h8.605l-.017 3.813a1.73 1.73 0 0 1-1.73 1.722h-5.144a1.73 1.73 0 0 1-1.73-1.737Z" fill="url(#c)"/><path d="M20.193 23.773c.022.371.33.66.702.66h6.203c.35 0 .648-.257.696-.604a7.297 7.297 0 0 1 1.8-3.859c.3-.334.363-.822.149-1.222m-8.637 2.734c.224.563.35 1.09.42 1.545l-.42-1.545Zm.42 1.545h4.983a8.68 8.68 0 0 1 1.884-3.82 43.272 43.272 0 0 0-4.4-6.582 39.897 39.897 0 0 0-4.379 6.547 7.154 7.154 0 0 1 1.492 2.31m-1.608-2.09v-.001Zm9.051-.363Zm-.046.384Zm-8.31 4.36a5.714 5.714 0 0 0-.394-1.771l.394 1.77Zm-.394-1.771Zm0 0a5.77 5.77 0 0 0-1.346-2.003l1.346 2.003Zm-1.346-2.003a1.066 1.066 0 0 1-.2-1.262l.2 1.262Zm11.29-1.251a44.73 44.73 0 0 0-4.735-7.101m-6.754 7.09a41.263 41.263 0 0 1 2.018-3.426l-2.018 3.425Zm4.73-7.098a41.289 41.289 0 0 0-2.712 3.672m4.736-3.664a1.31 1.31 0 0 0-2.025-.008" fill="url(#d)"/><path d="M20.195 26.571c0 .389.315.703.703.703h6.204a.703.703 0 0 0 .703-.703v-2.84a.703.703 0 0 0-.703-.704h-6.204a.703.703 0 0 0-.703.704v2.84Zm1.406-.703v-1.434H26.4v1.434H21.6Z" fill="url(#e)"/><path d="M27.865 41.057a.703.703 0 0 0 .703-.704V27.325c0-.806-.654-1.456-1.457-1.456H20.89c-.803 0-1.457.65-1.457 1.456v9.991a.703.703 0 0 0 1.406 0v-9.99a.05.05 0 0 1 .05-.05h6.223a.05.05 0 0 1 .051.05v13.027c0 .389.315.704.703.704Z" fill="url(#f)"/><path d="M24 20.248a.703.703 0 0 0 .703-.703v-7.677a.703.703 0 0 0-1.406 0v7.677c0 .388.315.703.703.703Z" fill="url(#g)"/><path d="M19.432 29.828c0 .389.315.703.703.703h7.73a.703.703 0 1 0 0-1.406h-7.73a.703.703 0 0 0-.703.703Z" fill="url(#h)"/><path d="M23.994 2.707a.703.703 0 0 0 .703-.703v-1.3a.703.703 0 0 0-1.407 0v1.3c0 .388.315.703.704.703Z" fill="url(#i)"/><path d="M40.507 19.766c0 .388.314.703.703.703h1.26a.703.703 0 0 0 0-1.407h-1.26a.703.703 0 0 0-.703.704Z" fill="url(#j)"/><path d="M4.827 19.766c0 .388.315.703.704.703h1.26a.703.703 0 0 0 0-1.407H5.53a.703.703 0 0 0-.704.704Z" fill="url(#k)"/><path d="M35.68 7.711c.279.27.724.263.994-.016l.89-.92a.703.703 0 0 0-1.01-.978l-.89.92a.703.703 0 0 0 .016.994Z" fill="url(#l)"/><path d="M10.45 33.75c.28.27.725.262.995-.017l.89-.92a.703.703 0 1 0-1.009-.978l-.89.92a.703.703 0 0 0 .015.994Z" fill="url(#m)"/><path d="M37.55 33.75a.703.703 0 0 0 .015-.995l-.891-.92a.703.703 0 1 0-1.01.979l.89.92c.271.278.716.285.995.015Z" fill="url(#n)"/><path d="M12.32 7.711a.703.703 0 0 0 .016-.994l-.891-.92a.703.703 0 1 0-1.01.979l.891.92c.27.278.715.285.994.015Z" fill="url(#o)"/><path d="M18.285 43.592c0 .388.315.703.703.703h7.3a.703.703 0 0 0 0-1.406h-7.3a.703.703 0 0 0-.703.703Z" fill="url(#p)"/></g><defs><linearGradient id="b" x1="9.093" y1="22.752" x2="38.908" y2="22.752" gradientUnits="userSpaceOnUse"><stop offset="0" stop-color="#0CBAF1"/><stop offset="1" stop-color="#E95CE9"/></linearGradient><linearGradient id="c" x1="18.285" y1="43.825" x2="29.722" y2="43.825" gradientUnits="userSpaceOnUse"><stop offset="0" stop-color="#0CBAF1"/><stop offset="1" stop-color="#E95CE9"/></linearGradient><linearGradient id="d" x1="18.131" y1="17.799" x2="29.87" y2="17.799" gradientUnits="userSpaceOnUse"><stop offset="0" stop-color="#0CBAF1"/><stop offset="1" stop-color="#E95CE9"/></linearGradient><linearGradient id="e" x1="20.195" y1="25.151" x2="27.805" y2="25.151" gradientUnits="userSpaceOnUse"><stop offset="0" stop-color="#0CBAF1"/><stop offset="1" stop-color="#E95CE9"/></linearGradient><linearGradient id="f" x1="19.432" y1="33.463" x2="28.568" y2="33.463" gradientUnits="userSpaceOnUse"><stop offset="0" stop-color="#0CBAF1"/><stop offset="1" stop-color="#E95CE9"/></linearGradient><linearGradient id="g" x1="23.297" y1="15.707" x2="24.703" y2="15.707" gradientUnits="userSpaceOnUse"><stop offset="0" stop-color="#0CBAF1"/><stop offset="1" stop-color="#E95CE9"/></linearGradient><linearGradient id="h" x1="19.432" y1="29.828" x2="28.568" y2="29.828" gradientUnits="userSpaceOnUse"><stop offset="0" stop-color="#0CBAF1"/><stop offset="1" stop-color="#E95CE9"/></linearGradient><linearGradient id="i" x1="23.29" y1="1.354" x2="24.697" y2="1.354" gradientUnits="userSpaceOnUse"><stop offset="0" stop-color="#0CBAF1"/><stop offset="1" stop-color="#E95CE9"/></linearGradient><linearGradient id="j" x1="40.507" y1="19.766" x2="43.172" y2="19.766" gradientUnits="userSpaceOnUse"><stop offset="0" stop-color="#0CBAF1"/><stop offset="1" stop-color="#E95CE9"/></linearGradient><linearGradient id="k" x1="4.827" y1="19.766" x2="7.493" y2="19.766" gradientUnits="userSpaceOnUse"><stop offset="0" stop-color="#0CBAF1"/><stop offset="1" stop-color="#E95CE9"/></linearGradient><linearGradient id="l" x1="35.466" y1="6.746" x2="37.763" y2="6.746" gradientUnits="userSpaceOnUse"><stop offset="0" stop-color="#0CBAF1"/><stop offset="1" stop-color="#E95CE9"/></linearGradient><linearGradient id="m" x1="10.237" y1="32.784" x2="12.534" y2="32.784" gradientUnits="userSpaceOnUse"><stop offset="0" stop-color="#0CBAF1"/><stop offset="1" stop-color="#E95CE9"/></linearGradient><linearGradient id="n" x1="35.466" y1="32.784" x2="37.763" y2="32.784" gradientUnits="userSpaceOnUse"><stop offset="0" stop-color="#0CBAF1"/><stop offset="1" stop-color="#E95CE9"/></linearGradient><linearGradient id="o" x1="10.237" y1="6.746" x2="12.534" y2="6.746" gradientUnits="userSpaceOnUse"><stop offset="0" stop-color="#0CBAF1"/><stop offset="1" stop-color="#E95CE9"/></linearGradient><linearGradient id="p" x1="18.285" y1="43.592" x2="26.992" y2="43.592" gradientUnits="userSpaceOnUse"><stop offset="0" stop-color="#0CBAF1"/><stop offset="1" stop-color="#E95CE9"/></linearGradient></defs></svg>