<svg width="48" height="48" fill="none" xmlns="http://www.w3.org/2000/svg"><g clip-path="url(#a)"><mask id="b" style="mask-type:luminance" maskUnits="userSpaceOnUse" x="0" y="0" width="48" height="48"><path d="M0 0h48v48H0V0Z" fill="#fff"/></mask><g mask="url(#b)" fill-rule="evenodd" clip-rule="evenodd"><path d="M13.183 32.269a4.725 4.725 0 0 1-5.548-2.02l-.586.358.586-.358-3.897-6.4a10.833 10.833 0 0 1-.927-9.338L6.774 3.623l-.66-.24.66.24A3.368 3.368 0 0 1 11.09 1.61L28.945 8.11l.24-.661-.24.66a3.368 3.368 0 0 1 2.013 4.318l-3.962 10.887a10.833 10.833 0 0 1-6.714 6.558l-7.099 2.398Zm.45 1.332a6.132 6.132 0 0 1-7.199-2.62l-3.897-6.4.6-.365-.6.365A12.239 12.239 0 0 1 1.49 14.03L5.452 3.142A4.775 4.775 0 0 1 11.572.29l17.854 6.498a4.775 4.775 0 0 1 2.854 6.12l-3.963 10.887a12.239 12.239 0 0 1-7.585 7.41l-.21-.621.21.62-7.099 2.398Z" fill="url(#c)"/><path d="M18.558 23.656a5.403 5.403 0 0 1-5.95 1.562l-.24.661.24-.66a5.402 5.402 0 0 1-3.553-5.022c1.222 1.015 2.743 1.89 4.465 2.517s3.45.934 5.038.942Zm-6.43 2.884a6.809 6.809 0 0 0 8.412-3.346.703.703 0 0 0-.71-1.013c-1.709.202-3.754-.033-5.83-.789-2.075-.755-3.792-1.89-4.97-3.142a.703.703 0 0 0-1.197.319 6.809 6.809 0 0 0 4.294 7.97Z" fill="url(#d)"/><path d="M13.701 15.43a.703.703 0 0 0 .511-.853c-.296-1.187-1.23-2.221-2.527-2.693M13.7 15.43a.703.703 0 0 1-.853-.511l.853.511Zm-.853-.511c-.176-.705-.756-1.39-1.645-1.714l1.645 1.713ZM7.86 13.303a.703.703 0 0 0 .982.156c.588-.426 1.473-.579 2.361-.255m-3.343.1a.703.703 0 0 1 .156-.983l-.156.982Zm.156-.983c.991-.718 2.37-.91 3.668-.438l-3.668.438Z" fill="url(#e)"/><path d="M23.903 19.144a.703.703 0 0 0 .512-.853c-.297-1.187-1.23-2.221-2.528-2.694m2.016 3.547a.703.703 0 0 1-.852-.512l.852.512Zm-.852-.512c-.177-.704-.756-1.39-1.645-1.713l1.645 1.713Zm-4.989-1.614a.703.703 0 0 0 .982.156c.588-.426 1.473-.579 2.362-.255m-3.344.099a.703.703 0 0 1 .157-.982l-.157.982Zm.157-.982c.99-.719 2.37-.911 3.668-.439l-3.668.439Z" fill="url(#f)"/><path d="M15.816 10.525a.703.703 0 0 0-.42-.9c-2.028-.739-3.748-.79-4.974-.649a8.223 8.223 0 0 0-1.439.292 5.62 5.62 0 0 0-.553.2l-.004.003h-.002l.296.638-.297-.637a.703.703 0 0 0 .591 1.276l.013-.006.067-.027c.063-.024.163-.06.297-.101.27-.082.673-.18 1.192-.24 1.035-.12 2.533-.083 4.332.572a.703.703 0 0 0 .9-.42Zm-6.8.222Z" fill="url(#g)"/><path d="M25.596 16.78a.703.703 0 0 0 .34-.934l-.637.297.637-.297v-.001l-.001-.002-.002-.004-.005-.01a2.24 2.24 0 0 0-.073-.14 5.66 5.66 0 0 0-.217-.36 8.225 8.225 0 0 0-.915-1.148c-.849-.896-2.2-1.962-4.226-2.7a.703.703 0 0 0-.481 1.321c1.798.655 2.97 1.59 3.686 2.346.359.38.605.715.758.95a4.205 4.205 0 0 1 .197.333l.006.012c.165.35.582.501.933.338Z" fill="url(#h)"/><path d="M40.365 44.325a4.725 4.725 0 0 1-5.548 2.02l-7.1-2.398a10.833 10.833 0 0 1-6.712-6.558l-1.257-3.452a.703.703 0 1 0-1.322.48l1.257 3.453a12.24 12.24 0 0 0 7.585 7.41l7.099 2.397a6.132 6.132 0 0 0 7.199-2.62l3.897-6.4-.6-.365.6.365a12.24 12.24 0 0 0 1.047-10.551l-3.962-10.888a4.775 4.775 0 0 0-6.12-2.853l-3.15 1.146a.703.703 0 0 0 .482 1.322l3.149-1.147a3.368 3.368 0 0 1 4.317 2.013l3.963 10.888a10.833 10.833 0 0 1-.927 9.339l-3.897 6.4.6.365-.6-.366Z" fill="url(#i)"/><path d="M29.28 41.405c.25.067.516-.01.693-.198 1.178-1.252 2.896-2.387 4.971-3.142l-.24-.661.24.66c2.076-.755 4.121-.99 5.829-.788a.703.703 0 0 0 .711-1.013 6.809 6.809 0 0 0-8.413-3.346 6.809 6.809 0 0 0-4.294 7.972c.06.251.253.45.503.516Zm.718-2.145a5.402 5.402 0 0 1 3.554-5.021l-.24-.661.24.66a5.402 5.402 0 0 1 5.95 1.563c-1.589.008-3.316.315-5.038.942-1.722.627-3.243 1.502-4.466 2.517Zm3.314-5.682-.002-.003.002.003Z" fill="url(#j)"/><path d="M26.826 30.862c-.774.544-1.668.627-2.346.368a.703.703 0 0 0-.502 1.314c1.144.436 2.526.263 3.656-.53 1.13-.794 1.763-2.035 1.741-3.259a.703.703 0 1 0-1.406.025c.013.726-.369 1.539-1.143 2.082" fill="url(#k)"/><path d="M33.227 27.354c.77.951 2.052 1.496 3.428 1.377s2.546-.875 3.141-1.944a.703.703 0 0 0-1.228-.684c-.354.634-1.092 1.146-2.034 1.227-.942.081-1.757-.296-2.214-.86a.703.703 0 1 0-1.093.884Z" fill="url(#l)"/><path d="M32.184 24.6a.703.703 0 0 0 .902.42c1.798-.654 3.296-.69 4.33-.571.52.06.924.158 1.193.24a4.23 4.23 0 0 1 .364.129l.013.005h-.001l-.001-.001.283-.609-.284.609.003.001a.703.703 0 0 0 .591-1.276l-.297.637.297-.637h-.001l-.002-.001-.004-.002-.01-.005a1.838 1.838 0 0 0-.145-.06 5.588 5.588 0 0 0-.398-.136 8.217 8.217 0 0 0-1.44-.291c-1.225-.142-2.945-.09-4.972.647a.703.703 0 0 0-.42.902Z" fill="url(#m)"/></g></g><defs><linearGradient id="c" x1=".752" y1="16.962" x2="32.569" y2="16.962" gradientUnits="userSpaceOnUse"><stop offset="0" stop-color="#0CBAF1"/><stop offset="1" stop-color="#E95CE9"/></linearGradient><linearGradient id="d" x1="7.648" y1="22.49" x2="20.615" y2="22.49" gradientUnits="userSpaceOnUse"><stop offset="0" stop-color="#0CBAF1"/><stop offset="1" stop-color="#E95CE9"/></linearGradient><linearGradient id="e" x1="7.726" y1="13.538" x2="14.234" y2="13.538" gradientUnits="userSpaceOnUse"><stop offset="0" stop-color="#0CBAF1"/><stop offset="1" stop-color="#E95CE9"/></linearGradient><linearGradient id="f" x1="17.928" y1="17.252" x2="24.436" y2="17.252" gradientUnits="userSpaceOnUse"><stop offset="0" stop-color="#0CBAF1"/><stop offset="1" stop-color="#E95CE9"/></linearGradient><linearGradient id="g" x1="8.017" y1="9.951" x2="15.858" y2="9.951" gradientUnits="userSpaceOnUse"><stop offset="0" stop-color="#0CBAF1"/><stop offset="1" stop-color="#E95CE9"/></linearGradient><linearGradient id="h" x1="19.553" y1="14.143" x2="26.002" y2="14.143" gradientUnits="userSpaceOnUse"><stop offset="0" stop-color="#0CBAF1"/><stop offset="1" stop-color="#E95CE9"/></linearGradient><linearGradient id="i" x1="18.384" y1="31.038" x2="47.248" y2="31.038" gradientUnits="userSpaceOnUse"><stop offset="0" stop-color="#0CBAF1"/><stop offset="1" stop-color="#E95CE9"/></linearGradient><linearGradient id="j" x1="28.592" y1="36.967" x2="41.559" y2="36.967" gradientUnits="userSpaceOnUse"><stop offset="0" stop-color="#0CBAF1"/><stop offset="1" stop-color="#E95CE9"/></linearGradient><linearGradient id="k" x1="23.526" y1="30.421" x2="29.376" y2="30.421" gradientUnits="userSpaceOnUse"><stop offset="0" stop-color="#0CBAF1"/><stop offset="1" stop-color="#E95CE9"/></linearGradient><linearGradient id="l" x1="33.07" y1="27.244" x2="39.885" y2="27.244" gradientUnits="userSpaceOnUse"><stop offset="0" stop-color="#0CBAF1"/><stop offset="1" stop-color="#E95CE9"/></linearGradient><linearGradient id="m" x1="32.142" y1="24.026" x2="39.983" y2="24.026" gradientUnits="userSpaceOnUse"><stop offset="0" stop-color="#0CBAF1"/><stop offset="1" stop-color="#E95CE9"/></linearGradient><clipPath id="a"><path fill="#fff" d="M0 0h48v48H0z"/></clipPath></defs></svg>