<svg width="990" height="721" viewBox="0 0 990 721" fill="none" xmlns="http://www.w3.org/2000/svg">
<path opacity="0.2" d="M-195.193 0L1301.61 728.783" stroke="white" stroke-opacity="0.4"/>
<path opacity="0.2" d="M-283.241 42.8691L1213.57 771.652" stroke="white" stroke-opacity="0.4"/>
<path opacity="0.2" d="M-371.289 85.7393L1125.52 814.522" stroke="white" stroke-opacity="0.4"/>
<path opacity="0.2" d="M-459.336 128.608L1037.47 857.391" stroke="white" stroke-opacity="0.4"/>
<path opacity="0.2" d="M-547.383 171.479L949.424 900.261" stroke="white" stroke-opacity="0.4"/>
<path opacity="0.2" d="M-635.43 214.348L861.377 943.13" stroke="white" stroke-opacity="0.4"/>
<path opacity="0.2" d="M-723.477 257.218L773.33 986.001" stroke="white" stroke-opacity="0.4"/>
<path opacity="0.2" d="M-811.526 300.087L685.281 1028.87" stroke="white" stroke-opacity="0.4"/>
<path opacity="0.2" d="M-899.574 342.957L597.234 1071.74" stroke="white" stroke-opacity="0.4"/>
<path opacity="0.2" d="M-987.62 385.826L509.187 1114.61" stroke="white" stroke-opacity="0.4"/>
<path opacity="0.2" d="M-1075.67 428.695L421.139 1157.48" stroke="white" stroke-opacity="0.4"/>
<path opacity="0.2" d="M-1163.71 471.565L333.093 1200.35" stroke="white" stroke-opacity="0.4"/>
<path opacity="0.2" d="M-1251.76 514.435L245.045 1243.22" stroke="white" stroke-opacity="0.4"/>
<path opacity="0.2" d="M-1339.81 557.305L156.996 1286.09" stroke="white" stroke-opacity="0.4"/>
<path opacity="0.2" d="M-1427.86 600.174L68.949 1328.96" stroke="white" stroke-opacity="0.4"/>
<path opacity="0.2" d="M68.9495 128.608L-1427.86 857.391" stroke="white" stroke-opacity="0.4"/>
<path opacity="0.2" d="M156.997 171.479L-1339.81 900.261" stroke="white" stroke-opacity="0.4"/>
<path opacity="0.2" d="M245.045 214.348L-1251.76 943.13" stroke="white" stroke-opacity="0.4"/>
<path opacity="0.2" d="M333.092 257.218L-1163.72 986.001" stroke="white" stroke-opacity="0.4"/>
<path opacity="0.2" d="M421.139 300.087L-1075.67 1028.87" stroke="white" stroke-opacity="0.4"/>
<path opacity="0.2" d="M509.187 342.957L-987.621 1071.74" stroke="white" stroke-opacity="0.4"/>
<path opacity="0.2" d="M597.217 385.826L-899.59 1114.61" stroke="white" stroke-opacity="0.4"/>
<path opacity="0.2" d="M685.265 428.695L-811.543 1157.48" stroke="white" stroke-opacity="0.4"/>
<path opacity="0.2" d="M773.312 471.565L-723.496 1200.35" stroke="white" stroke-opacity="0.4"/>
<path opacity="0.2" d="M861.359 514.435L-635.448 1243.22" stroke="white" stroke-opacity="0.4"/>
<path opacity="0.2" d="M949.407 557.305L-547.401 1286.09" stroke="white" stroke-opacity="0.4"/>
<path opacity="0.2" d="M1037.45 600.174L-459.353 1328.96" stroke="white" stroke-opacity="0.4"/>
<path opacity="0.2" d="M1125.5 643.044L-371.306 1371.83" stroke="white" stroke-opacity="0.4"/>
</svg>
