<svg xmlns="http://www.w3.org/2000/svg" width="60" height="64" fill="none"><path fill="url(#a)" d="M35.57 44.347a.306.306 0 0 1 .034.243.322.322 0 0 1-.152.194 54.796 54.796 0 0 1-9.445 4.239c1.533 1.717.957 9.936.468 14.695a.305.305 0 0 1-.101.202.316.316 0 0 1-.212.08h-.03a.318.318 0 0 1-.29-.354c1.338-13.06-.284-14.217-.398-14.289a.304.304 0 0 1-.186-.094 39.282 39.282 0 0 1-5.514 1.413c-.462.1-.93.152-1.404.154-1.55 0-2.942-.571-3.744-1.597-.753-.963-1.343-2.723.037-5.687-.545-.437-1.784-1.73-.812-3.748a.309.309 0 0 1 .117-.13.306.306 0 0 1 .167-.048h5.212c.04.004.077.014.113.031a.31.31 0 0 1 .176.283.313.313 0 0 1-.289.313h-5.001a2.276 2.276 0 0 0-.202 1.223 2.293 2.293 0 0 0 1.078 1.707.308.308 0 0 1 .14.18.326.326 0 0 1-.02.229c-1.095 2.224-1.17 4.042-.219 5.249.892 1.139 2.674 1.616 4.54 1.213.09-.015 7.263-1.14 15.503-5.828a.312.312 0 0 1 .354.03c.034.027.06.06.08.097Zm15.033-1.286c-.556 3.7 1.92 10.29 5.888 15.67a.322.322 0 0 1 .058.233.306.306 0 0 1-.124.205.31.31 0 0 1-.347.016.335.335 0 0 1-.091-.082c-4.123-5.588-6.593-12.224-6.004-16.137.19-1.268 1.237-3.614 2.249-5.883.7-1.568 1.424-3.189 1.811-4.343a.078.078 0 0 1 0-.027c.06-.133.116-.269.172-.405h-4.764a.304.304 0 0 1-.044.2c-.389.648-.83 1.257-1.327 1.828-.112.437-.742 2.675-2.133 3.38a1.914 1.914 0 0 1-.891.218 2.28 2.28 0 0 1-.906-.2c-1.236-.528-1.11-1.8-.876-2.405a.306.306 0 0 1 .07-.094.309.309 0 0 1 .33-.062.31.31 0 0 1 .168.158.318.318 0 0 1 .017.23c-.047.118-.428 1.174.534 1.588.199.1.41.149.632.149.223 0 .434-.05.633-.15 1.257-.635 1.818-3.009 1.824-3.033a.3.3 0 0 1 .064-.129c.46-.527.874-1.089 1.242-1.684h-4.976a.261.261 0 0 1-.08-.01 5.54 5.54 0 0 1-2.532-1.593.307.307 0 0 1-.219.099h-1.358c-.937 1.565-2.056 2.624-3.357 2.624h-.083c-.438.26-2.409 1.39-4.285 1.39-.134 0-.27 0-.403-.019a2.597 2.597 0 0 1-1.056.24c-.073 0-.146-.004-.219-.015l-20.111-1.08a.317.317 0 0 1 .06.052c.746.983 2.93 1.049 3.709.989a.312.312 0 0 1 .324.22.303.303 0 0 1 .01.14c-.089.611-.219 2.376.194 3.17a.329.329 0 0 1 .022.24.313.313 0 0 1-.154.184.313.313 0 0 1-.308-.008.312.312 0 0 1-.117-.12c-.466-.876-.377-2.463-.304-3.185-.876.015-2.993-.083-3.878-1.251a.307.307 0 0 1-.06-.231.306.306 0 0 1 .121-.207s.016 0 .022-.01l-3.843-.208c-.105 0-2.67-.072-2.921-1.68C.66 31.48.472 28.9.46 28.67c-.501-4.82-.593-9.647-.278-14.483.066-1.715 1.583-2.272 2.129-2.338l.319-.057c.26-.365 1.14-1.331 3.338-1.653.072 0 4.519-.604 11.242-.923C21.292 3.108 30.041-.258 36.148.015c8.203.37 15.208 4.375 18.786 10.717l.909-.08a1.95 1.95 0 0 1 .3-1.383c.284-.374.73-.57 1.313-.586h.064c2.067 0 2.227 2.68 2.345 4.642.246 4.067.156 7.298-.271 9.874-.607 3.68-1.599 6.452-4.557 8.748-.133.34-.272.676-.416 1.005-.396 1.183-1.095 2.74-1.827 4.387-.984 2.23-2.014 4.537-2.191 5.722Zm6.006-25.636-7.844.827a1.263 1.263 0 0 1-.83.188l-1.532.057a25.95 25.95 0 0 1-3.178 9.337 2.576 2.576 0 0 0 1.631.973c.877.186 3.66.219 5.68.219a.306.306 0 0 1 .018-.177c.633-1.551.743-2.916.303-3.744a1.57 1.57 0 0 0-.476-.548 1.574 1.574 0 0 0-.67-.28c-2.862-.612-3.589 2.006-3.617 2.118a.3.3 0 0 1-.144.201.31.31 0 0 1-.245.036.31.31 0 0 1-.233-.274.313.313 0 0 1 .014-.125c0-.033.912-3.305 4.357-2.57a2.196 2.196 0 0 1 .911.399 2.211 2.211 0 0 1 .648.754c.53.997.438 2.493-.252 4.214h1.548c.294-.136 1.971-1.02 3.4-3.967.082-.482.69-4.608.511-7.638Zm-8.683.387h.034c.35.018.455-.063.466-.085v-3.803c-5.46-3.026-11.777-3.863-14.7-4.082a3.223 3.223 0 0 1 1.132 2.049c.686 5.122.739 10.25.16 15.385-.39 3.37-1.252 5.686-2.564 6.894 1.723-.22 3.462-1.297 3.481-1.312h.024c2.164-1.13 2.41-4.64 2.41-4.674l.438-7.355c.05-2.65 2.541-2.76 2.566-2.76l6.553-.257Zm9.99-1.776-.321-4.882-11.652.876c1.016.42 2.002.9 2.96 1.439a.308.308 0 0 1 .16.273v3.85l7.816-.825c1.038-.16 1.038-.724 1.038-.73ZM36.12.643c-.375-.015-.76-.02-1.152 0-2.166.427-6.997 2.067-11.556 8.399 2.354-.028 4.859 0 7.445.079.055 0 .112 0 .173.015.3-.026.599-.021.898.013a.31.31 0 0 1 .118-.022c4.296.153 8.47.946 12.522 2.38l9.66-.726C50.722 4.774 43.991.998 36.12.643ZM18 9.186c1.569-.067 3.253-.118 5.025-.144 3.21-4.534 6.551-6.701 8.811-7.73.497-.218.962-.404 1.39-.55-5.412.665-11.8 3.63-15.225 8.424ZM3.727 11.611c1.885-.299 5.42-.802 9.197-1.02 4.912-.287 12.131-.438 12.565-.438a3.648 3.648 0 0 1 1.465.18 3.676 3.676 0 0 1 1.274.745c1.787 1.507 2.694 4.547 2.694 9.035 0 4.922-.54 8.56-1.603 10.822-.453.962-.915 1.474-1.257 1.75l2.435.118c1.018-.942 1.667-3.732 1.833-4.753 1.338-8.245.248-16.487.237-16.567-.165-1.354-1.148-1.654-1.547-1.72a.312.312 0 0 1-.066 0h-.098a164.66 164.66 0 0 0-24.797.998 5.252 5.252 0 0 0-2.332.85Zm0 19.904 2.378-2.143a.302.302 0 0 1 .219-.082l12.228.276a.349.349 0 0 1 .122.028 45.738 45.738 0 0 1 5.122 2.776H27.4c.279-.127 2.885-1.592 2.885-12.248 0-5.347-1.343-7.604-2.468-8.554-1.125-.949-2.245-.783-2.255-.78h-.046c-.075 0-7.534.142-12.561.437-3.537.216-7.051.63-10.542 1.242H2.39c-.013 0-1.521.219-1.579 1.75a85.175 85.175 0 0 0 .287 14.4.088.088 0 0 1 0 .035c0 .103.092 2.727 2.628 2.87v-.007Zm14.744-1.312-12.044-.274-1.824 1.634 18.107.864c-1.84-1.11-3.873-2.058-4.248-2.227l.009.003Zm12.827 4.006c.155-.077.301-.167.438-.27.93-.697 2.14-2.428 2.64-6.737a62.081 62.081 0 0 0-.156-15.207c-.219-1.287-.983-1.85-1.695-2.089a2.626 2.626 0 0 1 .657 1.498c0 .079 1.112 8.41-.239 16.749-.028.164-.675 4.031-2.148 5.217a.315.315 0 0 1-.197.07h-.016L3.818 32.15h-.157c.393.876 2.233.946 2.255.946l24.341 1.313h.042c.35.03.68-.036.99-.202l.008.002ZM42.77 18.631l-1.38.048c-.079 0-1.92.1-1.96 2.156l-.449 7.38c0 .126-.174 2.584-1.532 4.21 2.8-1.91 4.717-10.116 5.312-13.797l.009.003Zm-1.943 11.552c3.789-4.558 4.745-10.208 4.937-11.658l-2.361.085c-.139.858-1.255 7.47-3.431 11.573h.855Zm3.032 1.505h10.5c3.035-2.219 4.021-4.932 4.627-8.585.417-2.53.503-5.715.262-9.735-.134-2.216-.357-4.05-1.723-4.05h-.04a1.005 1.005 0 0 0-.458.07 1.011 1.011 0 0 0-.38.266 1.34 1.34 0 0 0-.174.956l1.38-.105a.302.302 0 0 1 .23.077.307.307 0 0 1 .107.219l.355 5.205c0 .048.035 1.012-1.314 1.334.206 3.28-.479 7.675-.51 7.874a.304.304 0 0 1-.026.085c-1.678 3.5-3.723 4.313-3.813 4.346a.35.35 0 0 1-.105.02c-.094 0-.937.01-2.054.01-2.056 0-5.036-.037-6.002-.24a3.321 3.321 0 0 1-1.846-1.018 20.592 20.592 0 0 1-1.27 1.807 4.877 4.877 0 0 0 2.254 1.457v.007Z" opacity=".86"/><defs><linearGradient id="a" x1="0" x2="60" y1="32" y2="32" gradientUnits="userSpaceOnUse"><stop offset="0" stop-color="#0CBAF1"/><stop offset="1" stop-color="#E95CE9"/></linearGradient></defs></svg>