<svg width="102" height="102" fill="none" xmlns="http://www.w3.org/2000/svg"><circle cx="51" cy="51" r="51" fill="#252532" fill-opacity=".8"/><circle cx="51" cy="51" r="50.5" stroke="url(#a)" stroke-opacity=".3"/><path d="M26.53 49.877a1.88 1.88 0 0 0-.538 1.506l-.01-.01a2.233 2.233 0 0 1-2.413 2.415l.009.01a1.892 1.892 0 1 0 1.708 1.706l.01.009a2.234 2.234 0 0 1 2.413-2.414l-.01-.01a1.89 1.89 0 0 0 1.944-2.525 1.89 1.89 0 0 0-3.112-.687h-.001Z" fill="#D1D1D1"/><path d="m22.736 52.585-.01-.01a1.87 1.87 0 0 0 2.045-2.043l.01.009a2.234 2.234 0 0 1 2.414-2.414l-.01-.01a1.891 1.891 0 1 0-1.706-1.706l-.01-.01a2.234 2.234 0 0 1-2.413 2.414l.009.01a1.868 1.868 0 0 0-2.045 2.044l-.01-.01a2.236 2.236 0 0 1-2.414 2.415l.01.01a1.89 1.89 0 1 0 1.706 1.706l.01.009a2.234 2.234 0 0 1 2.414-2.414Z" fill="#D1D1D1"/><path d="M19.29 51.552a1.878 1.878 0 0 0 .537-1.507l.01.01a2.233 2.233 0 0 1 2.414-2.414l-.01-.01a1.892 1.892 0 1 0-1.706-1.706l-.009-.01a2.234 2.234 0 0 1-2.414 2.415l.01.009a1.888 1.888 0 1 0 1.168 3.213ZM35.22 46.423h1.528v7.433H35.22v-7.433ZM37.613 51.31a2.7 2.7 0 1 1 2.698 2.688 2.669 2.669 0 0 1-2.698-2.687Zm3.87 0a1.173 1.173 0 1 0-1.172 1.205 1.143 1.143 0 0 0 1.171-1.204ZM49.097 48.765v4.834c0 1.71-1.334 2.434-2.688 2.434a2.604 2.604 0 0 1-2.413-1.235l1.303-.753a1.163 1.163 0 0 0 1.16.641 1.015 1.015 0 0 0 1.151-1.09v-.464a1.81 1.81 0 0 1-1.486.661 2.587 2.587 0 0 1 0-5.172 1.81 1.81 0 0 1 1.486.662v-.52l1.487.002Zm-1.486 2.443a1.235 1.235 0 1 0-1.232 1.183 1.153 1.153 0 0 0 1.232-1.183ZM49.962 51.31a2.698 2.698 0 1 1 2.699 2.688 2.669 2.669 0 0 1-2.699-2.687Zm3.87 0a1.173 1.173 0 1 0-1.171 1.205 1.143 1.143 0 0 0 1.17-1.204ZM56.071 47.4a.917.917 0 1 1 .917.916.926.926 0 0 1-.917-.916Zm.155 1.364h1.528v5.092h-1.53l.002-5.092ZM64.349 51.31a2.556 2.556 0 0 1-2.434 2.688 1.912 1.912 0 0 1-1.517-.621v2.515h-1.527v-7.128h1.527v.479a1.912 1.912 0 0 1 1.517-.621 2.556 2.556 0 0 1 2.434 2.688Zm-1.528 0a1.212 1.212 0 1 0-1.21 1.242 1.163 1.163 0 0 0 1.21-1.242ZM69.062 52.328c0 1.171-1.017 1.67-2.117 1.67a2.229 2.229 0 0 1-2.19-1.212l1.324-.753a.837.837 0 0 0 .864.6c.366 0 .55-.111.55-.315 0-.56-2.505-.264-2.505-2.026 0-1.11.937-1.67 1.996-1.67a2.225 2.225 0 0 1 1.985 1.09l-1.304.702a.737.737 0 0 0-.681-.448c-.265 0-.428.103-.428.285.002.58 2.506.193 2.506 2.077ZM74.642 48.765v5.091h-1.528v-.479a1.742 1.742 0 0 1-1.455.621c-1.029 0-1.903-.732-1.903-2.108v-3.125h1.527v2.901a.836.836 0 0 0 .53.87.837.837 0 0 0 .356.056c.56 0 .947-.326.947-1.049v-2.777l1.526-.001ZM83.4 50.73v3.125h-1.527v-2.993c0-.51-.245-.835-.733-.835-.51 0-.795.356-.795.957v2.871h-1.527v-2.993c0-.51-.244-.835-.733-.835-.51 0-.794.356-.794.957v2.871h-1.528v-5.091h1.528v.468a1.564 1.564 0 0 1 1.364-.61 1.515 1.515 0 0 1 1.334.67 1.677 1.677 0 0 1 1.476-.67c1.17 0 1.935.834 1.935 2.107ZM84.692 48.733a1.134 1.134 0 1 0 0-2.267 1.134 1.134 0 0 0 0 2.267Z" fill="#D1D1D1"/><defs><linearGradient id="a" x1="0" y1="-3.685" x2="110.285" y2="5.815" gradientUnits="userSpaceOnUse"><stop offset="0" stop-color="#fff"/><stop offset="1" stop-color="#fff" stop-opacity="0"/></linearGradient></defs></svg>