<svg width="102" height="102" fill="none" xmlns="http://www.w3.org/2000/svg"><circle cx="51" cy="51" r="51" fill="#252532" fill-opacity=".8"/><circle cx="51" cy="51" r="50.5" stroke="url(#a)" stroke-opacity=".3"/><g clip-path="url(#b)" fill="#D1D1D1"><path d="M11.454 55.833v-9.889l4.85 2.747v4.422l3.88 2.225 3.88-2.225v-4.422l4.851-2.747v9.889l-8.73 4.944-8.731-4.944Z"/><path fill-rule="evenodd" clip-rule="evenodd" d="m13.879 47.318-2.425-1.374L20.184 41l8.731 4.944-2.425 1.374v7.279l-6.305 3.708-6.306-3.709v-7.278Zm12.348.148-2.162 1.225v-.028l-3.88-2.224-3.88 2.224v.028l-2.163-1.225v6.978l6.043 3.554 6.043-3.554v-6.978Z"/><path d="M33.564 55.051v-8.306h1.537v6.882h3.725v1.424h-5.262ZM42.144 55.217c-.575 0-1.09-.119-1.549-.356a2.64 2.64 0 0 1-1.082-1.032c-.264-.451-.396-.993-.396-1.626v-.19c0-.633.132-1.175.396-1.626a2.64 2.64 0 0 1 1.082-1.032 3.314 3.314 0 0 1 1.549-.356c.574 0 1.09.119 1.548.356a2.64 2.64 0 0 1 1.082 1.032c.264.451.396.993.396 1.626v.19c0 .633-.132 1.175-.396 1.625a2.64 2.64 0 0 1-1.082 1.033 3.314 3.314 0 0 1-1.548.356Zm0-1.33c.45 0 .822-.145 1.117-.438.295-.3.442-.728.442-1.282v-.118c0-.554-.147-.977-.442-1.27-.287-.3-.66-.451-1.117-.451-.45 0-.823.15-1.118.45-.295.294-.442.717-.442 1.27v.12c0 .553.147.98.442 1.28.295.294.667.44 1.117.44ZM45.72 52.132v-.19c0-.617.121-1.143.362-1.578.24-.443.559-.78.954-1.009a2.55 2.55 0 0 1 1.316-.356c.528 0 .927.095 1.199.285.271.19.47.387.593.593h.21v-.712h1.444v6.93c0 .403-.117.724-.35.961-.233.245-.543.368-.93.368h-3.866v-1.305h3.353c.217 0 .326-.119.326-.356v-1.531h-.21a2.026 2.026 0 0 1-.326.392 1.72 1.72 0 0 1-.558.32c-.233.087-.528.13-.885.13-.474 0-.912-.114-1.316-.344a2.63 2.63 0 0 1-.954-1.008c-.24-.443-.361-.973-.361-1.59Zm3.05 1.637c.451 0 .827-.146 1.13-.439.303-.293.454-.704.454-1.234v-.119c0-.538-.151-.949-.454-1.234-.295-.292-.671-.439-1.13-.439-.45 0-.826.147-1.128.44-.303.284-.454.695-.454 1.233v.12c0 .53.151.94.454 1.233.302.293.679.44 1.129.44ZM55.647 55.217c-.574 0-1.09-.119-1.548-.356a2.64 2.64 0 0 1-1.083-1.032c-.264-.451-.395-.993-.395-1.626v-.19c0-.633.131-1.175.395-1.626a2.64 2.64 0 0 1 1.083-1.032 3.315 3.315 0 0 1 1.548-.356c.575 0 1.09.119 1.549.356a2.64 2.64 0 0 1 1.082 1.032c.264.451.396.993.396 1.626v.19c0 .633-.132 1.175-.396 1.625a2.64 2.64 0 0 1-1.082 1.033 3.313 3.313 0 0 1-1.549.356Zm0-1.33c.45 0 .823-.145 1.118-.438.295-.3.442-.728.442-1.282v-.118c0-.554-.147-.977-.442-1.27-.287-.3-.66-.451-1.118-.451-.45 0-.822.15-1.117.45-.295.294-.443.717-.443 1.27v.12c0 .553.148.98.443 1.28.295.294.667.44 1.117.44ZM59.504 55.051v-5.885h1.467v5.886h-1.467Zm.733-6.573a.953.953 0 0 1-.675-.261c-.178-.174-.268-.404-.268-.689 0-.284.09-.514.268-.688a.953.953 0 0 1 .675-.26c.272 0 .497.086.675.26.179.174.268.404.268.688 0 .285-.089.515-.267.689a.928.928 0 0 1-.676.26ZM62.072 57.424v-8.259h1.444v.712h.21c.131-.23.337-.431.617-.605.279-.182.678-.273 1.198-.273.466 0 .897.119 1.292.356.396.23.714.57.955 1.02.24.451.361.997.361 1.638v.19c0 .64-.12 1.186-.361 1.637-.24.451-.559.795-.955 1.033a2.53 2.53 0 0 1-1.292.344 2.62 2.62 0 0 1-.885-.13 1.708 1.708 0 0 1-.57-.31 2.202 2.202 0 0 1-.337-.403h-.21v3.05h-1.467Zm3.027-3.512c.458 0 .834-.147 1.13-.44.302-.3.453-.735.453-1.305v-.118c0-.57-.151-1.001-.454-1.294-.302-.3-.679-.45-1.13-.45-.45 0-.826.15-1.128.45-.303.293-.454.724-.454 1.294v.118c0 .57.151 1.005.454 1.305.302.293.679.44 1.129.44ZM71.37 55.217c-.753 0-1.37-.166-1.851-.499-.48-.332-.772-.807-.873-1.424l1.35-.355c.055.276.144.494.268.652.132.158.291.273.478.344.193.063.403.095.628.095.341 0 .594-.06.757-.178a.569.569 0 0 0 .244-.463.458.458 0 0 0-.233-.415c-.155-.103-.403-.186-.745-.249l-.326-.06a6.08 6.08 0 0 1-1.106-.32 2.07 2.07 0 0 1-.803-.581c-.201-.245-.303-.562-.303-.95 0-.585.21-1.032.63-1.34.418-.317.97-.475 1.652-.475.644 0 1.18.146 1.606.44.427.292.707.675.839 1.15l-1.362.427c-.062-.3-.19-.514-.384-.64-.187-.127-.42-.19-.699-.19-.28 0-.493.051-.64.154a.454.454 0 0 0-.221.403c0 .19.077.332.233.427.155.087.364.155.628.202l.326.06c.435.079.827.185 1.176.32.357.127.636.312.838.558.21.237.315.561.315.973 0 .617-.222 1.095-.664 1.435-.435.333-1.02.499-1.758.499ZM76.753 55.145c-.45 0-.846-.102-1.187-.308a2.178 2.178 0 0 1-.78-.878 2.829 2.829 0 0 1-.28-1.282v-3.512h1.467v3.394c0 .443.105.775.315.997.216.221.523.332.92.332.449 0 .799-.15 1.047-.451.248-.309.372-.736.372-1.282v-2.99h1.467v5.886H78.65v-.772h-.209c-.093.198-.268.392-.524.582-.256.19-.644.285-1.164.285ZM81.203 55.05v-5.885h1.443v.641h.21c.1-.198.267-.368.5-.51.233-.15.54-.226.92-.226.41 0 .74.083.99.25.248.158.438.367.57.628h.209c.132-.253.319-.462.56-.629.24-.166.581-.249 1.023-.249.357 0 .68.08.967.238.294.15.527.383.698.7.178.308.268.7.268 1.174v3.869h-1.467v-3.762c0-.324-.081-.565-.244-.724-.164-.166-.392-.249-.687-.249-.334 0-.594.111-.78.332-.179.214-.268.523-.268.926v3.477h-1.467v-3.762c0-.324-.081-.565-.244-.724-.163-.166-.392-.249-.687-.249-.334 0-.594.111-.78.332-.179.214-.268.523-.268.926v3.477h-1.466Z"/></g><defs><linearGradient id="a" x1="0" y1="-3.685" x2="110.285" y2="5.815" gradientUnits="userSpaceOnUse"><stop offset="0" stop-color="#fff"/><stop offset="1" stop-color="#fff" stop-opacity="0"/></linearGradient><clipPath id="b"><path fill="#fff" transform="translate(11 41)" d="M0 0h79v20H0z"/></clipPath></defs></svg>