<?xml version="1.0" standalone="no"?>
<!DOCTYPE svg PUBLIC "-//W3C//DTD SVG 20010904//EN"
 "http://www.w3.org/TR/2001/REC-SVG-20010904/DTD/svg10.dtd">
<svg version="1.0" xmlns="http://www.w3.org/2000/svg"
 width="1000.000000pt" height="1000.000000pt" viewBox="0 0 1000.000000 1000.000000"
 preserveAspectRatio="xMidYMid meet">
<metadata>
Created by potrace 1.14, written by Peter Selinger 2001-2017
</metadata>
<g transform="translate(0.000000,1000.000000) scale(0.100000,-0.100000)"
fill="#000000" stroke="none">
<path d="M3288 8526 c-7 -10 -25 -36 -40 -57 -16 -21 -28 -41 -28 -44 0 -3
-18 -30 -40 -60 -22 -30 -40 -56 -40 -57 0 -5 -556 -839 -568 -853 -5 -6 -11
-15 -13 -20 -8 -20 -204 -310 -211 -313 -5 -2 -8 -7 -8 -12 0 -7 -115 -182
-166 -255 -20 -28 -135 -200 -159 -239 -11 -17 -116 -175 -232 -350 -117 -175
-213 -322 -213 -327 0 -5 -5 -9 -10 -9 -6 0 -14 -8 -18 -17 -4 -10 -39 -65
-77 -122 -39 -57 -79 -118 -90 -136 -11 -17 -83 -125 -160 -239 -77 -114 -145
-215 -150 -224 -42 -69 -210 -318 -217 -320 -4 -2 -8 -8 -8 -13 0 -6 -52 -86
-115 -179 -63 -94 -115 -174 -115 -180 0 -5 -4 -10 -10 -10 -5 0 -10 -6 -10
-14 0 -8 -3 -16 -7 -18 -11 -5 -53 -66 -53 -77 0 -5 -4 -11 -8 -13 -4 -1 -43
-57 -86 -123 -43 -66 -81 -122 -85 -125 -3 -3 -12 -17 -20 -32 -8 -16 -18 -28
-23 -28 -4 0 -8 -5 -8 -12 0 -6 -11 -26 -25 -44 -14 -18 -25 -36 -25 -39 0 -3
-12 -21 -26 -40 l-25 -33 2109 0 2109 0 64 96 c35 53 67 99 71 100 5 2 8 10 8
18 0 8 4 14 9 14 5 0 11 6 13 13 4 17 280 431 290 435 4 2 8 10 8 18 0 8 5 14
10 14 6 0 10 4 10 9 0 12 321 495 332 499 5 2 8 8 8 12 0 11 61 103 74 112 6
4 7 8 2 8 -5 0 -1 9 8 19 9 10 46 63 81 117 35 55 73 110 84 124 12 14 21 30
21 37 0 6 3 13 8 15 4 2 29 37 57 78 27 41 52 77 55 80 10 9 31 45 36 63 4 9
10 17 15 17 5 0 9 7 9 15 0 8 4 15 8 15 5 0 14 10 21 23 6 12 19 34 29 48 9
14 34 53 56 85 21 32 43 61 47 62 5 2 9 8 9 14 0 12 61 102 72 106 4 2 8 8 8
13 0 11 140 222 154 231 6 4 7 8 2 8 -5 0 -2 8 6 18 9 9 49 67 89 127 40 61
77 113 83 117 6 4 7 8 3 8 -5 0 5 18 22 39 17 21 31 44 31 50 0 6 4 11 9 11 5
0 15 12 22 28 18 35 69 112 92 136 9 11 17 25 17 32 0 7 4 14 8 16 4 2 27 32
50 68 23 36 46 72 52 80 70 101 190 284 190 287 0 3 15 26 34 52 30 40 263
388 291 433 55 88 89 138 96 138 5 0 9 4 9 10 0 9 196 310 219 337 6 7 11 14
11 17 0 3 18 31 40 62 22 32 40 60 40 63 0 3 -947 6 -2105 6 -2043 0 -2105 -1
-2117 -19z"/>
<path d="M6405 6111 c-143 -219 -209 -318 -226 -341 -6 -9 -24 -36 -40 -60
-15 -25 -65 -99 -109 -165 -44 -66 -97 -146 -118 -178 -20 -32 -44 -67 -53
-77 -8 -10 -24 -35 -34 -54 -11 -20 -23 -36 -28 -36 -4 0 -5 -4 -2 -10 3 -5 2
-10 -4 -10 -6 0 -17 -15 -26 -34 -9 -19 -25 -42 -36 -52 -10 -9 -19 -21 -19
-25 0 -4 -15 -29 -32 -54 -18 -26 -38 -54 -43 -63 -16 -27 -49 -76 -58 -87 -4
-5 -69 -102 -144 -215 -74 -113 -142 -213 -151 -222 -8 -10 -11 -18 -6 -18 5
0 4 -4 -1 -8 -6 -4 -33 -41 -60 -82 -27 -41 -63 -92 -78 -112 -16 -21 -26 -38
-22 -38 3 0 -1 -7 -9 -16 -9 -8 -28 -36 -43 -62 -15 -26 -30 -49 -33 -52 -14
-12 -62 -83 -94 -141 -10 -19 -25 -38 -32 -42 -8 -4 -14 -14 -14 -21 0 -7 -11
-26 -25 -42 -14 -16 -25 -34 -25 -40 0 -7 -7 -14 -15 -18 -8 -3 -15 -12 -15
-19 0 -8 -9 -25 -21 -38 -11 -13 -33 -44 -47 -69 -15 -25 -34 -54 -44 -64 -10
-11 -18 -26 -18 -33 0 -7 -5 -13 -10 -13 -6 0 -15 -11 -22 -25 -9 -19 -14 -22
-29 -15 -11 7 -20 7 -24 0 -3 -6 -15 -6 -30 0 -13 5 -26 6 -29 2 -2 -4 -39 -5
-81 -2 -42 3 -78 3 -80 0 -2 -3 -38 -3 -80 0 -42 3 -78 3 -80 0 -2 -3 -38 -3
-80 0 -42 3 -78 3 -80 0 -2 -3 -38 -3 -80 0 -42 3 -79 2 -82 -3 -2 -4 -8 -5
-12 -3 -4 3 -71 5 -147 5 -76 0 -164 1 -194 1 l-55 1 -145 -217 c-80 -119
-147 -221 -149 -227 -2 -6 -15 -23 -28 -36 -12 -14 -23 -29 -23 -33 0 -4 -33
-55 -73 -114 -39 -58 -81 -122 -92 -140 -11 -18 -27 -42 -36 -52 -9 -11 -18
-23 -20 -28 -2 -5 -58 -89 -124 -188 -66 -98 -124 -186 -130 -194 -44 -70
-111 -168 -117 -170 -5 -2 -8 -8 -8 -13 0 -12 -142 -222 -152 -227 -5 -2 -8
-9 -8 -16 0 -7 -8 -21 -17 -32 -10 -11 -24 -31 -32 -45 -8 -13 -21 -34 -29
-47 -8 -12 -10 -22 -6 -23 42 -2 4406 0 4408 2 36 50 106 161 106 168 0 5 4
11 8 13 4 2 84 118 177 258 93 140 172 257 177 258 4 2 8 8 8 14 0 5 11 24 25
42 14 18 25 38 25 44 0 6 3 12 8 14 8 3 92 126 92 134 0 3 6 12 13 19 28 32
37 45 37 53 0 4 9 18 20 30 11 12 19 23 18 24 -4 4 65 103 74 106 4 2 8 8 8
13 0 8 137 218 149 229 3 3 12 17 20 33 8 15 18 27 23 27 5 0 6 5 3 10 -3 6
-2 10 4 10 5 0 13 9 16 20 3 11 12 26 18 33 21 22 77 107 77 116 0 5 3 11 8
13 7 3 463 684 471 703 2 6 7 12 10 15 3 3 58 84 121 180 63 96 119 179 123
185 5 5 52 77 106 158 53 81 103 156 109 165 35 50 151 223 154 230 5 12 162
247 168 252 4 3 15 21 26 40 10 19 22 37 25 40 11 9 119 173 119 181 0 4 3 9
8 11 8 3 52 64 52 73 0 3 23 36 50 75 28 39 50 73 50 76 0 3 14 23 30 44 17
21 30 41 30 45 0 4 12 24 28 44 31 41 49 69 59 91 4 8 10 17 13 20 4 3 24 31
44 62 19 31 40 60 46 63 6 4 8 11 5 16 -4 5 -1 9 5 9 6 0 13 8 17 18 3 9 23
40 44 69 22 29 39 55 39 59 0 4 7 16 17 26 16 17 -36 18 -1618 17 l-1634 0
-130 -198z"/>
</g>
</svg>
