<svg width="20" height="20" fill="none" xmlns="http://www.w3.org/2000/svg"><path fill-rule="evenodd" clip-rule="evenodd" d="M10.208 1.666c3.79 0 6.875 3.108 6.875 6.928 0 4.695-5.38 9.322-6.875 9.322s-6.875-4.627-6.875-9.322c0-3.82 3.084-6.928 6.875-6.928Zm0 1.25c-3.102 0-5.625 2.548-5.625 5.678 0 3.982 4.687 7.862 5.625 8.069.938-.208 5.625-4.088 5.625-8.07 0-3.13-2.523-5.677-5.625-5.677Zm0 2.917a2.712 2.712 0 0 1 2.71 2.709 2.71 2.71 0 0 1-2.71 2.707A2.71 2.71 0 0 1 7.5 8.542a2.712 2.712 0 0 1 2.709-2.71Zm0 1.25a1.46 1.46 0 1 0 1.458 1.46 1.46 1.46 0 0 0-1.457-1.46Z" fill="#B0B0B2"/></svg>