<svg width="46" height="46" fill="none" xmlns="http://www.w3.org/2000/svg"><circle cx="23" cy="23" r="22.5" fill="#18181B" stroke="url(#a)"/><path fill-rule="evenodd" clip-rule="evenodd" d="M24.001 11.871a10.62 10.62 0 0 0-10.646 10.646c0 4.701 3.061 8.694 7.275 10.113.532.089.71-.222.71-.532v-1.819c-2.972.665-3.593-1.42-3.593-1.42-.488-1.241-1.198-1.552-1.198-1.552-.976-.665.089-.665.089-.665 1.064.088 1.641 1.109 1.641 1.109.931 1.64 2.484 1.153 3.105.887.089-.71.355-1.153.665-1.42-2.35-.266-4.834-1.197-4.834-5.278 0-1.153.399-2.13 1.108-2.839-.088-.266-.488-1.33.09-2.839 0 0 .886-.266 2.927 1.11A10.689 10.689 0 0 1 24 17.015c.887 0 1.819.134 2.661.355 2.04-1.375 2.928-1.109 2.928-1.109.576 1.464.222 2.529.089 2.84.665.753 1.109 1.685 1.109 2.838 0 4.08-2.484 4.968-4.88 5.234.4.31.71.976.71 1.952v2.927c0 .266.178.621.754.533a10.593 10.593 0 0 0 7.275-10.07A10.62 10.62 0 0 0 24 11.872Z" fill="#fff"/><defs><linearGradient id="a" x1="0" y1="23" x2="46" y2="23" gradientUnits="userSpaceOnUse"><stop offset="0" stop-color="#0CBAF1"/><stop offset="1" stop-color="#E95CE9"/></linearGradient></defs></svg>