<svg xmlns="http://www.w3.org/2000/svg" xmlns:xlink="http://www.w3.org/1999/xlink"><symbol id="calling" viewBox="0 0 20 20"><g fill="none">
<path fill-rule="evenodd" clip-rule="evenodd" d="M5.5479 1.66647C6.47874 1.67897 7.14207 2.37647 7.98124 3.25897C8.18874 3.47647 8.4129 3.71397 8.66374 3.96397C9.87957 5.18063 9.53374 6.17313 9.25457 6.9698C8.95124 7.83897 8.68874 8.58897 10.2604 10.1606C11.8321 11.7323 12.5812 11.4698 13.4496 11.164C14.2471 10.8856 15.2371 10.5373 16.4554 11.754C16.7029 12.0015 16.9362 12.2231 17.1529 12.429C18.0387 13.2723 18.7387 13.9381 18.7505 14.8715C18.7596 15.6665 18.2762 16.4781 17.0829 17.6715L16.5546 17.3131L17.0021 17.749C16.7379 18.0198 16.0354 18.7415 14.6596 18.7498H14.6346C12.5579 18.7498 9.8504 17.0965 6.58707 13.834C3.3104 10.5581 1.65457 7.8423 1.667 5.76147C1.67457 4.38647 2.3954 3.6823 2.66624 3.41813L2.68935 3.39289L2.7454 3.33647C3.94124 2.14063 4.7629 1.64897 5.5479 1.66647ZM5.53207 2.91647H5.5254C5.15119 2.91647 4.58288 3.29147 3.79026 4.06138L3.6311 4.21768L3.6329 4.2173C3.6329 4.2173 3.6193 4.2329 3.59612 4.25654L3.5404 4.3123C3.33874 4.50813 2.92124 4.91563 2.91703 5.76813C2.9104 6.96063 3.69457 9.1748 7.4704 12.9498C11.2279 16.7065 13.4387 17.4998 14.6346 17.4998H14.6521C15.5046 17.4948 15.9112 17.0773 16.1071 16.8765C16.1662 16.8156 16.2146 16.7698 16.2487 16.7423C17.0796 15.9065 17.5046 15.2856 17.5004 14.8865C17.4954 14.4798 16.9896 13.9998 16.2904 13.334C16.0679 13.1231 15.8262 12.8923 15.5712 12.6373C14.9096 11.9781 14.5837 12.0906 13.8629 12.344C12.8671 12.6931 11.5029 13.1715 9.37707 11.044C7.2504 8.91813 7.72707 7.55397 8.07457 6.5573C8.32624 5.8373 8.44124 5.5098 7.7804 4.84813C7.52207 4.5898 7.28957 4.3448 7.0754 4.1198C6.41374 3.4248 5.93624 2.9223 5.53207 2.91647ZM12.7055 4.63105C14.4397 4.96772 15.7788 6.30605 16.1163 8.04105C16.1822 8.38105 15.9613 8.70855 15.623 8.77438C15.5822 8.78188 15.5422 8.78605 15.5022 8.78605C15.2088 8.78605 14.948 8.57938 14.8897 8.28105C14.6497 7.04772 13.6988 6.09688 12.4672 5.85772C12.128 5.79188 11.9072 5.46438 11.973 5.12522C12.0388 4.78605 12.3722 4.56438 12.7055 4.63105ZM12.6556 1.67122C16.0539 2.04872 18.6931 4.68455 19.0739 8.08205C19.1122 8.42538 18.8656 8.73455 18.5231 8.77288C18.4997 8.77538 18.4756 8.77705 18.4522 8.77705C18.1381 8.77705 17.8681 8.54122 17.8322 8.22205C17.5164 5.40872 15.3314 3.22538 12.5172 2.91288C12.1747 2.87455 11.9272 2.56622 11.9656 2.22288C12.0031 1.88038 12.3089 1.62788 12.6556 1.67122Z" fill="#B0B0B2"/>
</g></symbol><symbol id="letter" viewBox="0 0 24 24"><g fill="none">
<path fill-rule="evenodd" clip-rule="evenodd" d="M16.6589 2C19.9889 2 22.4999 4.717 22.4999 8.32V15.188C22.4999 17.032 21.8479 18.698 20.6629 19.88C19.5999 20.939 18.2209 21.5 16.6749 21.5H6.82188C5.27888 21.5 3.90088 20.94 2.83688 19.88C1.65188 18.698 0.999878 17.032 0.999878 15.188V8.32C0.999878 4.717 3.51088 2 6.84088 2H16.6589ZM16.6589 3.5H6.84088C4.32588 3.5 2.49988 5.527 2.49988 8.32V15.188C2.49988 16.631 2.99588 17.92 3.89588 18.817C4.67188 19.592 5.68488 20 6.82488 20H16.6589C16.6609 19.998 16.6689 20 16.6749 20C17.8159 20 18.8279 19.592 19.6039 18.817C20.5049 17.92 20.9999 16.631 20.9999 15.188V8.32C20.9999 5.527 19.1739 3.5 16.6589 3.5ZM18.2349 8.1288C18.4959 8.4498 18.4469 8.9218 18.1259 9.1838L13.6819 12.7958C13.1199 13.2418 12.4479 13.4648 11.7769 13.4648C11.1079 13.4648 10.4409 13.2438 9.88288 12.8018L5.39788 9.1858C5.07488 8.9258 5.02488 8.4528 5.28388 8.1308C5.54488 7.8098 6.01688 7.7588 6.33888 8.0178L10.8199 11.6298C11.3829 12.0758 12.1759 12.0758 12.7429 11.6258L17.1789 8.0198C17.5009 7.7568 17.9729 7.8068 18.2349 8.1288Z" fill="white"/>
</g></symbol><symbol id="location" viewBox="0 0 20 20"><g fill="none">
<path fill-rule="evenodd" clip-rule="evenodd" d="M10.2079 1.66602C13.9988 1.66602 17.0829 4.77352 17.0829 8.59352C17.0829 13.2893 11.7029 17.916 10.2079 17.916C8.71295 17.916 3.33295 13.2893 3.33295 8.59352C3.33295 4.77352 6.41711 1.66602 10.2079 1.66602ZM10.2079 2.91602C7.10628 2.91602 4.58295 5.46352 4.58295 8.59352C4.58295 12.576 9.26961 16.456 10.2079 16.6627C11.1463 16.4552 15.8329 12.5752 15.8329 8.59352C15.8329 5.46352 13.3096 2.91602 10.2079 2.91602ZM10.2088 5.83268C11.7021 5.83268 12.9171 7.04768 12.9171 8.54185C12.9171 10.0352 11.7021 11.2493 10.2088 11.2493C8.71545 11.2493 7.50045 10.0352 7.50045 8.54185C7.50045 7.04768 8.71545 5.83268 10.2088 5.83268ZM10.2088 7.08268C9.40461 7.08268 8.75045 7.73685 8.75045 8.54185C8.75045 9.34602 9.40461 9.99935 10.2088 9.99935C11.0129 9.99935 11.6671 9.34602 11.6671 8.54185C11.6671 7.73685 11.0129 7.08268 10.2088 7.08268Z" fill="#B0B0B2"/>
</g></symbol><symbol id="mask-group" viewBox="0 0 707 556"><g fill="none">
<circle cx="353.373" cy="329.528" r="226.472" fill="#333751"/>
<circle cx="353.373" cy="329.528" r="225.89" stroke="white" stroke-opacity="0.17" stroke-width="1.16352"/>
<rect width="707" height="391" fill="#D9D9D9"/>
</g></symbol><symbol id="message" viewBox="0 0 20 20"><g fill="none">
<path fill-rule="evenodd" clip-rule="evenodd" d="M13.8824 1.66602C16.6574 1.66602 18.7499 3.93018 18.7499 6.93268V12.656C18.7499 14.1927 18.2066 15.581 17.2191 16.566C16.3333 17.4485 15.1841 17.916 13.8958 17.916H5.68492C4.39909 17.916 3.25075 17.4493 2.36409 16.566C1.37659 15.581 0.833252 14.1927 0.833252 12.656V6.93268C0.833252 3.93018 2.92575 1.66602 5.70075 1.66602H13.8824ZM13.8824 2.91602H5.70075C3.60492 2.91602 2.08325 4.60518 2.08325 6.93268V12.656C2.08325 13.8585 2.49659 14.9327 3.24659 15.6802C3.89325 16.326 4.73742 16.666 5.68742 16.666H13.8824C13.8841 16.6643 13.8908 16.666 13.8958 16.666C14.8466 16.666 15.6899 16.326 16.3366 15.6802C17.0874 14.9327 17.4999 13.8585 17.4999 12.656V6.93268C17.4999 4.60518 15.9783 2.91602 13.8824 2.91602ZM15.1958 6.77335C15.4133 7.04085 15.3724 7.43418 15.1049 7.65252L11.4016 10.6625C10.9333 11.0342 10.3733 11.22 9.81409 11.22C9.25659 11.22 8.70075 11.0358 8.23575 10.6675L4.49825 7.65418C4.22909 7.43752 4.18742 7.04335 4.40325 6.77502C4.62075 6.50752 5.01409 6.46502 5.28242 6.68085L9.01658 9.69085C9.48575 10.0625 10.1466 10.0625 10.6191 9.68752L14.3158 6.68252C14.5841 6.46335 14.9774 6.50502 15.1958 6.77335Z" fill="#B0B0B2"/>
</g></symbol><symbol id="plane" viewBox="0 0 17 17"><g fill="none">
<path d="M14.4569 2.38799C14.1234 2.04573 13.6299 1.91822 13.1697 2.05244L2.43867 5.17302C1.95313 5.3079 1.60899 5.69512 1.51629 6.18703C1.42158 6.68767 1.75239 7.32319 2.18456 7.58894L5.53994 9.65121C5.88408 9.8626 6.32826 9.80958 6.61304 9.52236L10.4553 5.6562C10.6487 5.45487 10.9688 5.45487 11.1622 5.6562C11.3556 5.85082 11.3556 6.16623 11.1622 6.36756L7.31333 10.2344C7.02788 10.5209 6.97452 10.9672 7.18461 11.3135L9.23478 14.7025C9.47488 15.1052 9.88838 15.3333 10.3419 15.3333C10.3953 15.3333 10.4553 15.3333 10.5086 15.3266C11.0288 15.2595 11.4424 14.9038 11.5957 14.4005L14.7771 3.68319C14.9171 3.22685 14.7904 2.73024 14.4569 2.38799Z" fill="white"/>
</g></symbol></svg>