<svg width="23" height="23" fill="none" xmlns="http://www.w3.org/2000/svg"><path d="M11.873 2.005c2.972 0 3.324.011 4.497.065a6.174 6.174 0 0 1 2.067.383 3.685 3.685 0 0 1 2.113 2.113c.244.662.374 1.36.383 2.066.053 1.174.064 1.526.064 4.498 0 2.971-.01 3.323-.064 4.497a6.174 6.174 0 0 1-.383 2.067 3.687 3.687 0 0 1-2.113 2.112 6.174 6.174 0 0 1-2.067.383c-1.173.053-1.525.065-4.497.065s-3.324-.011-4.497-.065a6.174 6.174 0 0 1-2.067-.383 3.687 3.687 0 0 1-2.112-2.112 6.174 6.174 0 0 1-.383-2.067c-.053-1.174-.065-1.526-.065-4.497 0-2.972.011-3.324.065-4.498a6.174 6.174 0 0 1 .383-2.066 3.685 3.685 0 0 1 2.112-2.113 6.174 6.174 0 0 1 2.067-.383c1.174-.053 1.526-.065 4.497-.065Zm0-2.005c-3.02 0-3.401.013-4.588.067a8.17 8.17 0 0 0-2.703.517 5.452 5.452 0 0 0-1.97 1.284A5.452 5.452 0 0 0 1.327 3.84 8.17 8.17 0 0 0 .81 6.542C.757 7.728.744 8.108.744 11.129c0 3.02.013 3.401.067 4.588a8.17 8.17 0 0 0 .517 2.703c.28.743.718 1.415 1.284 1.971a5.45 5.45 0 0 0 1.971 1.284c.865.324 1.78.499 2.703.517 1.187.053 1.566.067 4.588.067 3.023 0 3.401-.013 4.589-.067a8.168 8.168 0 0 0 2.702-.517 5.696 5.696 0 0 0 3.254-3.256c.324-.865.5-1.779.517-2.703.053-1.186.066-1.566.066-4.587 0-3.02-.012-3.401-.067-4.588a8.168 8.168 0 0 0-.517-2.703 5.451 5.451 0 0 0-1.284-1.971 5.452 5.452 0 0 0-1.97-1.284A8.17 8.17 0 0 0 16.46.066C15.274.013 14.894 0 11.873 0Z" fill="#fff"/><path d="M11.877 5.414a5.715 5.715 0 1 0 0 11.43 5.715 5.715 0 0 0 0-11.43Zm0 9.425a3.71 3.71 0 1 1 0-7.42 3.71 3.71 0 0 1 0 7.42ZM17.814 6.524a1.335 1.335 0 1 0 0-2.671 1.335 1.335 0 0 0 0 2.67Z" fill="#fff"/></svg>