<svg width="102" height="102" fill="none" xmlns="http://www.w3.org/2000/svg"><circle cx="51" cy="51" r="51" fill="#252532" fill-opacity=".8"/><circle cx="51" cy="51" r="50.5" stroke="url(#a)" stroke-opacity=".3"/><g clip-path="url(#b)" fill="#D1D1D1"><path d="M36.668 54.505h5.092v-1.534h-3.282v-5.777h-1.81v7.311ZM44.777 53.483c-.726 0-1.104-.634-1.104-1.585s.378-1.595 1.104-1.595c.726 0 1.114.644 1.114 1.595 0 .95-.388 1.585-1.114 1.585Zm.01 1.186c1.687 0 2.792-1.197 2.792-2.771 0-1.575-1.105-2.771-2.792-2.771-1.677 0-2.801 1.196-2.801 2.77 0 1.575 1.124 2.772 2.801 2.772ZM50.499 56.316c.777 0 1.462-.174 1.922-.583.42-.379.695-.951.695-1.739v-4.723h-1.595v.562h-.02c-.307-.44-.777-.716-1.472-.716-1.299 0-2.199 1.084-2.199 2.618 0 1.605 1.094 2.484 2.27 2.484a1.67 1.67 0 0 0 1.34-.603h.04v.522c0 .634-.296 1.002-1.002 1.002-.552 0-.828-.236-.92-.512h-1.615c.163 1.094 1.114 1.688 2.556 1.688Zm-.01-3.334c-.624 0-1.033-.511-1.033-1.298 0-.798.409-1.31 1.033-1.31.695 0 1.063.594 1.063 1.3 0 .736-.337 1.308-1.063 1.308ZM56.396 53.483c-.726 0-1.104-.634-1.104-1.585s.378-1.595 1.104-1.595c.726 0 1.115.644 1.115 1.595 0 .95-.389 1.585-1.115 1.585Zm.01 1.186c1.687 0 2.792-1.197 2.792-2.771 0-1.575-1.105-2.771-2.792-2.771-1.676 0-2.801 1.196-2.801 2.77 0 1.575 1.125 2.772 2.801 2.772ZM59.684 54.505h1.667V49.27h-1.667v5.235Zm0-5.961h1.667v-1.35h-1.667v1.35ZM62.074 56.234h1.667v-2.27h.02c.328.44.808.705 1.483.705 1.37 0 2.28-1.084 2.28-2.78 0-1.576-.849-2.772-2.24-2.772-.715 0-1.226.317-1.584.788h-.03v-.634h-1.596v6.963Zm2.74-2.853c-.715 0-1.124-.583-1.124-1.431 0-.85.368-1.493 1.094-1.493.716 0 1.053.593 1.053 1.492 0 .89-.389 1.432-1.022 1.432ZM70.238 54.67c1.37 0 2.382-.594 2.382-1.739 0-1.34-1.084-1.575-2.004-1.728-.665-.123-1.258-.174-1.258-.542 0-.327.317-.48.726-.48.46 0 .777.143.839.613h1.533c-.081-1.033-.879-1.677-2.362-1.677-1.237 0-2.26.573-2.26 1.677 0 1.227.972 1.472 1.882 1.626.696.122 1.33.174 1.33.644 0 .337-.318.521-.819.521-.552 0-.9-.255-.96-.777h-1.575c.05 1.156 1.012 1.861 2.546 1.861ZM74.884 54.659c.726 0 1.186-.286 1.564-.797h.031v.644h1.595V49.27h-1.667v2.925c0 .623-.347 1.053-.92 1.053-.531 0-.787-.317-.787-.89v-3.087h-1.657v3.435c0 1.166.634 1.953 1.84 1.953ZM78.799 54.506h1.666V51.57c0-.624.307-1.063.829-1.063.5 0 .736.327.736.89v3.108h1.666V51.57c0-.624.297-1.063.829-1.063.5 0 .736.327.736.89v3.108h1.667V51.1c0-1.176-.593-1.984-1.78-1.984-.674 0-1.237.287-1.646.92h-.02c-.266-.562-.787-.92-1.473-.92-.756 0-1.257.358-1.584.9h-.031v-.746h-1.595v5.235Z"/><path fill-rule="evenodd" clip-rule="evenodd" d="M23.812 42.41a8.687 8.687 0 1 1 0 17.375 8.687 8.687 0 0 1 0-17.375Zm8.354 8.688a8.354 8.354 0 0 0-9.452-8.283 7.983 7.983 0 1 1-7.248 8.649 8.354 8.354 0 0 0 16.7-.366Zm-1.098-.33a7.65 7.65 0 0 0-8.661-7.584 7.278 7.278 0 1 1-6.63 7.902 7.65 7.65 0 0 0 15.29-.319Zm-8.043-7.276a6.944 6.944 0 1 1-6.94 7.21 6.573 6.573 0 1 0 5.99-7.146c.31-.042.628-.064.95-.064Zm5.846 6.614a6.24 6.24 0 0 0-7.097-6.181 5.868 5.868 0 1 1-5.377 6.414 6.24 6.24 0 0 0 12.474-.233Zm-6.633-5.866a5.534 5.534 0 1 1-5.532 5.715 5.164 5.164 0 1 0 4.75-5.66c.255-.036.516-.055.782-.055Zm4.436 5.204a4.83 4.83 0 0 0-5.546-4.777 4.458 4.458 0 1 1-4.111 4.905 4.83 4.83 0 0 0 9.657-.128Zm-5.223-4.455a4.124 4.124 0 1 1-4.123 4.211 3.754 3.754 0 1 0 3.494-4.164c.205-.03.415-.047.63-.047Zm3.026 3.793a3.42 3.42 0 0 0-3.976-3.374 3.048 3.048 0 1 1-2.862 3.419 3.42 3.42 0 0 0 6.838-.045Zm-3.813-3.045a2.715 2.715 0 1 1-2.715 2.715v-.01a2.344 2.344 0 1 0 2.234-2.663c.156-.028.317-.042.48-.042Zm1.616 2.384a2.01 2.01 0 1 0-4.02 0 2.01 2.01 0 0 0 4.02 0Z"/></g><defs><linearGradient id="a" x1="0" y1="-3.685" x2="110.285" y2="5.815" gradientUnits="userSpaceOnUse"><stop offset="0" stop-color="#fff"/><stop offset="1" stop-color="#fff" stop-opacity="0"/></linearGradient><clipPath id="b"><path fill="#fff" transform="translate(15 42)" d="M0 0h72v17.893H0z"/></clipPath></defs></svg>