<svg width="102" height="102" fill="none" xmlns="http://www.w3.org/2000/svg"><circle cx="51" cy="51" r="51" fill="#252532" fill-opacity=".8"/><circle cx="51" cy="51" r="50.5" stroke="url(#a)" stroke-opacity=".3"/><path d="M23.302 45.573v-2.284h-7.2v15.69h7.2v-2.284a5.561 5.561 0 1 1 0-11.122ZM23.302 45.573v11.123a5.561 5.561 0 1 0 0-11.123ZM32.903 46.97h1.612v7.764h-1.612V46.97ZM35.418 52.075a2.82 2.82 0 1 1 2.805 2.82 2.782 2.782 0 0 1-2.805-2.82Zm4.04 0a1.224 1.224 0 0 0-2.102-.823 1.224 1.224 0 0 0 .877 2.08 1.191 1.191 0 0 0 1.215-1.257h.01Z" fill="#D1D1D1"/><path d="M47.405 49.415v5.056c0 1.784-1.397 2.542-2.81 2.542a2.688 2.688 0 0 1-2.52-1.29l1.36-.784a1.219 1.219 0 0 0 1.214.672 1.076 1.076 0 0 0 1.204-1.14v-.489a1.896 1.896 0 0 1-1.553.688 2.686 2.686 0 0 1 0-5.373 1.897 1.897 0 0 1 1.553.688v-.538l1.552-.032Zm-1.552 2.553a1.29 1.29 0 1 0-1.29 1.235 1.205 1.205 0 0 0 1.29-1.236ZM48.313 52.075a2.821 2.821 0 1 1 2.816 2.82 2.788 2.788 0 0 1-2.816-2.82Zm4.041 0a1.225 1.225 0 1 0-1.22 1.257 1.191 1.191 0 0 0 1.215-1.257h.005ZM54.691 47.99a.957.957 0 1 1 .957.957.967.967 0 0 1-.957-.956Zm.156 1.424h1.612v5.32h-1.612v-5.32ZM63.358 52.074a2.686 2.686 0 0 1-2.563 2.821 1.998 1.998 0 0 1-1.612-.65v2.628h-1.612v-7.458h1.612v.5a1.992 1.992 0 0 1 1.612-.645 2.688 2.688 0 0 1 2.563 2.804Zm-1.612 0a1.269 1.269 0 1 0-1.262 1.3 1.213 1.213 0 0 0 1.262-1.3ZM68.264 53.139c0 1.225-1.075 1.746-2.214 1.746a2.332 2.332 0 0 1-2.289-1.268l1.386-.785a.87.87 0 0 0 .898.629c.381 0 .575-.118.575-.333 0-.586-2.617-.274-2.617-2.117 0-1.16.978-1.741 2.085-1.741a2.332 2.332 0 0 1 2.106 1.134l-1.386.73a.785.785 0 0 0-.715-.467c-.28 0-.446.107-.446.295 0 .613 2.617.21 2.617 2.177ZM74.105 49.415v5.32h-1.612v-.5a1.834 1.834 0 0 1-1.516.66c-1.074 0-1.993-.768-1.993-2.202v-3.278h1.612v3.036a.875.875 0 0 0 .241.698.884.884 0 0 0 .688.269c.58 0 .989-.344.989-1.075v-2.928h1.59ZM83.239 51.468v3.267h-1.612v-3.128c0-.537-.253-.87-.763-.87s-.833.37-.833 1v2.998H78.42v-3.128c0-.537-.252-.87-.763-.87-.51 0-.833.37-.833 1v2.998h-1.612v-5.32h1.612v.49a1.644 1.644 0 0 1 1.43-.635 1.574 1.574 0 0 1 1.391.699 1.754 1.754 0 0 1 1.542-.699c1.258 0 2.053.87 2.053 2.198ZM84.593 49.383a1.182 1.182 0 1 0 0-2.364 1.182 1.182 0 0 0 0 2.364Z" fill="#D1D1D1"/><defs><linearGradient id="a" x1="0" y1="-3.685" x2="110.285" y2="5.815" gradientUnits="userSpaceOnUse"><stop offset="0" stop-color="#fff"/><stop offset="1" stop-color="#fff" stop-opacity="0"/></linearGradient></defs></svg>