<svg width="102" height="102" fill="none" xmlns="http://www.w3.org/2000/svg"><circle cx="51" cy="51" r="51" fill="#252532" fill-opacity=".8"/><circle cx="51" cy="51" r="50.5" stroke="url(#a)" stroke-opacity=".3"/><path d="M31.647 47.682c.197 0 .262.07.262.261v4.32h2.22c.191 0 .262.071.262.262v.382c0 .191-.071.262-.262.262h-2.924c-.19 0-.267-.071-.267-.262v-4.963c0-.192.077-.262.267-.262h.442ZM36.327 49.586c0-1.26.797-2.019 2.182-2.019 1.386 0 2.182.759 2.182 2.019v1.68c0 1.26-.802 2.018-2.182 2.018s-2.182-.758-2.182-2.018v-1.68Zm3.448 0c0-.71-.442-1.091-1.239-1.091-.796 0-1.232.387-1.232 1.09v1.691c0 .715.436 1.091 1.232 1.091.797 0 1.239-.392 1.239-1.09v-1.691ZM47.187 50.164c.213 0 .262.071.262.262v1.036a1.635 1.635 0 0 1-.578 1.287 2.378 2.378 0 0 1-1.636.513c-1.413 0-2.182-.758-2.182-2.018v-1.69c0-1.245.796-2.008 2.182-2.008 1.09 0 1.8.43 2.1 1.293a.233.233 0 0 1-.066.294.234.234 0 0 1-.098.044l-.425.147c-.186.066-.262.027-.328-.164a1.124 1.124 0 0 0-1.183-.709c-.802 0-1.239.388-1.239 1.091v1.735c0 .714.442 1.09 1.239 1.09.796 0 1.287-.365 1.287-.9v-.403h-1.184c-.196 0-.267-.076-.267-.267v-.371c0-.191.07-.262.267-.262h1.85ZM49.702 49.586c0-1.26.796-2.019 2.182-2.019 1.385 0 2.181.759 2.181 2.019v1.68c0 1.26-.801 2.018-2.181 2.018s-2.182-.758-2.182-2.018v-1.68Zm3.442 0c0-.71-.442-1.091-1.233-1.091-.791 0-1.238.387-1.238 1.09v1.691c0 .715.442 1.091 1.238 1.091s1.233-.392 1.233-1.09v-1.691ZM56.635 47.84c0-.12.038-.158.158-.158h.25c.12 0 .148.038.148.158v5.17c0 .12 0 .159-.147.159h-.251c-.12 0-.158-.038-.158-.158V47.84ZM62.16 47.682a1.713 1.713 0 0 1 0 3.425h-1.636v1.904c0 .12-.028.158-.142.158h-.256c-.115 0-.159-.038-.159-.158V47.84c0-.12.044-.158.159-.158h2.034Zm-.05 2.885a1.19 1.19 0 0 0 .456-2.288 1.19 1.19 0 0 0-.455-.09h-1.636v2.378h1.636ZM68.133 47.572a1.97 1.97 0 0 1 2.029 1.19c.043.087 0 .158-.088.201l-.24.11c-.098.038-.136.032-.196-.072a1.484 1.484 0 0 0-1.505-.894c-.922 0-1.424.365-1.424 1.02a.829.829 0 0 0 .693.84c.293.096.597.154.905.175.373.02.74.095 1.091.223a1.227 1.227 0 0 1 .851 1.293c0 1.02-.742 1.636-2.105 1.636a1.969 1.969 0 0 1-2.09-1.325.147.147 0 0 1 .093-.208l.24-.087a.148.148 0 0 1 .167.04.146.146 0 0 1 .03.053 1.56 1.56 0 0 0 1.56.982c1.03 0 1.538-.36 1.538-1.091a.811.811 0 0 0-.638-.835 3.823 3.823 0 0 0-.868-.152l-.589-.077a5.189 5.189 0 0 1-.545-.147 1.434 1.434 0 0 1-.486-.256 1.33 1.33 0 0 1-.436-1.042c.038-.955.753-1.577 2.013-1.577ZM73.19 51.303a1.515 1.515 0 0 0 2.552 1.014c.282-.266.45-.628.474-1.014V47.84c0-.12.038-.158.159-.158h.25c.12 0 .159.038.159.158v3.458c0 1.238-.731 1.985-2.079 1.985-1.347 0-2.078-.747-2.078-1.985V47.84c0-.12.038-.158.153-.158h.256c.115 0 .153.038.153.158v3.463ZM84.31 47.682c.12 0 .16.038.16.158v5.17c0 .12-.04.159-.16.159h-.228c-.115 0-.153-.038-.153-.158v-3.148c0-.457.031-.915.093-1.369h-.033c-.17.415-.37.818-.594 1.206l-1.173 2.067a.189.189 0 0 1-.18.12h-.153a.202.202 0 0 1-.185-.12l-1.19-2.089a8.806 8.806 0 0 1-.545-1.19h-.033c.056.459.085.92.088 1.38v3.143c0 .12-.038.158-.159.158h-.212c-.12 0-.158-.038-.158-.158V47.84c0-.12.038-.158.158-.158h.196a.217.217 0 0 1 .218.125l1.91 3.393 1.898-3.36c.06-.115.092-.131.212-.131l.224-.027ZM21.944 52.34v3.944a.57.57 0 1 1-1.14 0v-3.938c.158.116.349.18.545.185a.939.939 0 0 0 .595-.19Zm4.854-1.14a.545.545 0 0 0-.545.546v.687a.57.57 0 1 0 1.14 0v-.66a.544.544 0 0 0-.595-.573Zm-7.232 2.635a.982.982 0 0 1-.546-.186v3.955a.572.572 0 1 0 1.146 0v-3.927a.998.998 0 0 1-.6.158Zm5.454-3.818a.544.544 0 0 0-.573.545V53.6a.573.573 0 1 0 1.146 0v-3a.545.545 0 0 0-.6-.572l.027-.011Zm-1.81 1.167a.998.998 0 0 1-.574-.185v3.965a.573.573 0 1 0 1.146 0v-3.96a.965.965 0 0 1-.6.19l.027-.01Zm-4.883 3.038V43.144a.513.513 0 0 0-.512-.507h-.12a.513.513 0 0 0-.513.507v11.078a.512.512 0 0 0 .513.513h.12a.512.512 0 0 0 .512-.513Zm1.298-.807h-.12a.513.513 0 0 1-.512-.513v-8.438a.513.513 0 0 1 .513-.507h.12a.513.513 0 0 1 .512.507v8.45a.512.512 0 0 1-.513.512v-.011Zm1.806-1.298h-.126a.507.507 0 0 1-.507-.508v-5.836a.509.509 0 0 1 .508-.513h.125a.512.512 0 0 1 .507.513v5.836a.507.507 0 0 1-.507.508Zm1.805-1.337h-.114a.513.513 0 0 1-.513-.507v-3.142a.513.513 0 0 1 .513-.545h.12a.513.513 0 0 1 .513.513v3.163a.512.512 0 0 1-.513.518h-.006Zm1.811-1.172h-.12a.513.513 0 0 1-.512-.513v-.813a.512.512 0 0 1 .512-.507h.12a.512.512 0 0 1 .513.507v.813a.513.513 0 0 1-.507.513h-.006Z" fill="#D1D1D1"/><defs><linearGradient id="a" x1="0" y1="-3.685" x2="110.285" y2="5.815" gradientUnits="userSpaceOnUse"><stop offset="0" stop-color="#fff"/><stop offset="1" stop-color="#fff" stop-opacity="0"/></linearGradient></defs></svg>