<svg width="102" height="102" fill="none" xmlns="http://www.w3.org/2000/svg"><circle cx="51" cy="51" r="51" fill="#252532" fill-opacity=".8"/><circle cx="51" cy="51" r="50.5" stroke="url(#a)" stroke-opacity=".3"/><path d="M36.408 47.847h1.742v7.043h-1.742v-7.043Zm2.433 4.384c0-1.742 1.069-2.781 2.718-2.781s2.717 1.039 2.717 2.78c0 1.743-1.045 2.788-2.717 2.788-1.672 0-2.718-1.016-2.718-2.787Zm3.687 0c0-.958-.377-1.521-.97-1.521-.591 0-.963.58-.963 1.52 0 .942.366 1.51.964 1.51s.97-.534.97-1.503v-.006Zm2.404 3.002h1.672a.9.9 0 0 0 .941.522c.662 0 1.01-.36 1.01-.882v-.976h-.034a1.65 1.65 0 0 1-1.586.953c-1.271 0-2.113-.97-2.113-2.636 0-1.667.801-2.718 2.137-2.718a1.667 1.667 0 0 1 1.602 1.022v-.97h1.742v5.284c0 1.272-1.12 2.062-2.775 2.062-1.539 0-2.497-.691-2.596-1.655v-.006Zm3.63-3.008c0-.848-.39-1.382-1.005-1.382-.616 0-.993.529-.993 1.382 0 .854.371 1.336.993 1.336.621 0 1.004-.47 1.004-1.33v-.006Zm2.397 0c0-1.742 1.069-2.781 2.718-2.781s2.723 1.04 2.723 2.781c0 1.742-1.045 2.787-2.723 2.787s-2.718-1.01-2.718-2.781v-.006Zm3.688 0c0-.958-.378-1.521-.97-1.521-.593 0-.935.586-.935 1.533 0 .946.366 1.51.958 1.51s.947-.54.947-1.51v-.012Zm2.415-3.943a.888.888 0 1 1 .906.866.847.847 0 0 1-.906-.854v-.011Zm0 1.278h1.742v5.33h-1.742v-5.33Zm8.065 2.665c0 1.742-.772 2.735-2.096 2.735a1.661 1.661 0 0 1-1.626-.987h-.035v2.624h-1.742v-7.049h1.742v.953h.035a1.666 1.666 0 0 1 1.614-1.028c1.336.023 2.131 1.022 2.131 2.764l-.023-.012Zm-1.742 0c0-.848-.389-1.388-.998-1.388-.61 0-1 .546-1.005 1.388-.006.842.395 1.382 1.005 1.382.61 0 .998-.528.998-1.37v-.012Zm4.732-2.787c1.446 0 2.323.685 2.364 1.783h-1.585c0-.378-.314-.616-.796-.616-.482 0-.697.186-.697.459s.192.36.58.441l1.116.227c1.062.226 1.515.656 1.515 1.463 0 1.103-1.004 1.811-2.485 1.811-1.48 0-2.45-.708-2.526-1.794h1.678c.052.395.366.627.877.627s.743-.168.743-.447-.162-.337-.58-.424l-1.005-.215c-1.04-.214-1.585-.766-1.585-1.579.012-1.045.946-1.724 2.386-1.724v-.012Zm8.31 5.44h-1.679v-.992h-.035a1.516 1.516 0 0 1-1.544 1.109 1.853 1.853 0 0 1-1.95-2.003v-3.444h1.741v3.043c0 .633.325.97.865.97a.89.89 0 0 0 .852-.63.888.888 0 0 0 .03-.375v-3.008h1.743l-.024 5.33Zm.841-5.33h1.684v1.028h.035a1.545 1.545 0 0 1 1.516-1.126 1.388 1.388 0 0 1 1.48 1.16h.035a1.636 1.636 0 0 1 1.638-1.16 1.69 1.69 0 0 1 1.741 1.811v3.63h-1.742v-3.165c0-.58-.26-.848-.749-.848a.762.762 0 0 0-.76.86v3.152H80.49v-3.188c0-.534-.261-.824-.737-.824a.777.777 0 0 0-.773.871v3.141H77.24l.03-5.342ZM31.537 48.166a7.696 7.696 0 0 0-1.162-1.87A7.856 7.856 0 1 0 19.53 57.516c.566.44 1.192.797 1.858 1.062.934.383 1.934.58 2.944.58a7.873 7.873 0 0 0 7.856-7.867 7.775 7.775 0 0 0-.65-3.124Zm-7.212-3.153c.907 0 1.803.199 2.625.581-.2.087-.412.147-.627.18a3.327 3.327 0 0 0-2.817 2.816 1.741 1.741 0 0 1-1.573 1.539 3.327 3.327 0 0 0-2.816 2.816 1.691 1.691 0 0 1-.459 1.01 6.27 6.27 0 0 1 5.673-8.953l-.006.011Zm-4.802 10.342c.07-.064.14-.122.21-.192.516-.5.847-1.162.94-1.875.037-.401.217-.776.505-1.057a1.644 1.644 0 0 1 1.051-.5 3.327 3.327 0 0 0 2.816-2.816c.025-.42.205-.814.505-1.109a1.667 1.667 0 0 1 1.063-.482 3.182 3.182 0 0 0 1.742-.83c.547.454 1.01 1 1.37 1.614a.505.505 0 0 1-.075.082c-.277.291-.65.473-1.051.51a3.316 3.316 0 0 0-2.816 2.817 1.742 1.742 0 0 1-1.562 1.556 3.345 3.345 0 0 0-2.834 2.816 1.824 1.824 0 0 1-.284.795 6.322 6.322 0 0 1-1.58-1.33Zm4.802 2.241c-.589 0-1.175-.081-1.742-.244.194-.361.32-.755.372-1.161a1.743 1.743 0 0 1 1.556-1.556 3.327 3.327 0 0 0 2.822-2.816 1.741 1.741 0 0 1 1.556-1.556 3.317 3.317 0 0 0 1.486-.581 6.282 6.282 0 0 1-6.05 7.885v.029Z" fill="#D1D1D1"/><defs><linearGradient id="a" x1="0" y1="-3.685" x2="110.285" y2="5.815" gradientUnits="userSpaceOnUse"><stop offset="0" stop-color="#fff"/><stop offset="1" stop-color="#fff" stop-opacity="0"/></linearGradient></defs></svg>