<svg xmlns="http://www.w3.org/2000/svg" width="70" height="70" fill="none"><mask id="a" width="64" height="60" x="3" y="5" maskUnits="userSpaceOnUse" style="mask-type:luminance"><path fill="#fff" d="M3 5h63.548v60H3V5Z"/></mask><g mask="url(#a)"><path fill="url(#b)" d="M60.602 45.828h.02a.267.267 0 0 0 .029-.024.22.22 0 0 0 .032-.028.223.223 0 0 0 .04-.046l.023-.032a.469.469 0 0 0 .053-.192V17.115a.373.373 0 0 0-.065-.208.375.375 0 0 0-.166-.14L35.24 5.235a.378.378 0 0 0-.133-.145.354.354 0 0 0-.303-.046.365.365 0 0 0-.254.017.389.389 0 0 0-.186.174L9.034 16.768a.377.377 0 0 0-.168.14.373.373 0 0 0-.064.207v28.381c0 .034.005.067.015.1 0 .012 0 .019.011.03.012.012.016.041.028.063l.023.032a.381.381 0 0 0 .04.046l.032.028a.42.42 0 0 0 .027.023H9l.02.014 25.517 12.341a.356.356 0 0 0 .166.038.37.37 0 0 0 .165-.038l25.717-12.34.018-.005Zm-8.218 3.1-7.903-3.765 6.837-3.26a.166.166 0 0 0 .086-.089l8.11 3.692-7.13 3.422Zm-9.207 4.42-7.932-3.78 8.803-4.194 7.903 3.767-8.774 4.207Zm-25.55-4.193 7.936-3.781 8.804 4.193-8 3.81-8.74-4.222Zm-7.543-3.647 8.109-3.694a.16.16 0 0 0 .085.088l6.837 3.261-7.928 3.779-7.103-3.434Zm17.51-7.973 6.763 3.224-8.804 4.194-6.955-3.321 8.996-4.097Zm.464-.206 6.753-3.072 6.751 3.072-6.753 3.219-6.751-3.219Zm13.959.206 8.998 4.097-6.967 3.32-8.803-4.193 6.772-3.224Zm-16.012 7.628 8.804-4.194 8.803 4.194-8.803 4.191-8.804-4.19Zm34.03-19.135-.408-.186a.202.202 0 0 0-.146-.005.2.2 0 0 0-.106.1.188.188 0 0 0-.005.146.182.182 0 0 0 .099.106l.565.258V36.3l-.407-.186a.185.185 0 0 0-.146-.005.196.196 0 0 0-.106.1.188.188 0 0 0-.005.146.185.185 0 0 0 .099.106l.565.258v8.184l-24.75-11.267v-8.185l.206.095a.185.185 0 0 0 .147.006.187.187 0 0 0 .113-.245.187.187 0 0 0-.1-.108l-.367-.167V15.18l.207.095a.185.185 0 0 0 .147.005.189.189 0 0 0 .11-.246.188.188 0 0 0-.097-.107l-.367-.173v-8.66L60.034 17.36v8.667ZM34.518 6.003v8.568l-.765.349a.19.19 0 0 0-.09.089.19.19 0 0 0 .05.234.187.187 0 0 0 .12.043.199.199 0 0 0 .078-.018l.607-.278v9.862l-.765.351a.186.186 0 0 0-.1.107.187.187 0 0 0 .005.145.18.18 0 0 0 .174.112.187.187 0 0 0 .08-.019l.606-.277v8.185L9.567 44.9V36.72l.565-.26a.181.181 0 0 0 .099-.108.184.184 0 0 0-.006-.146.18.18 0 0 0-.107-.1.18.18 0 0 0-.145.007l-.406.184v-9.85l.565-.259a.181.181 0 0 0 .099-.108.184.184 0 0 0-.006-.146.184.184 0 0 0-.107-.1.183.183 0 0 0-.145.007l-.406.185v-8.664L34.519 6.003Zm.183 51.404-7.904-3.823 8.001-3.813 7.935 3.78-8.032 3.856ZM26.343 18.54a.181.181 0 0 1-.006-.145.18.18 0 0 1 .099-.107l1.83-.838a.183.183 0 0 1 .138.005c.045.02.078.052.098.096.021.045.024.09.01.138a.185.185 0 0 1-.086.108l-1.83.838a.196.196 0 0 1-.079.016.176.176 0 0 1-.174-.11Zm3.659-1.676a.183.183 0 0 1-.006-.146.181.181 0 0 1 .098-.108l1.83-.84a.185.185 0 0 1 .138.007c.045.019.078.051.099.095.02.046.023.09.009.138a.188.188 0 0 1-.086.108l-1.83.839a.197.197 0 0 1-.08.018.177.177 0 0 1-.172-.111Zm-18.304 8.392a.187.187 0 0 1 .002-.153.191.191 0 0 1 .115-.1l1.827-.84a.194.194 0 0 1 .225.02c.02.018.037.04.048.064.011.025.017.05.017.079a.188.188 0 0 1-.13.184l-1.83.838a.187.187 0 0 1-.08.019.19.19 0 0 1-.109-.028.19.19 0 0 1-.076-.083h-.009Zm3.668-1.68a.188.188 0 0 1 .095-.254l1.828-.84a.194.194 0 0 1 .225.02c.02.018.036.04.048.064.011.025.017.051.017.079a.185.185 0 0 1-.062.143.19.19 0 0 1-.068.04l-1.828.84a.185.185 0 0 1-.081.017.179.179 0 0 1-.174-.109Zm3.658-1.678a.182.182 0 0 1-.004-.146.185.185 0 0 1 .1-.107l1.83-.84a.185.185 0 0 1 .145-.005.188.188 0 0 1 .112.246.187.187 0 0 1-.1.107l-1.828.84a.19.19 0 0 1-.146.003.19.19 0 0 1-.109-.098Zm3.66-1.68a.181.181 0 0 1-.005-.145.183.183 0 0 1 .099-.106l1.83-.838a.19.19 0 0 1 .221.302.18.18 0 0 1-.064.043l-1.83.838a.198.198 0 0 1-.18-.013.182.182 0 0 1-.07-.08Zm25.623.682a.185.185 0 0 1 .108-.1.189.189 0 0 1 .147.005l1.853.84c.047.023.08.059.098.108a.186.186 0 0 1-.075.227.2.2 0 0 1-.183.013l-1.853-.84a.189.189 0 0 1-.1-.107.185.185 0 0 1 .005-.146Zm7.378 3.36a.191.191 0 0 1 .253-.095l1.854.838a.192.192 0 0 1-.079.366.19.19 0 0 1-.08-.02l-1.852-.837a.186.186 0 0 1-.1-.107.18.18 0 0 1-.012-.073c0-.025.006-.05.017-.072ZM44.618 19.22a.184.184 0 0 1 .107-.1.185.185 0 0 1 .145.005l1.855.84c.047.022.08.058.098.107a.185.185 0 0 1-.006.146.188.188 0 0 1-.174.111.19.19 0 0 1-.076-.018l-1.854-.84a.185.185 0 0 1-.098-.107.184.184 0 0 1 .003-.144Zm7.38 3.358a.184.184 0 0 1 .107-.1.182.182 0 0 1 .145.007l1.853.838a.19.19 0 0 1 .04.322.187.187 0 0 1-.118.044.177.177 0 0 1-.08-.019l-1.853-.838a.185.185 0 0 1-.1-.107.185.185 0 0 1 .005-.147Zm-14.756-6.716a.188.188 0 0 1 .042-.061.188.188 0 0 1 .064-.039.185.185 0 0 1 .146.005l1.853.84a.187.187 0 0 1 .106.214.186.186 0 0 1-.066.107.185.185 0 0 1-.119.044.183.183 0 0 1-.078-.019l-1.854-.838a.203.203 0 0 1-.06-.043.185.185 0 0 1-.04-.063.185.185 0 0 1 .006-.147Zm3.688 1.67a.186.186 0 0 1 .107-.1.187.187 0 0 1 .145.005l1.853.841a.178.178 0 0 1 .101.106.185.185 0 0 1-.006.146.183.183 0 0 1-.106.099.182.182 0 0 1-.146-.004l-1.853-.84a.195.195 0 0 1-.113-.18c.001-.026.007-.05.018-.073ZM26.334 28.804a.186.186 0 0 1-.006-.147.183.183 0 0 1 .099-.108l1.837-.829a.19.19 0 0 1 .236.102c.02.044.024.09.01.137a.185.185 0 0 1-.087.109l-1.83.838a.193.193 0 0 1-.078.018.18.18 0 0 1-.172-.11l-.009-.01Zm-3.65 1.695a.182.182 0 0 1-.005-.146.187.187 0 0 1 .099-.107l1.83-.838a.185.185 0 0 1 .145-.005.18.18 0 0 1 .107.098.182.182 0 0 1 .006.145.183.183 0 0 1-.098.107l-1.833.832a.2.2 0 0 1-.078.016.172.172 0 0 1-.172-.102Zm-3.66 1.679a.182.182 0 0 1-.004-.146.183.183 0 0 1 .1-.106l1.83-.842a.188.188 0 0 1 .145-.003.187.187 0 0 1 .124.171.187.187 0 0 1-.051.137.202.202 0 0 1-.06.043l-1.829.84a.194.194 0 0 1-.146.005.19.19 0 0 1-.109-.1Zm-3.658 1.678a.195.195 0 0 1-.005-.145.186.186 0 0 1 .1-.107l1.828-.84a.188.188 0 0 1 .156-.018.19.19 0 0 1 .135.18.189.189 0 0 1-.062.144.2.2 0 0 1-.069.04l-1.828.841a.19.19 0 0 1-.255-.104v.01Zm-3.659 1.679a.185.185 0 0 1 .034-.21.187.187 0 0 1 .061-.042l1.828-.848a.19.19 0 0 1 .225.02.18.18 0 0 1 .048.066c.012.024.018.05.018.077a.186.186 0 0 1-.061.144.186.186 0 0 1-.07.04l-1.83.839a.175.175 0 0 1-.079.018.179.179 0 0 1-.174-.113v.009Zm18.304-8.391a.185.185 0 0 1-.006-.147.185.185 0 0 1 .099-.108l1.83-.838a.185.185 0 0 1 .137.005c.046.02.079.051.099.097.02.044.024.09.01.137a.18.18 0 0 1-.087.108l-1.83.839a.195.195 0 0 1-.19-.014.184.184 0 0 1-.071-.088l.009.009Zm21.995 5.714a.183.183 0 0 1 .108-.098.182.182 0 0 1 .145.006l1.854.838c.04.02.07.049.09.088a.192.192 0 0 1-.17.278.179.179 0 0 1-.078-.019l-1.854-.838a.193.193 0 0 1-.104-.264l.01.009ZM40.93 27.813a.186.186 0 0 1 .107-.1.198.198 0 0 1 .145.005l1.853.84a.193.193 0 0 1 .1.107.185.185 0 0 1-.005.146.183.183 0 0 1-.106.099.188.188 0 0 1-.146-.004l-1.853-.841a.182.182 0 0 1-.1-.106.185.185 0 0 1 .005-.146Zm3.688 1.678a.185.185 0 0 1 .107-.098.185.185 0 0 1 .145.003l1.855.84c.047.023.08.06.098.108a.185.185 0 0 1-.006.146.186.186 0 0 1-.07.081.2.2 0 0 1-.182.014l-1.854-.84a.188.188 0 0 1-.098-.108.188.188 0 0 1 .005-.146Zm-7.376-3.357a.187.187 0 0 1 .252-.095l1.853.84a.2.2 0 0 1 .061.044.187.187 0 0 1 .034.21.18.18 0 0 1-.174.11.184.184 0 0 1-.078-.016l-1.854-.84a.186.186 0 0 1-.1-.107.186.186 0 0 1 .005-.146Zm11.065 5.036a.186.186 0 0 1 .108-.099.189.189 0 0 1 .147.004l1.853.84a.19.19 0 0 1 .098.108.188.188 0 0 1-.18.256.198.198 0 0 1-.078-.016l-1.853-.84a.19.19 0 0 1-.1-.107.185.185 0 0 1 .005-.146Zm9.57 4.358a.18.18 0 0 1-.173.111.158.158 0 0 1-.08-.018l-1.853-.838a.185.185 0 0 1-.1-.107.185.185 0 0 1 .005-.145.188.188 0 0 1 .107-.1.184.184 0 0 1 .146.005l1.853.838a.182.182 0 0 1 .1.107.186.186 0 0 1-.005.147Zm8.66 14.087c0 3.441-2.97 6.702-8.358 9.179-5.202 2.39-12.28 3.9-19.946 4.247h-.026a.578.578 0 0 1-.407-.159.582.582 0 0 1-.138-.62.569.569 0 0 1 .52-.365c15.256-.694 27.21-6.087 27.21-12.273 0-1.935-1.188-3.882-3.432-5.626a.572.572 0 1 1 .694-.905c2.543 1.961 3.883 4.218 3.883 6.522ZM33.245 62.517a.566.566 0 0 1-.306.475l-3.681 1.924a.563.563 0 0 1-.435.046.57.57 0 0 1-.108-1.05l1.733-.906c-15.723-.903-27.437-6.573-27.437-13.39 0-2.455 1.51-4.84 4.37-6.9a.562.562 0 0 1 .433-.12.562.562 0 0 1 .48.44.567.567 0 0 1-.244.606c-2.547 1.838-3.88 3.903-3.88 5.973 0 6.136 11.583 11.448 26.57 12.25l-1.763-1.2a.574.574 0 0 1-.239-.59.564.564 0 0 1 .247-.362.567.567 0 0 1 .637.005l3.373 2.292a.568.568 0 0 1 .25.507Z"/></g><defs><linearGradient id="b" x1="3.011" x2="66.537" y1="35.006" y2="35.006" gradientUnits="userSpaceOnUse"><stop stop-color="#0CBAF1"/><stop offset="1" stop-color="#E95CE9"/></linearGradient></defs></svg>