<svg width="102" height="102" viewBox="0 0 102 102" fill="none" xmlns="http://www.w3.org/2000/svg">
<circle cx="51" cy="51" r="51" fill="#252532" fill-opacity="0.8"/>
<circle cx="51" cy="51" r="50.5" stroke="url(#paint0_linear_43_1706)" stroke-opacity="0.3"/>
<path d="M39.0494 54.0912V46.0908H37.7375V54.0912H39.0494Z" fill="#D1D1D1"/>
<path d="M39.8523 51.4238C39.8523 53.0583 40.9491 54.2196 42.6159 54.2196C44.2826 54.2196 45.3795 53.0583 45.3795 51.4238C45.3795 49.7893 44.2826 48.6279 42.6159 48.6279C40.9491 48.6279 39.8523 49.7893 39.8523 51.4238ZM41.1749 51.4238C41.1749 50.4667 41.7449 49.8 42.6159 49.8C43.4869 49.8 44.0568 50.4667 44.0568 51.4238C44.0568 52.3701 43.4869 53.0475 42.6159 53.0475C41.7449 53.0475 41.1749 52.3701 41.1749 51.4238Z" fill="#D1D1D1"/>
<path d="M45.8208 51.3163C45.8208 52.8647 46.8209 53.9831 48.3156 53.9831C49.0898 53.9831 49.7565 53.6712 50.0898 53.1551V54.0583C50.0898 54.9294 49.5414 55.51 48.6274 55.51C47.8102 55.51 47.251 55.1122 47.1757 54.4132H45.8531C46.0251 55.8004 47.0897 56.7036 48.5521 56.7036C50.2726 56.7036 51.3695 55.5745 51.3695 53.8218V48.7785H50.2081L50.1329 49.499C49.8103 48.9398 49.1436 48.6064 48.3586 48.6064C46.8424 48.6064 45.8208 49.757 45.8208 51.3163ZM47.1542 51.284C47.1542 50.4022 47.7134 49.757 48.5414 49.757C49.4446 49.757 50.0468 50.413 50.0468 51.284C50.0468 52.1658 49.4446 52.8432 48.5414 52.8432C47.7241 52.8432 47.1542 52.1765 47.1542 51.284Z" fill="#D1D1D1"/>
<path d="M52.0187 51.4238C52.0187 53.0583 53.1155 54.2196 54.7823 54.2196C56.449 54.2196 57.5458 53.0583 57.5458 51.4238C57.5458 49.7893 56.449 48.6279 54.7823 48.6279C53.1155 48.6279 52.0187 49.7893 52.0187 51.4238ZM53.3413 51.4238C53.3413 50.4667 53.9112 49.8 54.7823 49.8C55.6533 49.8 56.2232 50.4667 56.2232 51.4238C56.2232 52.3701 55.6533 53.0475 54.7823 53.0475C53.9112 53.0475 53.3413 52.3701 53.3413 51.4238Z" fill="#D1D1D1"/>
<path d="M58.9656 47.693C59.3958 47.693 59.7506 47.3489 59.7506 46.908C59.7506 46.4779 59.3958 46.1338 58.9656 46.1338C58.5248 46.1338 58.1914 46.4779 58.1914 46.908C58.1914 47.3489 58.5248 47.693 58.9656 47.693ZM58.3097 54.0912H59.6216V48.7791H58.3097V54.0912Z" fill="#D1D1D1"/>
<path d="M60.7709 56.5531H62.0506V53.3594C62.384 53.9078 63.1044 54.2304 63.9002 54.2304C65.4701 54.2304 66.4057 53.026 66.3842 51.37C66.3519 49.7033 65.3949 48.6172 63.8894 48.6172C63.0829 48.6172 62.3517 48.972 62.0291 49.585L61.9538 48.7785H60.7709V56.5531ZM62.1044 51.4345C62.1044 50.4775 62.685 49.8108 63.5991 49.8108C64.5131 49.8108 65.0615 50.4883 65.0615 51.4345C65.0615 52.3808 64.5131 53.0475 63.5991 53.0475C62.685 53.0475 62.1044 52.3916 62.1044 51.4345Z" fill="#D1D1D1"/>
<path d="M66.717 52.4991C66.7601 53.5529 67.5773 54.2304 68.8462 54.2304C70.0936 54.2304 70.9431 53.5637 70.9431 52.5314C70.9431 51.7679 70.4699 51.2517 69.5989 51.0367L68.6634 50.8109C68.2655 50.7033 67.9967 50.5635 67.9967 50.2194C67.9967 49.8538 68.287 49.5957 68.7602 49.5957C69.2548 49.5957 69.5774 49.8753 69.5774 50.3377H70.771C70.728 49.2839 69.943 48.6172 68.7924 48.6172C67.6526 48.6172 66.8031 49.2839 66.8031 50.2947C66.8031 50.9829 67.2009 51.5528 68.2225 51.8217L69.1473 52.0582C69.4914 52.155 69.7064 52.3163 69.7064 52.6174C69.7064 53.0368 69.3086 53.2303 68.8247 53.2303C68.244 53.2303 67.9107 52.9615 67.9107 52.4991H66.717Z" fill="#D1D1D1"/>
<path d="M73.6646 54.2302C74.3851 54.2302 75.0733 53.8969 75.3851 53.4022L75.4711 54.0904H76.697V48.7783H75.3851V51.5634C75.3851 52.5204 75.0195 53.0581 74.1592 53.0581C73.4925 53.0581 73.0302 52.7355 73.0302 51.6387V48.7783H71.7183V52.1011C71.7183 53.37 72.4065 54.2302 73.6646 54.2302Z" fill="#D1D1D1"/>
<path d="M79.1665 54.0906V51.0367C79.1665 50.1764 79.6719 49.7678 80.2956 49.7678C80.9193 49.7678 81.3279 50.1657 81.3279 50.9184V54.0906H82.6075V51.0474C82.6075 50.1764 83.1022 49.7678 83.7259 49.7678C84.3603 49.7678 84.769 50.1657 84.769 50.9184V54.0906H86.0378V50.6173C86.0378 49.3914 85.3604 48.6172 84.07 48.6172C83.2635 48.6172 82.6291 49.0043 82.371 49.628C82.0806 49.0043 81.5 48.6172 80.6182 48.6172C79.9945 48.6172 79.4353 48.9075 79.1235 49.3807L79.059 48.7785H77.8546V54.0906H79.1665Z" fill="#D1D1D1"/>
<path d="M76.0214 58.8384C76.2168 58.8384 76.3866 58.6739 76.3866 58.4784C76.3866 58.2779 76.2168 58.1133 76.0214 58.1133C75.8208 58.1133 75.6511 58.2779 75.6511 58.4784C75.6511 58.6739 75.8208 58.8384 76.0214 58.8384Z" fill="#D1D1D1"/>
<path d="M76.7638 57.5117C76.7638 58.2985 77.2472 58.8283 77.9518 58.8283C78.5587 58.8283 79.0215 58.4631 79.1192 57.918H78.6564C78.5689 58.2214 78.3015 58.4014 77.9826 58.4014C77.5301 58.4014 77.2421 58.0517 77.2421 57.5065C77.2421 56.9511 77.5455 56.6117 77.9929 56.6117C78.3015 56.6117 78.5689 56.7763 78.6512 57.1003H79.1141C79.0318 56.55 78.5998 56.1797 77.9981 56.1797C77.2678 56.1797 76.7638 56.7197 76.7638 57.5117Z" fill="#D1D1D1"/>
<path d="M79.3016 57.5063C79.3016 58.2623 79.8159 58.828 80.5874 58.828C81.3588 58.828 81.8731 58.2623 81.8731 57.5063C81.8731 56.7503 81.3588 56.1846 80.5874 56.1846C79.8159 56.1846 79.3016 56.7503 79.3016 57.5063ZM79.7902 57.5063C79.7902 56.992 80.1039 56.6166 80.5874 56.6166C81.0708 56.6166 81.3845 56.992 81.3845 57.5063C81.3845 58.0206 81.0708 58.396 80.5874 58.396C80.1039 58.396 79.7902 58.0206 79.7902 57.5063Z" fill="#D1D1D1"/>
<path d="M82.7693 58.7714V57.2594C82.7693 56.8634 83.0162 56.6063 83.3762 56.6063C83.7207 56.6063 83.9367 56.8274 83.9367 57.2234V58.7714H84.4099V57.2646C84.4099 56.8634 84.6516 56.6063 85.0167 56.6063C85.3562 56.6063 85.5722 56.8274 85.5722 57.2234V58.7714H86.0402V57.1206C86.0402 56.5394 85.7007 56.1846 85.1247 56.1846C84.7339 56.1846 84.4305 56.3749 84.307 56.6834C84.1785 56.3749 83.8956 56.1846 83.4842 56.1846C83.1705 56.1846 82.8927 56.3286 82.7539 56.5754L82.7179 56.2566H82.2859V58.7714H82.7693Z" fill="#D1D1D1"/>
<path fill-rule="evenodd" clip-rule="evenodd" d="M15.9351 51.4897L15.936 51.396L15.9378 51.3023L15.9406 51.2085L15.9444 51.1148L15.9492 51.0211L15.9549 50.9273L15.9616 50.8336L15.9692 50.7399L15.9778 50.6463L15.9874 50.5526L15.9979 50.4591L16.0094 50.3656L16.0218 50.2722L16.0353 50.1789L16.0496 50.0857L16.065 49.9926L16.0813 49.8995L16.0985 49.8067L16.1168 49.7139L16.1359 49.6213L16.1561 49.5288L16.1772 49.4365L16.1992 49.3444L16.2222 49.2525L16.2461 49.1607L16.271 49.0692L16.2969 48.9778L16.3237 48.8867L16.3514 48.7958L16.3801 48.7051L16.4097 48.6147L16.4403 48.5245L16.4718 48.4346L16.5042 48.345L16.5376 48.2557L16.5719 48.1666L16.6071 48.0778L16.6432 47.9894L16.6803 47.9013L16.7183 47.8135L16.7572 47.726L16.797 47.6389L16.8377 47.5522L16.8793 47.4658L16.9218 47.3798L16.9652 47.2942L17.0096 47.2089L17.0548 47.1241L17.1008 47.0397L17.1478 46.9557L17.1957 46.8721L17.2444 46.789L17.294 46.7062L17.3445 46.624L17.3958 46.5422L17.448 46.4609L17.501 46.3801L17.5549 46.2998L17.6097 46.22L17.6652 46.1406L17.7216 46.0618L17.7789 45.9835L17.8369 45.9057L17.8958 45.8285L17.9555 45.7519L18.016 45.6757L18.0773 45.6002L18.1394 45.5252L18.2023 45.4508L18.266 45.377L18.3305 45.3038L18.3957 45.2311L18.4617 45.1591L18.5285 45.0878L18.596 45.017L18.6643 44.9469L18.7334 44.8774L18.8031 44.8086L18.8736 44.7404L18.9448 44.6729L19.0168 44.6061L19.0894 44.5399L19.1628 44.4744L19.2369 44.4097L19.3116 44.3456L19.3871 44.2822L19.4632 44.2196L19.54 44.1577L19.6174 44.0965L19.6955 44.036L19.7742 43.9763L19.8537 43.9173L19.9337 43.8591L20.0144 43.8017L20.0956 43.745L20.1775 43.6891L20.26 43.634L20.3431 43.5796L20.4268 43.5261L20.5111 43.4733L20.5959 43.4214L20.6813 43.3703L20.7672 43.32L20.8537 43.2705L20.9408 43.2219L21.0284 43.174L21.1164 43.1271L21.205 43.0809L21.2941 43.0357L21.3838 42.9912L21.4739 42.9477L21.5645 42.905L21.6555 42.8632L21.747 42.8222L21.839 42.7822L21.9314 42.743L22.0243 42.7047L22.1176 42.6673L22.2113 42.6308L22.3054 42.5952L22.3999 42.5606L22.4948 42.5268L22.5901 42.494L22.6857 42.462L22.7817 42.4311L22.8781 42.401L22.9748 42.3719L23.0718 42.3437L23.1692 42.3164L23.2669 42.2901L23.3649 42.2647L23.4632 42.2403L23.5617 42.2169L23.6606 42.1944L23.7597 42.1728L23.8591 42.1523L23.9587 42.1326L24.0586 42.114L24.1587 42.0963L24.259 42.0797L24.3595 42.0639L24.4602 42.0492L24.5611 42.0355L24.6622 42.0227L24.7635 42.0109L24.8649 42.0001L24.9664 41.9903L25.0681 41.9815L25.1699 41.9737L25.2719 41.9668L25.82 41.9355L25.8513 44.5765L25.8692 44.5763L25.9449 44.5762L26.0206 44.5768L26.0963 44.5782L26.1721 44.5803L26.2478 44.5832L26.3236 44.5868L26.3994 44.5912L26.4752 44.5963L26.5509 44.6021L26.6267 44.6087L26.7024 44.6161L26.7781 44.6242L26.8537 44.633L26.9293 44.6426L27.0048 44.6529L27.0802 44.664L27.1556 44.6758L27.2309 44.6884L27.3061 44.7017L27.3812 44.7158L27.4562 44.7306L27.5311 44.7462L27.6059 44.7625L27.6805 44.7795L27.755 44.7973L27.8294 44.8158L27.9036 44.8351L27.9776 44.8551L28.0514 44.8758L28.1252 44.8973L28.1987 44.9195L28.272 44.9425L28.3451 44.9661L28.418 44.9905L28.4907 45.0157L28.5632 45.0415L28.6355 45.0681L28.7075 45.0954L28.7793 45.1234L28.8508 45.1522L28.922 45.1816L28.993 45.2118L29.0637 45.2427L29.1342 45.2743L29.2043 45.3066L29.2742 45.3396L29.3438 45.3733L29.413 45.4078L29.4819 45.4429L29.5505 45.4787L29.6188 45.5152L29.6867 45.5524L29.7542 45.5902L29.8215 45.6288L29.8883 45.668L29.9548 45.7079L30.0209 45.7485L30.0867 45.7897L30.152 45.8317L30.2169 45.8742L30.2814 45.9175L30.3456 45.9614L30.4093 46.0059L30.4726 46.0511L30.5354 46.0969L30.5978 46.1434L30.6598 46.1905L30.7212 46.2382L30.7823 46.2866L30.8428 46.3356L30.903 46.3852L30.9626 46.4355L31.0217 46.4863L31.0804 46.5377L31.1386 46.5897L31.1962 46.6424L31.2533 46.6956L31.3099 46.7494L31.366 46.8038L31.4216 46.8588L31.4766 46.9143L31.5311 46.9705L31.585 47.0272L31.6384 47.0844L31.6912 47.1422L31.7434 47.2005L31.7951 47.2594L31.8462 47.3188L31.8967 47.3787L31.9466 47.4392L31.9959 47.5002L32.0446 47.5617L32.0927 47.6237L32.1402 47.6862L32.1871 47.7492L32.2334 47.8127L32.279 47.8767L32.324 47.9412L32.3684 48.0061L32.4121 48.0715L32.4551 48.1374L32.4975 48.2037L32.5392 48.2705L32.5803 48.3377L32.6207 48.4053L32.6605 48.4734L32.6995 48.5419L32.7379 48.6108L32.7756 48.6801L32.8126 48.7498L32.8488 48.82L32.8844 48.8905L32.9193 48.9613L32.9535 49.0326L32.9869 49.1043L33.0197 49.1763L33.0517 49.2486L33.083 49.3213L33.1135 49.3944L33.1433 49.4678L33.1724 49.5415L33.2008 49.6155L33.2283 49.6899L33.2552 49.7645L33.2813 49.8395L33.3066 49.9147L33.3312 49.9903L33.355 50.0661L33.378 50.1421L33.4003 50.2185L33.4218 50.2951L33.4425 50.3719L33.4625 50.449L33.4816 50.5263L33.5 50.6039L33.5176 50.6816L33.5344 50.7596L33.5504 50.8377L33.5656 50.9161L33.58 50.9947L33.5937 51.0734L33.6065 51.1523L33.6185 51.2314L33.6297 51.3106L33.6401 51.3899L33.6497 51.4695L33.6585 51.5491L33.6664 51.6289L33.6736 51.7087L33.6799 51.7887L33.6854 51.8688L33.6901 51.949L33.694 52.0292L33.6971 52.1096L33.6993 52.1899L33.7007 52.2704L33.7013 52.3509L33.7011 52.4315L33.7 52.5121L33.6981 52.5927L33.6954 52.6733L33.6918 52.754L33.6875 52.8346L33.6822 52.9153L33.6762 52.9959L33.6693 53.0765L33.6616 53.1571L33.6531 53.2377L33.6437 53.3181L33.6335 53.3986L33.6225 53.479L33.6106 53.5593L33.598 53.6395L33.5845 53.7197L33.5701 53.7997L33.555 53.8796L33.539 53.9595L33.5221 54.0392L33.5045 54.1188L33.486 54.1983L33.4667 54.2776L33.4466 54.3567L33.4256 54.4357L33.4039 54.5145L33.3813 54.5931L33.3579 54.6716L33.3337 54.7499L33.3087 54.8279L33.2829 54.9058L33.2562 54.9834L33.2287 55.0609L33.2005 55.1381L33.1714 55.215L33.1415 55.2916L33.1108 55.3681L33.0794 55.4442L33.0471 55.5201L33.0141 55.5958L32.9802 55.671L32.9456 55.7461L32.9101 55.8208L32.8739 55.8952L32.8369 55.9693L32.7992 56.043L32.7606 56.1165L32.7213 56.1895L32.6812 56.2622L32.6404 56.3346L32.5988 56.4066L32.5564 56.4782L32.5133 56.5494L32.4695 56.6203L32.4248 56.6907L32.3795 56.7607L32.3334 56.8303L32.2866 56.8995L32.239 56.9683L32.1907 57.0367L32.1417 57.1045L32.092 57.172L32.0416 57.239L31.9904 57.3055L31.9386 57.3716L31.886 57.4371L31.8328 57.5022L31.7788 57.5668L31.7241 57.6309L31.6688 57.6945L31.6128 57.7575L31.5562 57.8201L31.4988 57.8821L31.4409 57.9436L31.3822 58.0046L31.3229 58.0649L31.2629 58.1248L31.2023 58.1841L31.1411 58.2428L31.0793 58.301L31.0168 58.3585L30.9537 58.4155L30.89 58.4718L30.8257 58.5276L30.7607 58.5828L30.6952 58.6374L30.6291 58.6913L30.5625 58.7446L30.4952 58.7973L30.4273 58.8494L30.3589 58.9008L30.29 58.9515L30.2205 59.0016L30.1504 59.0511L30.0798 59.0999L30.0087 59.148L29.9371 59.1954L29.8649 59.2421L29.7923 59.2882L29.7191 59.3336L29.6454 59.3783L29.5712 59.4222L29.4965 59.4655L29.4215 59.5081L29.3458 59.5499L29.2698 59.591L29.1933 59.6314L29.1163 59.671L29.0389 59.71L28.961 59.7481L28.8828 59.7855L28.8041 59.8222L28.725 59.8581L28.6455 59.8933L28.5656 59.9276L28.4853 59.9613L28.4047 59.9941L28.3236 60.0262L28.2422 60.0575L28.1605 60.088L28.0784 60.1177L27.9959 60.1466L27.9131 60.1747L27.8301 60.2021L27.7466 60.2286L27.6629 60.2543L27.5789 60.2792L27.4946 60.3033L27.4099 60.3266L27.3251 60.3491L27.2399 60.3707L27.1545 60.3915L27.0689 60.4115L26.9829 60.4306L26.8968 60.4489L26.8105 60.4664L26.7239 60.4831L26.6371 60.4989L26.5501 60.5138L26.463 60.5279L26.3756 60.5412L26.2881 60.5536L26.2004 60.5651L26.1125 60.5758L26.0245 60.5856L25.9364 60.5946L25.8481 60.6028L25.7597 60.61L25.6712 60.6164L25.5826 60.6219L25.4939 60.6266L25.4051 60.6304L25.3163 60.6333L25.2273 60.6353L25.1383 60.6365L25.0493 60.6368L24.9602 60.6363L24.8711 60.6348L24.7819 60.6325L24.6928 60.6293L24.6036 60.6252L24.5145 60.6203L24.4254 60.6145L24.3362 60.6078L24.2471 60.6002L24.1581 60.5918L24.069 60.5825L23.9801 60.5723L23.8912 60.5612L23.8024 60.5492L23.7137 60.5364L23.6251 60.5227L23.5366 60.5081L23.4482 60.4927L23.3598 60.4763L23.2717 60.4591L23.1837 60.441L23.0958 60.4221L23.0081 60.4022L22.9206 60.3816L22.8332 60.36L22.746 60.3376L22.659 60.3143L22.5722 60.2902L22.4856 60.2652L22.3992 60.2393L22.3131 60.2126L22.2272 60.185L22.1416 60.1565L22.0561 60.1272L21.971 60.0971L21.8861 60.0661L21.8016 60.0343L21.7173 60.0016L21.6333 59.9681L21.5496 59.9337L21.4662 59.8985L21.3832 59.8625L21.3005 59.8257L21.2181 59.788L21.1361 59.7495L21.0545 59.7101L20.9732 59.67L20.8923 59.629L20.8118 59.5873L20.7317 59.5447L20.6519 59.5013L20.5727 59.4572L20.4938 59.4122L20.4153 59.3664L20.3373 59.3199L20.2597 59.2725L20.1826 59.2244L20.1059 59.1755L20.0298 59.1258L19.954 59.0754L19.8788 59.0242L19.8041 58.9722L19.7298 58.9196L19.6561 58.8661L19.5829 58.8119L19.5102 58.7569L19.4381 58.7012L19.3665 58.6448L19.2954 58.5877L19.2249 58.5298L19.155 58.4712L19.0856 58.412L19.0168 58.352L18.9486 58.2912L18.881 58.2298L18.814 58.1678L18.7476 58.105L18.6818 58.0416L18.6167 57.9775L18.5521 57.9127L18.4883 57.8473L18.425 57.7812L18.3624 57.7145L18.3005 57.6471L18.2392 57.5791L18.1786 57.5105L18.1187 57.4412L18.0595 57.3713L18.0009 57.3009L17.9431 57.2297L17.886 57.1581L17.8295 57.0858L17.7738 57.013L17.7188 56.9395L17.6646 56.8655L17.6111 56.7909L17.5583 56.7158L17.5063 56.6401L17.455 56.5639L17.4045 56.4872L17.3548 56.4099L17.3058 56.3321L17.2576 56.2538L17.2102 56.175L17.1636 56.0957L17.1177 56.0159L17.0727 55.9357L17.0285 55.8549L16.9851 55.7737L16.9425 55.692L16.9007 55.6099L16.8598 55.5273L16.8196 55.4443L16.7803 55.3609L16.7419 55.2771L16.7043 55.1928L16.6675 55.1081L16.6316 55.023L16.5966 54.9376L16.5624 54.8518L16.5291 54.7656L16.4966 54.679L16.4651 54.5921L16.4344 54.5049L16.4046 54.4173L16.3756 54.3294L16.3476 54.2411L16.3205 54.1526L16.2942 54.0638L16.2689 53.9746L16.2444 53.8852L16.2209 53.7955L16.1983 53.7055L16.1766 53.6153L16.1558 53.5248L16.1359 53.4341L16.1169 53.3432L16.0989 53.252L16.0818 53.1606L16.0656 53.069L16.0504 52.9773L16.0361 52.8853L16.0227 52.7931L16.0103 52.7008L15.9988 52.6083L15.9883 52.5157L15.9787 52.423L15.97 52.3301L15.9623 52.2371L15.9556 52.1439L15.9498 52.0507L15.9449 51.9574L15.941 51.864L15.9381 51.7705L15.9361 51.677L15.9351 51.5834L15.9351 51.4897ZM24.9949 44.6318L24.9736 42.8317L24.9534 42.8337L24.8604 42.8436L24.7677 42.8543L24.6751 42.8661L24.5828 42.8786L24.4906 42.8921L24.3985 42.9065L24.3066 42.9218L24.2149 42.938L24.1237 42.955L24.0323 42.973L23.9415 42.9918L23.8506 43.0115L23.7602 43.0321L23.6699 43.0536L23.58 43.0759L23.4903 43.0992L23.4009 43.1232L23.3117 43.1482L23.223 43.174L23.1344 43.2007L23.0462 43.2282L22.9583 43.2565L22.8709 43.2857L22.7836 43.3158L22.6968 43.3467L22.6104 43.3784L22.5242 43.411L22.4385 43.4443L22.3533 43.4785L22.2683 43.5136L22.1837 43.5494L22.0996 43.5861L22.0159 43.6235L21.9326 43.6618L21.8498 43.7008L21.7673 43.7407L21.6854 43.7813L21.6039 43.8227L21.5229 43.8648L21.4423 43.9078L21.3623 43.9515L21.2826 43.996L21.2035 44.0413L21.125 44.0872L21.0468 44.134L20.9694 44.1815L20.8924 44.2296L20.8158 44.2786L20.7398 44.3283L20.6644 44.3787L20.5897 44.4297L20.5153 44.4816L20.4416 44.5341L20.3685 44.5873L20.2959 44.6412L20.2239 44.6957L20.1526 44.7509L20.0817 44.8069L20.0117 44.8635L19.9421 44.9207L19.8732 44.9786L19.8049 45.0372L19.7373 45.0963L19.6702 45.1561L19.6038 45.2165L19.5381 45.2776L19.4731 45.3393L19.4086 45.4015L19.345 45.4644L19.2819 45.5278L19.2195 45.592L19.1579 45.6565L19.0969 45.7216L19.0365 45.7875L18.977 45.8538L18.9182 45.9206L18.86 45.988L18.8026 46.0559L18.7459 46.1244L18.6899 46.1934L18.6347 46.2629L18.5802 46.3329L18.5265 46.4033L18.4734 46.4743L18.4212 46.5458L18.3697 46.6177L18.319 46.6902L18.269 46.763L18.2199 46.8363L18.1714 46.9101L18.1238 46.9843L18.077 47.0589L18.0309 47.1339L17.9857 47.2093L17.9412 47.2852L17.8975 47.3615L17.8547 47.4381L17.8127 47.5151L17.7714 47.5925L17.731 47.6703L17.6914 47.7484L17.6526 47.8268L17.6147 47.9056L17.5775 47.9847L17.5412 48.0641L17.5058 48.1439L17.4711 48.224L17.4373 48.3043L17.4044 48.3849L17.3723 48.4659L17.341 48.5471L17.3106 48.6285L17.281 48.7102L17.2523 48.7921L17.2244 48.8744L17.1974 48.9568L17.1713 49.0395L17.146 49.1223L17.1216 49.2054L17.098 49.2886L17.0754 49.3721L17.0535 49.4557L17.0326 49.5395L17.0125 49.6234L16.9933 49.7075L16.9749 49.7918L16.9574 49.8762L16.9409 49.9606L16.9251 50.0453L16.9103 50.13L16.8963 50.2148L16.8832 50.2997L16.871 50.3847L16.8596 50.4698L16.8492 50.555L16.8396 50.6402L16.8309 50.7254L16.823 50.8107L16.8161 50.896L16.81 50.9814L16.8048 51.0667L16.8005 51.1521L16.797 51.2374L16.7945 51.3228L16.7928 51.4081L16.792 51.4934L16.792 51.5786L16.7929 51.6638L16.7947 51.749L16.7974 51.8341L16.8009 51.9191L16.8054 52.004L16.8106 52.0889L16.8168 52.1736L16.8238 52.2582L16.8317 52.3428L16.8404 52.4272L16.85 52.5115L16.8604 52.5956L16.8717 52.6796L16.8839 52.7634L16.8969 52.8471L16.9108 52.9306L16.9255 53.0139L16.941 53.097L16.9574 53.1799L16.9747 53.2626L16.9927 53.3451L17.0117 53.4274L17.0314 53.5095L17.052 53.5913L17.0734 53.6729L17.0956 53.7541L17.1186 53.8352L17.1425 53.916L17.1672 53.9965L17.1927 54.0767L17.219 54.1566L17.2461 54.2362L17.274 54.3155L17.3027 54.3945L17.3321 54.4732L17.3624 54.5515L17.3935 54.6295L17.4253 54.7072L17.458 54.7845L17.4914 54.8614L17.5255 54.938L17.5605 55.0142L17.5962 55.0899L17.6326 55.1654L17.6698 55.2404L17.7078 55.315L17.7465 55.3892L17.7859 55.4629L17.8261 55.5363L17.867 55.6092L17.9086 55.6817L17.9509 55.7537L17.994 55.8252L18.0377 55.8963L18.0822 55.967L18.1274 56.0371L18.1732 56.1068L18.2198 56.176L18.267 56.2447L18.3149 56.3129L18.3635 56.3806L18.4127 56.4478L18.4627 56.5145L18.5132 56.5806L18.5644 56.6462L18.6163 56.7112L18.6688 56.7757L18.7219 56.8397L18.7756 56.9031L18.83 56.966L18.885 57.0282L18.9406 57.09L18.9968 57.1511L19.0536 57.2116L19.1109 57.2715L19.1689 57.3309L19.2274 57.3897L19.2865 57.4478L19.3462 57.5054L19.4064 57.5623L19.4672 57.6186L19.5285 57.6743L19.5904 57.7293L19.6527 57.7837L19.7156 57.8374L19.7791 57.8906L19.8429 57.943L19.9074 57.9949L19.9723 58.046L20.0377 58.0965L20.1036 58.1463L20.17 58.1954L20.2368 58.2439L20.3041 58.2917L20.3718 58.3387L20.44 58.3852L20.5086 58.4308L20.5777 58.4759L20.6471 58.5202L20.717 58.5638L20.7873 58.6067L20.8579 58.6488L20.9291 58.6903L21.0005 58.731L21.0724 58.7711L21.1445 58.8103L21.2171 58.8489L21.29 58.8867L21.3633 58.9239L21.4369 58.9602L21.5109 58.9958L21.5851 59.0307L21.6597 59.0648L21.7346 59.0981L21.8098 59.1308L21.8853 59.1626L21.961 59.1938L22.0371 59.2241L22.1134 59.2537L22.1899 59.2825L22.2667 59.3105L22.3438 59.3378L22.4211 59.3643L22.4986 59.3901L22.5764 59.415L22.6542 59.4392L22.7325 59.4626L22.8108 59.4853L22.8893 59.5071L22.9681 59.5282L23.0469 59.5485L23.126 59.568L23.2051 59.5867L23.2845 59.6046L23.364 59.6217L23.4436 59.6381L23.5233 59.6537L23.6032 59.6684L23.6831 59.6824L23.7632 59.6956L23.8433 59.708L23.9236 59.7196L24.0039 59.7304L24.0842 59.7404L24.1646 59.7497L24.2451 59.7581L24.3256 59.7657L24.4061 59.7726L24.4867 59.7786L24.5673 59.7839L24.6479 59.7884L24.7284 59.792L24.809 59.7949L24.8895 59.797L24.9701 59.7983L25.0505 59.7988L25.131 59.7985L25.2114 59.7974L25.2917 59.7956L25.372 59.7929L25.4522 59.7895L25.5324 59.7853L25.6124 59.7803L25.6923 59.7746L25.7722 59.768L25.8519 59.7607L25.9315 59.7526L26.0109 59.7437L26.0902 59.734L26.1694 59.7236L26.2485 59.7124L26.3273 59.7004L26.406 59.6877L26.4846 59.6742L26.5629 59.6599L26.641 59.6449L26.719 59.6292L26.7967 59.6126L26.8742 59.5954L26.9515 59.5773L27.0286 59.5585L27.1054 59.539L27.182 59.5187L27.2583 59.4977L27.3344 59.476L27.4102 59.4535L27.4858 59.4303L27.561 59.4064L27.636 59.3818L27.7107 59.3564L27.7849 59.3303L27.8591 59.3035L27.9328 59.276L28.0062 59.2478L28.0793 59.2189L28.152 59.1893L28.2243 59.1589L28.2964 59.1279L28.3681 59.0962L28.4393 59.0639L28.5103 59.0308L28.5808 58.9971L28.651 58.9627L28.7208 58.9276L28.7901 58.8919L28.8591 58.8555L28.9276 58.8184L28.9957 58.7807L29.0634 58.7424L29.1306 58.7035L29.1976 58.6638L29.2638 58.6236L29.3299 58.5827L29.3953 58.5412L29.4603 58.4991L29.5248 58.4564L29.5889 58.413L29.6524 58.3691L29.7155 58.3246L29.7781 58.2795L29.8402 58.2338L29.9018 58.1874L29.9628 58.1406L30.0234 58.0931L30.0834 58.0452L30.1429 57.9966L30.202 57.9475L30.2604 57.8978L30.3182 57.8476L30.3756 57.7969L30.4324 57.7456L30.4886 57.6938L30.5443 57.6415L30.5993 57.5887L30.6539 57.5353L30.7078 57.4815L30.7612 57.4271L30.814 57.3723L30.8661 57.317L30.9176 57.2613L30.9687 57.2049L31.019 57.1483L31.0688 57.091L31.1178 57.0334L31.1664 56.9753L31.2143 56.9168L31.2615 56.8579L31.3081 56.7985L31.3541 56.7387L31.3995 56.6784L31.4441 56.6178L31.4882 56.5568L31.5317 56.4953L31.5743 56.4336L31.6165 56.3714L31.6578 56.3089L31.6986 56.2459L31.7388 56.1825L31.7781 56.1189L31.8169 56.055L31.855 55.9905L31.8923 55.9259L31.929 55.8609L31.965 55.7955L32.0003 55.73L32.0349 55.664L32.0689 55.5977L32.102 55.5313L32.1345 55.4644L32.1664 55.3973L32.1975 55.33L32.2279 55.2624L32.2576 55.1945L32.2865 55.1264L32.3148 55.058L32.3423 54.9893L32.3691 54.9207L32.3952 54.8515L32.4205 54.7823L32.4452 54.7127L32.4692 54.6431L32.4923 54.5732L32.5147 54.5033L32.5365 54.4329L32.5575 54.3626L32.5777 54.292L32.5973 54.2214L32.6161 54.1504L32.6341 54.0795L32.6514 54.0084L32.668 53.9371L32.6838 53.8657L32.6989 53.7942L32.7132 53.7227L32.7268 53.6509L32.7397 53.5793L32.7518 53.5073L32.7631 53.4354L32.7738 53.3634L32.7837 53.2913L32.7928 53.2193L32.8012 53.147L32.8088 53.075L32.8157 53.0027L32.8219 52.9306L32.8273 52.8582L32.832 52.7861L32.8359 52.7138L32.8391 52.6414L32.8415 52.5692L32.8432 52.4972L32.8442 52.4248L32.8444 52.3526L32.8439 52.2805L32.8426 52.2085L32.8406 52.1365L32.8379 52.0647L32.8344 51.9926L32.8302 51.9209L32.8252 51.8492L32.8196 51.7777L32.8132 51.7061L32.8061 51.6348L32.7982 51.5634L32.7896 51.4923L32.7803 51.4213L32.7703 51.3504L32.7595 51.2796L32.748 51.209L32.7359 51.1387L32.723 51.0683L32.7093 50.9982L32.695 50.9283L32.68 50.8585L32.6643 50.7891L32.6478 50.7196L32.6307 50.6506L32.6128 50.5815L32.5943 50.5129L32.5751 50.4444L32.5552 50.3761L32.5346 50.3081L32.5133 50.2404L32.4913 50.1728L32.4687 50.1056L32.4454 50.0385L32.4214 49.9719L32.3967 49.9053L32.3714 49.8393L32.3454 49.7733L32.3188 49.7077L32.2915 49.6425L32.2636 49.5776L32.2349 49.5128L32.2057 49.4487L32.1758 49.3845L32.1453 49.321L32.1142 49.2577L32.0823 49.1946L32.05 49.132L32.0169 49.0698L31.9832 49.0078L31.9491 48.9464L31.9142 48.8851L31.8787 48.8244L31.8426 48.764L31.806 48.7041L31.7687 48.6444L31.7309 48.5853L31.6924 48.5264L31.6534 48.4681L31.6139 48.4102L31.5737 48.3526L31.533 48.2955L31.4917 48.2389L31.4499 48.1827L31.4075 48.1269L31.3646 48.0716L31.3212 48.0167L31.2772 47.9624L31.2327 47.9085L31.1876 47.855L31.142 47.802L31.096 47.7495L31.0494 47.6975L31.0024 47.646L30.9547 47.5949L30.9068 47.5445L30.858 47.4944L30.8091 47.4449L30.7596 47.3959L30.7096 47.3475L30.6591 47.2994L30.6083 47.2521L30.5569 47.2052L30.505 47.1588L30.4529 47.113L30.4002 47.0677L30.347 47.0229L30.2934 46.9787L30.2395 46.9351L30.1852 46.892L30.1304 46.8495L30.0753 46.8077L30.0196 46.7661L29.9637 46.7254L29.9074 46.6852L29.8506 46.6455L29.7937 46.6065L29.7361 46.5679L29.6785 46.5301L29.6202 46.4928L29.5618 46.4561L29.5029 46.4199L29.4437 46.3844L29.3842 46.3495L29.3245 46.3153L29.2643 46.2815L29.204 46.2485L29.1432 46.216L29.0822 46.1842L29.021 46.153L28.9593 46.1223L28.8975 46.0923L28.8354 46.063L28.773 46.0343L28.7104 46.0062L28.6475 45.9787L28.5824 45.951L28.5212 45.9257L28.4574 45.9001L28.3938 45.8753L28.3297 45.8509L28.2655 45.8274L28.2011 45.8044L28.1365 45.7821L28.0717 45.7603L28.0068 45.7393L27.9416 45.719L27.8763 45.6992L27.8109 45.6802L27.7453 45.6618L27.6794 45.644L27.6136 45.6269L27.5477 45.6105L27.4814 45.5946L27.4153 45.5795L27.3488 45.565L27.2824 45.5512L27.2157 45.5381L27.1492 45.5256L27.0824 45.5138L27.0157 45.5026L26.9486 45.4921L26.8818 45.4823L26.8148 45.4731L26.7477 45.4646L26.6806 45.4568L26.6135 45.4496L26.5464 45.4431L26.4792 45.4372L26.4119 45.432L26.3447 45.4275L26.2776 45.4236L26.2104 45.4204L26.1431 45.4179L26.0761 45.416L26.0089 45.4148L25.9418 45.4142L25.8747 45.4143L25.8612 45.4145L25.8824 47.2015L25.9205 47.2013L25.9695 47.2016L26.0186 47.2023L26.0677 47.2036L26.1168 47.2053L26.1659 47.2075L26.2151 47.2102L26.2643 47.2134L26.3134 47.2171L26.3626 47.2213L26.4118 47.226L26.4609 47.2311L26.5101 47.2368L26.5593 47.2429L26.6084 47.2495L26.6574 47.2566L26.7065 47.2642L26.7555 47.2723L26.8045 47.2809L26.8534 47.29L26.9022 47.2995L26.9511 47.3096L26.9998 47.3201L27.0485 47.3312L27.0971 47.3427L27.1456 47.3547L27.194 47.3672L27.2423 47.3802L27.2906 47.3937L27.3387 47.4076L27.3868 47.4221L27.4347 47.437L27.4825 47.4524L27.5302 47.4683L27.5778 47.4847L27.6252 47.5016L27.6725 47.519L27.7196 47.5368L27.7667 47.5551L27.8135 47.5739L27.8602 47.5932L27.9067 47.6129L27.9531 47.6331L27.9993 47.6538L28.0453 47.675L28.0911 47.6966L28.1368 47.7187L28.1823 47.7413L28.2275 47.7644L28.2726 47.7879L28.3174 47.8118L28.3621 47.8363L28.4065 47.8611L28.4507 47.8865L28.4947 47.9123L28.5384 47.9386L28.5819 47.9653L28.6252 47.9924L28.6682 48.0201L28.7109 48.0481L28.7534 48.0766L28.7957 48.1055L28.8377 48.1349L28.8794 48.1647L28.9208 48.195L28.962 48.2257L29.0029 48.2568L29.0434 48.2883L29.0837 48.3203L29.1237 48.3527L29.1634 48.3855L29.2027 48.4187L29.2418 48.4523L29.2806 48.4864L29.319 48.5208L29.3571 48.5557L29.3949 48.591L29.4323 48.6266L29.4694 48.6627L29.5061 48.6992L29.5425 48.736L29.5786 48.7733L29.6143 48.8108L29.6496 48.8489L29.6846 48.8872L29.7192 48.926L29.7534 48.9651L29.7873 49.0046L29.8207 49.0444L29.8538 49.0846L29.8865 49.1252L29.9188 49.1661L29.9507 49.2074L29.9822 49.249L30.0133 49.291L30.044 49.3333L30.0743 49.3759L30.1041 49.4189L30.1336 49.4622L30.1625 49.5058L30.1911 49.5497L30.2193 49.594L30.247 49.6385L30.2743 49.6834L30.3011 49.7285L30.3275 49.774L30.3534 49.8197L30.3789 49.8658L30.4039 49.9121L30.4285 49.9587L30.4526 50.0056L30.4763 50.0528L30.4994 50.1003L30.5222 50.1479L30.5444 50.1959L30.5661 50.2441L30.5874 50.2925L30.6082 50.3413L30.6285 50.3902L30.6483 50.4394L30.6676 50.4888L30.6864 50.5384L30.7047 50.5883L30.7225 50.6384L30.7399 50.6887L30.7567 50.7392L30.773 50.7899L30.7888 50.8408L30.8041 50.8919L30.8189 50.9432L30.8331 50.9946L30.8468 51.0463L30.8601 51.0981L30.8727 51.1501L30.8849 51.2022L30.8965 51.2545L30.9076 51.307L30.9182 51.3596L30.9282 51.4123L30.9377 51.4653L30.9466 51.5183L30.9551 51.5714L30.9629 51.6247L30.9702 51.678L30.977 51.7315L30.9833 51.7851L30.9889 51.8389L30.9941 51.8926L30.9987 51.9465L31.0027 52.0005L31.0062 52.0545L31.0091 52.1086L31.0115 52.1628L31.0134 52.2171L31.0146 52.2714L31.0153 52.3258L31.0155 52.3802L31.015 52.4346L31.0141 52.4891L31.0125 52.5436L31.0104 52.5981L31.0077 52.6527L31.0045 52.7072L31.0007 52.7618L30.9964 52.8164L30.9914 52.8709L30.986 52.9255L30.9799 52.98L30.9733 53.0346L30.9661 53.089L30.9583 53.1435L30.95 53.1979L30.9411 53.2523L30.9317 53.3066L30.9216 53.3609L30.9111 53.4152L30.8999 53.4693L30.8882 53.5234L30.8759 53.5774L30.863 53.6313L30.8496 53.6851L30.8356 53.7389L30.8211 53.7925L30.806 53.846L30.7903 53.8994L30.7741 53.9527L30.7573 54.0059L30.7399 54.059L30.722 54.1119L30.7036 54.1647L30.6846 54.2173L30.665 54.2698L30.6448 54.3221L30.6242 54.3742L30.603 54.4262L30.5812 54.4781L30.5588 54.5297L30.536 54.5812L30.5125 54.6325L30.4885 54.6835L30.4641 54.7344L30.439 54.7851L30.4134 54.8355L30.3872 54.8858L30.3606 54.9358L30.3334 54.9855L30.3056 55.0351L30.2774 55.0844L30.2486 55.1335L30.2193 55.1823L30.1895 55.2309L30.1591 55.2792L30.1282 55.3272L30.0969 55.375L30.0649 55.4225L30.0325 55.4697L29.9996 55.5166L29.9662 55.5632L29.9322 55.6096L29.8978 55.6556L29.8629 55.7013L29.8275 55.7467L29.7916 55.7918L29.7551 55.8366L29.7182 55.881L29.6809 55.9251L29.643 55.9689L29.6047 56.0123L29.5659 56.0554L29.5266 56.0981L29.4869 56.1405L29.4467 56.1825L29.406 56.2241L29.3649 56.2654L29.3233 56.3063L29.2813 56.3468L29.2388 56.3869L29.196 56.4266L29.1526 56.466L29.1088 56.5049L29.0646 56.5434L29.02 56.5816L28.975 56.6192L28.9295 56.6566L28.8836 56.6934L28.8373 56.7298L28.7906 56.7658L28.7435 56.8014L28.696 56.8365L28.6481 56.8712L28.5998 56.9055L28.5511 56.9392L28.5021 56.9726L28.4526 57.0054L28.4028 57.0378L28.3527 57.0698L28.3022 57.1012L28.2513 57.1322L28.2001 57.1627L28.1485 57.1927L28.0966 57.2222L28.0443 57.2513L27.9917 57.2798L27.9388 57.3079L27.8855 57.3354L27.8319 57.3624L27.7781 57.3889L27.7239 57.415L27.6694 57.4405L27.6146 57.4654L27.5595 57.4899L27.5041 57.5138L27.4485 57.5372L27.3925 57.5601L27.3364 57.5824L27.2799 57.6042L27.2232 57.6255L27.1662 57.6462L27.1089 57.6663L27.0514 57.6859L26.9937 57.705L26.9358 57.7235L26.8776 57.7414L26.8192 57.7588L26.7606 57.7756L26.7018 57.7919L26.6427 57.8075L26.5835 57.8226L26.5241 57.8372L26.4645 57.8511L26.4046 57.8645L26.3447 57.8773L26.2845 57.8895L26.2242 57.9012L26.1637 57.9123L26.1031 57.9227L26.0423 57.9326L25.9814 57.9418L25.9204 57.9505L25.8592 57.9586L25.7979 57.9662L25.7365 57.973L25.675 57.9793L25.6134 57.985L25.5516 57.9901L25.4898 57.9946L25.4279 57.9985L25.3659 58.0018L25.3039 58.0044L25.2418 58.0065L25.1796 58.008L25.1173 58.0088L25.055 58.009L24.9927 58.0087L24.9304 58.0076L24.868 58.006L24.8056 58.0038L24.7431 58.0009L24.6807 57.9975L24.6183 57.9934L24.5558 57.9887L24.4934 57.9834L24.431 57.9775L24.3685 57.9709L24.3062 57.9638L24.2439 57.956L24.1815 57.9476L24.1193 57.9386L24.0571 57.9289L23.995 57.9187L23.9329 57.9078L23.8709 57.8964L23.809 57.8842L23.7472 57.8715L23.6854 57.8582L23.6238 57.8442L23.5623 57.8296L23.5009 57.8144L23.4396 57.7986L23.3784 57.7822L23.3173 57.7652L23.2564 57.7476L23.1957 57.7294L23.135 57.7105L23.0746 57.691L23.0143 57.671L22.9541 57.6503L22.8942 57.629L22.8344 57.6071L22.7748 57.5847L22.7154 57.5616L22.6563 57.5379L22.5973 57.5136L22.5385 57.4887L22.48 57.4633L22.4217 57.4372L22.3635 57.4105L22.3057 57.3833L22.2481 57.3555L22.1907 57.3271L22.1336 57.2981L22.0768 57.2686L22.0202 57.2384L21.9639 57.2077L21.9079 57.1764L21.8522 57.1445L21.7967 57.1121L21.7416 57.0791L21.6868 57.0455L21.6323 57.0115L21.5781 56.9768L21.5242 56.9416L21.4707 56.9057L21.4175 56.8694L21.3646 56.8326L21.3121 56.7952L21.2599 56.7572L21.2081 56.7187L21.1566 56.6797L21.1056 56.6401L21.0549 56.6001L21.0046 56.5594L20.9547 56.5184L20.9051 56.4767L20.856 56.4346L20.8073 56.3919L20.7589 56.3487L20.711 56.3051L20.6635 56.2609L20.6165 56.2163L20.5698 56.1711L20.5236 56.1255L20.4779 56.0794L20.4326 56.0328L20.3877 55.9857L20.3433 55.9382L20.2994 55.8902L20.2559 55.8417L20.2129 55.7928L20.1704 55.7435L20.1283 55.6937L20.0868 55.6434L20.0457 55.5927L20.0052 55.5416L19.9651 55.49L19.9255 55.438L19.8865 55.3856L19.8479 55.3328L19.8099 55.2796L19.7725 55.226L19.7355 55.1719L19.6991 55.1175L19.6632 55.0627L19.6278 55.0075L19.5931 54.9519L19.5588 54.8959L19.5251 54.8396L19.492 54.7829L19.4594 54.7258L19.4274 54.6685L19.396 54.6107L19.3651 54.5526L19.3349 54.4942L19.3052 54.4354L19.2761 54.3763L19.2475 54.3169L19.2196 54.2572L19.1923 54.1971L19.1656 54.1368L19.1395 54.0761L19.114 54.0152L19.0891 53.954L19.0648 53.8925L19.0411 53.8307L19.0181 53.7687L18.9956 53.7064L18.9739 53.6438L18.9527 53.581L18.9322 53.5179L18.9123 53.4546L18.893 53.3911L18.8744 53.3273L18.8564 53.2634L18.8391 53.1992L18.8224 53.1348L18.8064 53.0702L18.7911 53.0054L18.7764 52.9404L18.7623 52.8752L18.7489 52.8099L18.7362 52.7444L18.7241 52.6787L18.7128 52.6129L18.702 52.5469L18.692 52.4808L18.6826 52.4146L18.6739 52.3482L18.6659 52.2817L18.6586 52.215L18.6519 52.1483L18.6459 52.0815L18.6406 52.0145L18.636 51.9475L18.6321 51.8804L18.6289 51.8132L18.6263 51.746L18.6245 51.6786L18.6233 51.6113L18.6228 51.5438L18.623 51.4763L18.6239 51.4088L18.6255 51.3413L18.6278 51.2738L18.6308 51.2062L18.6345 51.1386L18.6389 51.071L18.644 51.0034L18.6498 50.9358L18.6563 50.8683L18.6634 50.8008L18.6713 50.7333L18.6799 50.6658L18.6892 50.5984L18.6991 50.531L18.7098 50.4638L18.7212 50.3965L18.7332 50.3294L18.746 50.2623L18.7594 50.1953L18.7736 50.1284L18.7884 50.0616L18.804 49.995L18.8202 49.9284L18.8371 49.862L18.8547 49.7957L18.8731 49.7295L18.8921 49.6634L18.9117 49.5976L18.9321 49.5318L18.9532 49.4662L18.9749 49.4009L18.9974 49.3356L19.0205 49.2706L19.0443 49.2058L19.0688 49.1411L19.0939 49.0767L19.1197 49.0124L19.1463 48.9484L19.1734 48.8847L19.2013 48.8211L19.2298 48.7578L19.259 48.6947L19.2888 48.6319L19.3193 48.5693L19.3505 48.507L19.3823 48.445L19.4148 48.3833L19.4479 48.3218L19.4817 48.2607L19.5161 48.1998L19.5512 48.1392L19.5869 48.079L19.6233 48.019L19.6603 47.9594L19.6979 47.9001L19.7361 47.8412L19.775 47.7826L19.8145 47.7243L19.8547 47.6665L19.8954 47.6089L19.9367 47.5517L19.9787 47.495L20.0212 47.4385L20.0644 47.3825L20.1082 47.3269L20.1526 47.2717L20.1975 47.2169L20.243 47.1625L20.2892 47.1085L20.3359 47.0549L20.3832 47.0018L20.431 46.9491L20.4794 46.8968L20.5284 46.845L20.578 46.7936L20.6281 46.7428L20.6787 46.6923L20.7299 46.6423L20.7816 46.5929L20.8339 46.5438L20.8867 46.4953L20.94 46.4473L20.9939 46.3998L21.0482 46.3527L21.1031 46.3062L21.1585 46.2602L21.2144 46.2147L21.2708 46.1698L21.3277 46.1253L21.385 46.0814L21.4429 46.0381L21.5012 45.9953L21.56 45.953L21.6192 45.9113L21.679 45.8702L21.7391 45.8296L21.7997 45.7896L21.8608 45.7501L21.9223 45.7113L21.9843 45.673L22.0466 45.6353L22.1094 45.5982L22.1726 45.5617L22.2362 45.5258L22.3002 45.4906L22.3646 45.4559L22.4294 45.4218L22.4946 45.3884L22.5601 45.3555L22.6261 45.3233L22.6924 45.2918L22.759 45.2608L22.826 45.2305L22.8934 45.2009L22.9611 45.1719L23.0291 45.1435L23.0975 45.1158L23.1661 45.0888L23.2351 45.0624L23.3044 45.0367L23.374 45.0116L23.4439 44.9872L23.5141 44.9635L23.5845 44.9405L23.6552 44.9181L23.7263 44.8964L23.7975 44.8755L23.869 44.8552L23.9408 44.8356L24.0128 44.8166L24.085 44.7984L24.1575 44.7809L24.2301 44.7641L24.303 44.748L24.3761 44.7326L24.4493 44.7179L24.5228 44.7039L24.5965 44.6907L24.6703 44.6781L24.7443 44.6663L24.8185 44.6552L24.8927 44.6448L24.9672 44.6351L24.9949 44.6318ZM25.0264 47.2823L25.005 45.4757L24.9439 45.4842L24.8783 45.494L24.8127 45.5045L24.7475 45.5156L24.6822 45.5273L24.6172 45.5397L24.5523 45.5527L24.4877 45.5663L24.4233 45.5806L24.3589 45.5955L24.2948 45.611L24.2309 45.6271L24.1671 45.6438L24.1058 45.6606L24.0405 45.6791L23.9774 45.6977L23.9146 45.7169L23.8522 45.7366L23.7898 45.757L23.7277 45.778L23.6659 45.7995L23.6045 45.8216L23.5432 45.8444L23.4822 45.8677L23.4215 45.8916L23.3613 45.9161L23.301 45.9412L23.2412 45.9668L23.1817 45.993L23.1226 46.0197L23.0636 46.0471L23.005 46.075L22.9469 46.1034L22.8889 46.1324L22.8314 46.1619L22.7741 46.1921L22.7174 46.2226L22.6607 46.2539L22.6046 46.2855L22.5489 46.3177L22.4934 46.3505L22.4384 46.3837L22.3836 46.4175L22.3295 46.4518L22.2755 46.4866L22.2221 46.5219L22.169 46.5577L22.1163 46.594L22.0639 46.6308L22.0122 46.668L21.9607 46.7058L21.9097 46.7441L21.8591 46.7828L21.8089 46.8219L21.7592 46.8616L21.7099 46.9017L21.6611 46.9422L21.6127 46.9833L21.5649 47.0247L21.5173 47.0666L21.4703 47.109L21.4238 47.1517L21.3778 47.1949L21.3321 47.2385L21.2871 47.2825L21.2425 47.3269L21.1983 47.3718L21.1547 47.417L21.1115 47.4627L21.0689 47.5087L21.0268 47.5551L20.9851 47.6019L20.9439 47.6491L20.9034 47.6965L20.8633 47.7445L20.8237 47.7927L20.7847 47.8413L20.7462 47.8902L20.7081 47.9396L20.6707 47.9892L20.6338 48.0392L20.5974 48.0895L20.5615 48.1401L20.5263 48.191L20.4915 48.2422L20.4573 48.2938L20.4237 48.3457L20.3906 48.3977L20.3581 48.4501L20.3261 48.5029L20.2947 48.5559L20.2639 48.6091L20.2336 48.6626L20.204 48.7163L20.1748 48.7704L20.1462 48.8247L20.1183 48.8791L20.0909 48.9339L20.0641 48.9889L20.0379 49.044L20.0123 49.0995L19.9872 49.155L19.9628 49.2109L19.9389 49.2669L19.9156 49.3231L19.893 49.3795L19.8708 49.4361L19.8493 49.4928L19.8285 49.5497L19.8081 49.6069L19.7885 49.664L19.7694 49.7215L19.7509 49.779L19.733 49.8367L19.7158 49.8945L19.6991 49.9524L19.683 50.0104L19.6676 50.0686L19.6527 50.1269L19.6385 50.1853L19.6249 50.2438L19.6118 50.3023L19.5994 50.361L19.5876 50.4197L19.5764 50.4785L19.5659 50.5374L19.5559 50.5963L19.5466 50.6553L19.5378 50.7143L19.5297 50.7734L19.5222 50.8325L19.5153 50.8916L19.509 50.9507L19.5033 51.0099L19.4983 51.0691L19.4938 51.1283L19.49 51.1875L19.4867 51.2467L19.4841 51.3058L19.4821 51.365L19.4807 51.4241L19.4799 51.4832L19.4797 51.5423L19.4801 51.6013L19.4811 51.6602L19.4828 51.7191L19.485 51.7779L19.4878 51.8368L19.4913 51.8955L19.4953 51.9541L19.4999 52.0126L19.5052 52.0711L19.511 52.1294L19.5174 52.1877L19.5244 52.2459L19.532 52.3039L19.5402 52.3618L19.549 52.4196L19.5584 52.4772L19.5683 52.5348L19.5788 52.5922L19.59 52.6494L19.6017 52.7065L19.6139 52.7634L19.6268 52.8202L19.6402 52.8767L19.6542 52.9332L19.6687 52.9894L19.6839 53.0455L19.6995 53.1013L19.7158 53.157L19.7326 53.2124L19.75 53.2677L19.7679 53.3228L19.7864 53.3776L19.8054 53.4321L19.8249 53.4865L19.845 53.5406L19.8657 53.5945L19.8869 53.6482L19.9086 53.7016L19.9308 53.7547L19.9536 53.8076L19.9769 53.8602L20.0007 53.9126L20.0251 53.9646L20.05 54.0164L20.0753 54.0679L20.1012 54.1191L20.1276 54.1701L20.1544 54.2207L20.1818 54.271L20.2097 54.321L20.2381 54.3707L20.2669 54.4201L20.2963 54.4692L20.3261 54.5179L20.3564 54.5663L20.3872 54.6144L20.4185 54.6622L20.4501 54.7095L20.4823 54.7565L20.5149 54.8032L20.548 54.8495L20.5815 54.8955L20.6155 54.9411L20.6499 54.9863L20.6848 55.0312L20.7201 55.0756L20.7558 55.1197L20.7919 55.1634L20.8285 55.2068L20.8655 55.2497L20.9029 55.2922L20.9406 55.3343L20.9788 55.3761L21.0174 55.4174L21.0564 55.4583L21.0958 55.4988L21.1356 55.5388L21.1757 55.5785L21.2162 55.6177L21.2571 55.6565L21.2983 55.6948L21.34 55.7328L21.3819 55.7703L21.4242 55.8073L21.4669 55.8439L21.5099 55.88L21.5533 55.9157L21.5969 55.951L21.6409 55.9857L21.6852 56.0201L21.7299 56.054L21.7749 56.0873L21.8201 56.1202L21.8656 56.1527L21.9115 56.1847L21.9576 56.2162L22.0041 56.2472L22.0508 56.2778L22.0978 56.3078L22.1451 56.3374L22.1926 56.3665L22.2403 56.3951L22.2884 56.4232L22.3367 56.4508L22.3852 56.4779L22.4339 56.5045L22.483 56.5306L22.5322 56.5563L22.5816 56.5813L22.6313 56.606L22.6813 56.63L22.7313 56.6537L22.7816 56.6767L22.8321 56.6993L22.8828 56.7213L22.9336 56.7428L22.9847 56.7639L23.0359 56.7843L23.0873 56.8043L23.1388 56.8237L23.1906 56.8427L23.2424 56.8611L23.2944 56.879L23.3466 56.8964L23.3988 56.9131L23.4513 56.9295L23.5038 56.9452L23.5564 56.9605L23.6092 56.9752L23.6621 56.9893L23.715 57.003L23.7681 57.0161L23.8213 57.0287L23.8745 57.0408L23.9279 57.0523L23.9812 57.0633L24.0347 57.0737L24.0883 57.0836L24.1418 57.093L24.1955 57.1019L24.2491 57.1102L24.3029 57.118L24.3566 57.1253L24.4104 57.132L24.4642 57.1382L24.518 57.1438L24.5719 57.1489L24.6257 57.1535L24.6796 57.1575L24.7335 57.1611L24.7873 57.164L24.8411 57.1665L24.8949 57.1684L24.9487 57.1698L25.0024 57.1707L25.0561 57.171L25.1098 57.1708L25.1634 57.17L25.217 57.1688L25.2705 57.1671L25.324 57.1648L25.3773 57.1619L25.4306 57.1586L25.4838 57.1547L25.537 57.1503L25.59 57.1454L25.643 57.14L25.6959 57.134L25.7486 57.1276L25.8013 57.1206L25.8538 57.1132L25.9062 57.1052L25.9584 57.0967L26.0105 57.0877L26.0626 57.0782L26.1144 57.0682L26.1661 57.0577L26.2177 57.0467L26.2691 57.0352L26.3203 57.0232L26.3714 57.0107L26.4223 56.9977L26.473 56.9842L26.5235 56.9703L26.5739 56.9558L26.6241 56.9409L26.674 56.9255L26.7237 56.9096L26.7733 56.8933L26.8227 56.8764L26.8718 56.8591L26.9207 56.8414L26.9694 56.8231L27.0178 56.8044L27.066 56.7853L27.114 56.7656L27.1618 56.7456L27.2092 56.725L27.2565 56.7041L27.3034 56.6827L27.3502 56.6608L27.3967 56.6385L27.4428 56.6158L27.4888 56.5926L27.5344 56.569L27.5797 56.545L27.6247 56.5205L27.6695 56.4957L27.714 56.4704L27.7582 56.4447L27.8021 56.4185L27.8456 56.392L27.8888 56.3651L27.9318 56.3377L27.9744 56.3101L28.0167 56.2819L28.0587 56.2534L28.1003 56.2245L28.1416 56.1952L28.1826 56.1655L28.2232 56.1355L28.2635 56.1051L28.3035 56.0743L28.3429 56.0432L28.3823 56.0116L28.4212 55.9798L28.4596 55.9476L28.4978 55.9149L28.5355 55.882L28.5729 55.8488L28.61 55.8151L28.6466 55.7813L28.6828 55.747L28.7188 55.7124L28.7542 55.6775L28.7893 55.6423L28.824 55.6068L28.8584 55.5709L28.8922 55.5348L28.9257 55.4983L28.9589 55.4615L28.9915 55.4246L29.0239 55.3872L29.0557 55.3496L29.0871 55.3117L29.1182 55.2735L29.1488 55.2351L29.179 55.1964L29.2088 55.1574L29.2381 55.1181L29.267 55.0787L29.2955 55.039L29.3236 54.999L29.3511 54.9588L29.3783 54.9184L29.4051 54.8776L29.4313 54.8368L29.4572 54.7957L29.4826 54.7543L29.5075 54.7128L29.532 54.671L29.5561 54.629L29.5796 54.587L29.6028 54.5445L29.6255 54.502L29.6476 54.4593L29.6695 54.4163L29.6907 54.3734L29.7116 54.33L29.7319 54.2868L29.7519 54.2431L29.7713 54.1994L29.7903 54.1554L29.8088 54.1115L29.8268 54.0674L29.8444 54.023L29.8615 53.9786L29.878 53.9341L29.8943 53.8894L29.9099 53.8446L29.9251 53.7997L29.9398 53.7547L29.9541 53.7095L29.9679 53.6643L29.9811 53.619L29.9939 53.5736L30.0062 53.5282L30.0181 53.4826L30.0295 53.4369L30.0404 53.3913L30.0508 53.3454L30.0607 53.2996L30.0702 53.2538L30.0791 53.2079L30.0876 53.1619L30.0956 53.1158L30.1032 53.0698L30.1102 53.0237L30.1168 52.9776L30.1228 52.9315L30.1285 52.8854L30.1336 52.8391L30.1382 52.7931L30.1424 52.7468L30.1461 52.7007L30.1493 52.6546L30.1521 52.6084L30.1543 52.5623L30.1561 52.5163L30.1574 52.4701L30.1582 52.4242L30.1586 52.3781L30.1584 52.3321L30.1579 52.2862L30.1568 52.2404L30.1552 52.1945L30.1532 52.1487L30.1508 52.1032L30.1478 52.0574L30.1444 52.0119L30.1406 51.9665L30.1362 51.921L30.1314 51.8758L30.1261 51.8305L30.1204 51.7854L30.1142 51.7404L30.1076 51.6954L30.1005 51.6506L30.093 51.606L30.085 51.5614L30.0765 51.517L30.0676 51.4726L30.0582 51.4284L30.0485 51.3844L30.0382 51.3405L30.0275 51.2966L30.0164 51.2531L30.0048 51.2095L29.9929 51.1663L29.9804 51.1231L29.9676 51.0802L29.9543 51.0373L29.9406 50.9946L29.9264 50.9522L29.9119 50.9099L29.8968 50.8677L29.8815 50.8259L29.8657 50.7841L29.8494 50.7426L29.8328 50.7013L29.8157 50.6601L29.7983 50.6193L29.7804 50.5785L29.7621 50.5381L29.7435 50.4978L29.7244 50.4577L29.7049 50.4178L29.6851 50.3783L29.6649 50.3389L29.6443 50.2999L29.6233 50.2611L29.6019 50.2223L29.5802 50.184L29.558 50.1459L29.5355 50.1081L29.5126 50.0704L29.4895 50.0331L29.4658 49.9959L29.4419 49.9592L29.4176 49.9227L29.393 49.8865L29.3679 49.8504L29.3426 49.8147L29.317 49.7794L29.2909 49.7442L29.2645 49.7094L29.2378 49.6748L29.2109 49.6407L29.1835 49.6067L29.1558 49.5731L29.1278 49.5397L29.0995 49.5067L29.0709 49.474L29.042 49.4416L29.0128 49.4096L28.9832 49.3778L28.9535 49.3465L28.9233 49.3153L28.893 49.2845L28.8622 49.254L28.8312 49.224L28.8001 49.1942L28.7685 49.1648L28.7367 49.1356L28.7046 49.1069L28.6723 49.0786L28.6396 49.0504L28.607 49.0228L28.5738 48.9954L28.5405 48.9684L28.5069 48.9418L28.4731 48.9154L28.439 48.8895L28.4049 48.8641L28.3703 48.8388L28.3354 48.8139L28.3006 48.7895L28.2653 48.7654L28.23 48.7417L28.1945 48.7184L28.1586 48.6954L28.1226 48.6727L28.0865 48.6506L28.05 48.6287L28.0135 48.6073L27.9767 48.5861L27.9399 48.5655L27.9028 48.5452L27.8655 48.5253L27.828 48.5057L27.7905 48.4867L27.7527 48.4679L27.7147 48.4495L27.6767 48.4315L27.6386 48.414L27.6001 48.3968L27.5617 48.38L27.5231 48.3637L27.4843 48.3476L27.4455 48.332L27.4066 48.3169L27.3675 48.3021L27.3282 48.2877L27.2889 48.2737L27.2495 48.2601L27.2099 48.247L27.1704 48.2342L27.1307 48.2218L27.091 48.2099L27.051 48.1983L27.0111 48.1872L26.9712 48.1764L26.9311 48.1661L26.891 48.1561L26.8507 48.1466L26.8105 48.1375L26.7703 48.1288L26.7299 48.1204L26.6894 48.1125L26.6491 48.1051L26.6086 48.098L26.5681 48.0913L26.5275 48.085L26.4871 48.0791L26.4464 48.0736L26.406 48.0686L26.3654 48.0639L26.3248 48.0597L26.2843 48.0558L26.2436 48.0524L26.2032 48.0493L26.1625 48.0467L26.122 48.0445L26.0816 48.0426L26.041 48.0412L26.0006 48.0402L25.9602 48.0396L25.9199 48.0393L25.8923 48.0394L25.9132 49.8045L25.9257 49.8046L25.9489 49.8049L25.9721 49.8055L25.9954 49.8062L26.0187 49.8073L26.042 49.8086L26.0653 49.8101L26.0887 49.8118L26.1121 49.8138L26.1355 49.8161L26.1589 49.8186L26.1823 49.8213L26.2058 49.8243L26.2292 49.8275L26.2527 49.831L26.2762 49.8347L26.2996 49.8387L26.3231 49.8429L26.3465 49.8474L26.37 49.852L26.3934 49.857L26.4168 49.8622L26.4402 49.8677L26.4636 49.8734L26.4869 49.8793L26.5103 49.8856L26.5336 49.892L26.5568 49.8987L26.5801 49.9057L26.6033 49.9129L26.6264 49.9203L26.6495 49.9281L26.6726 49.936L26.6956 49.9442L26.7186 49.9527L26.7415 49.9613L26.7644 49.9703L26.7872 49.9795L26.8099 49.9889L26.8326 49.9986L26.8552 50.0086L26.8777 50.0188L26.9002 50.0292L26.9226 50.0399L26.9449 50.0508L26.9672 50.062L26.9893 50.0734L27.0114 50.0851L27.0333 50.097L27.0552 50.1091L27.077 50.1215L27.0987 50.1341L27.1203 50.147L27.1418 50.1601L27.1631 50.1735L27.1844 50.1871L27.2055 50.2009L27.2266 50.215L27.2475 50.2293L27.2683 50.2439L27.289 50.2587L27.3096 50.2737L27.33 50.2889L27.3503 50.3044L27.3704 50.3201L27.3905 50.336L27.4104 50.3522L27.4301 50.3686L27.4497 50.3852L27.4692 50.402L27.4885 50.4191L27.5077 50.4364L27.5266 50.4539L27.5455 50.4717L27.5641 50.4896L27.5827 50.5078L27.601 50.5262L27.6192 50.5448L27.6373 50.5636L27.6551 50.5826L27.6727 50.6019L27.6902 50.6213L27.7076 50.641L27.7247 50.6608L27.7416 50.6809L27.7584 50.7011L27.7749 50.7216L27.7913 50.7423L27.8075 50.7631L27.8235 50.7842L27.8393 50.8054L27.8548 50.8269L27.8702 50.8485L27.8854 50.8703L27.9003 50.8923L27.9151 50.9146L27.9296 50.9369L27.944 50.9595L27.958 50.9822L27.9719 51.0051L27.9856 51.0282L27.999 51.0514L28.0122 51.0749L28.0252 51.0985L28.0379 51.1222L28.0505 51.1462L28.0627 51.1702L28.0748 51.1945L28.0866 51.2189L28.0981 51.2435L28.1094 51.2681L28.1205 51.293L28.1313 51.318L28.1419 51.3432L28.1522 51.3685L28.1623 51.3939L28.1721 51.4195L28.1817 51.4452L28.191 51.4711L28.2 51.4971L28.2088 51.5231L28.2173 51.5494L28.2256 51.5757L28.2335 51.6022L28.2413 51.6288L28.2487 51.6555L28.2559 51.6823L28.2628 51.7093L28.2694 51.7363L28.2758 51.7635L28.2818 51.7907L28.2876 51.8181L28.2932 51.8456L28.2983 51.873L28.3033 51.9007L28.308 51.9284L28.3124 51.9562L28.3164 51.9841L28.3202 52.0121L28.3237 52.0401L28.327 52.0683L28.3299 52.0965L28.3325 52.1247L28.3349 52.153L28.3369 52.1815L28.3386 52.2099L28.3401 52.2384L28.3412 52.267L28.3421 52.2956L28.3426 52.3243L28.3429 52.353L28.3428 52.3817L28.3425 52.4105L28.3418 52.4393L28.3408 52.4682L28.3396 52.4971L28.338 52.526L28.3361 52.5549L28.3339 52.5838L28.3314 52.6128L28.3286 52.6418L28.3255 52.6708L28.3221 52.6998L28.3183 52.7288L28.3143 52.7578L28.3099 52.7868L28.3053 52.8158L28.3003 52.8448L28.295 52.8738L28.2894 52.9028L28.2835 52.9317L28.2772 52.9607L28.2707 52.9896L28.2638 53.0184L28.2566 53.0473L28.2492 53.0761L28.2414 53.1049L28.2333 53.1337L28.2249 53.1623L28.2161 53.191L28.2071 53.2196L28.1977 53.2481L28.1881 53.2766L28.1781 53.305L28.1678 53.3334L28.1572 53.3617L28.1463 53.3899L28.135 53.4181L28.1235 53.4461L28.1117 53.4742L28.0995 53.5021L28.087 53.5299L28.0743 53.5577L28.0612 53.5853L28.0477 53.6129L28.0341 53.6403L28.0201 53.6677L28.0058 53.6949L27.9911 53.722L27.9762 53.7491L27.961 53.776L27.9455 53.8028L27.9297 53.8295L27.9136 53.856L27.8971 53.8825L27.8804 53.9087L27.8634 53.9349L27.8461 53.9609L27.8285 53.9868L27.8106 54.0125L27.7924 54.0381L27.7739 54.0635L27.7551 54.0888L27.736 54.1139L27.7167 54.1389L27.6971 54.1637L27.6771 54.1884L27.6569 54.2128L27.6365 54.2371L27.6157 54.2612L27.5946 54.2852L27.5733 54.3089L27.5517 54.3325L27.5298 54.3559L27.5077 54.3791L27.4853 54.4022L27.4626 54.425L27.4396 54.4476L27.4164 54.47L27.3929 54.4922L27.3692 54.5142L27.3452 54.536L27.3209 54.5576L27.2964 54.5789L27.2716 54.6001L27.2466 54.621L27.2213 54.6417L27.1958 54.6622L27.1701 54.6824L27.1441 54.7024L27.1178 54.7221L27.0913 54.7417L27.0646 54.7609L27.0376 54.78L27.0105 54.7988L26.983 54.8173L26.9554 54.8357L26.9275 54.8537L26.8994 54.8715L26.8711 54.889L26.8426 54.9063L26.8138 54.9232L26.7849 54.94L26.7557 54.9564L26.7263 54.9726L26.6968 54.9885L26.667 55.0042L26.637 55.0195L26.6068 55.0346L26.5765 55.0494L26.5459 55.0639L26.5151 55.0781L26.4842 55.0921L26.4531 55.1057L26.4218 55.119L26.3903 55.1321L26.3587 55.1448L26.3269 55.1572L26.2949 55.1694L26.2627 55.1812L26.2304 55.1928L26.198 55.204L26.1653 55.2149L26.1325 55.2255L26.0996 55.2357L26.0666 55.2457L26.0333 55.2554L26 55.2647L25.9665 55.2737L25.9329 55.2823L25.8992 55.2907L25.8653 55.2987L25.8313 55.3064L25.7971 55.3138L25.7629 55.3208L25.7286 55.3275L25.6941 55.3339L25.6595 55.3399L25.6249 55.3456L25.5901 55.3509L25.5552 55.3559L25.5203 55.3606L25.4853 55.3649L25.4501 55.3689L25.4149 55.3725L25.3796 55.3758L25.3443 55.3787L25.3089 55.3814L25.2733 55.3836L25.2378 55.3855L25.2022 55.387L25.1665 55.3882L25.1307 55.389L25.095 55.3894L25.0591 55.3896L25.0233 55.3894L24.9874 55.3887L24.9514 55.3878L24.9155 55.3865L24.8795 55.3848L24.8434 55.3827L24.8074 55.3803L24.7713 55.3776L24.7353 55.3744L24.6992 55.3709L24.6631 55.3671L24.627 55.3628L24.591 55.3583L24.5549 55.3533L24.5189 55.348L24.4828 55.3423L24.4468 55.3363L24.4108 55.3299L24.3749 55.3231L24.3389 55.316L24.303 55.3085L24.2671 55.3006L24.2313 55.2923L24.1956 55.2837L24.1598 55.2748L24.1241 55.2655L24.0885 55.2557L24.053 55.2457L24.0175 55.2353L23.9821 55.2245L23.9467 55.2133L23.9115 55.2018L23.8763 55.1899L23.8412 55.1777L23.8062 55.165L23.7713 55.152L23.7365 55.1387L23.7018 55.125L23.6672 55.1109L23.6327 55.0965L23.5983 55.0818L23.564 55.0666L23.5298 55.0511L23.4959 55.0353L23.4619 55.0191L23.4282 55.0025L23.3945 54.9856L23.3611 54.9683L23.3277 54.9507L23.2945 54.9328L23.2615 54.9144L23.2286 54.8958L23.1958 54.8768L23.1633 54.8574L23.1309 54.8377L23.0987 54.8177L23.0666 54.7973L23.0347 54.7766L23.003 54.7555L22.9715 54.7341L22.9402 54.7123L22.9091 54.6903L22.8781 54.6679L22.8474 54.6451L22.8169 54.622L22.7866 54.5987L22.7565 54.5749L22.7266 54.5509L22.6969 54.5265L22.6675 54.5018L22.6383 54.4768L22.6093 54.4515L22.5805 54.4259L22.552 54.3999L22.5237 54.3736L22.4957 54.3471L22.4679 54.3202L22.4403 54.293L22.413 54.2655L22.386 54.2378L22.3592 54.2097L22.3327 54.1813L22.3065 54.1526L22.2805 54.1237L22.2548 54.0945L22.2294 54.0649L22.2043 54.0351L22.1794 54.005L22.1549 53.9746L22.1306 53.944L22.1066 53.9131L22.0829 53.8819L22.0595 53.8505L22.0365 53.8188L22.0137 53.7868L21.9912 53.7545L21.9691 53.722L21.9472 53.6893L21.9257 53.6563L21.9046 53.6231L21.8837 53.5896L21.8631 53.5559L21.8429 53.5219L21.823 53.4877L21.8035 53.4533L21.7843 53.4186L21.7654 53.3837L21.7469 53.3486L21.7287 53.3133L21.7108 53.2777L21.6933 53.242L21.6762 53.206L21.6594 53.1699L21.643 53.1335L21.627 53.0969L21.6113 53.0602L21.5959 53.0232L21.581 52.9861L21.5664 52.9487L21.5522 52.9112L21.5384 52.8735L21.5249 52.8356L21.5118 52.7976L21.4991 52.7594L21.4868 52.7211L21.4749 52.6825L21.4633 52.6439L21.4522 52.605L21.4414 52.566L21.4311 52.5269L21.4211 52.4876L21.4115 52.4482L21.4024 52.4087L21.3936 52.369L21.3852 52.3292L21.3773 52.2893L21.3697 52.2493L21.3625 52.2091L21.3558 52.1688L21.3495 52.1285L21.3436 52.088L21.3381 52.0475L21.333 52.0068L21.3283 51.9661L21.3241 51.9252L21.3202 51.8843L21.3168 51.8433L21.3138 51.8023L21.3113 51.7611L21.3091 51.7199L21.3074 51.6787L21.3061 51.6374L21.3052 51.596L21.3048 51.5546L21.3048 51.5131L21.3052 51.4716L21.3061 51.4301L21.3073 51.3885L21.3091 51.3469L21.3112 51.3053L21.3138 51.2637L21.3168 51.2221L21.3202 51.1804L21.3241 51.1387L21.3284 51.0971L21.3332 51.0554L21.3384 51.0138L21.344 50.9722L21.3501 50.9305L21.3566 50.8889L21.3635 50.8474L21.3709 50.8058L21.3787 50.7643L21.387 50.7228L21.3957 50.6814L21.4048 50.64L21.4143 50.5987L21.4243 50.5575L21.4347 50.5162L21.4456 50.4751L21.4569 50.434L21.4687 50.393L21.4808 50.3521L21.4935 50.3113L21.5065 50.2705L21.52 50.2298L21.5339 50.1893L21.5483 50.1488L21.563 50.1084L21.5782 50.0682L21.5939 50.0281L21.61 49.988L21.6265 49.9481L21.6434 49.9084L21.6607 49.8687L21.6786 49.8292L21.6967 49.7899L21.7154 49.7506L21.7344 49.7116L21.7539 49.6726L21.7738 49.6339L21.7941 49.5953L21.8148 49.5569L21.836 49.5186L21.8576 49.4805L21.8795 49.4426L21.9019 49.4049L21.9248 49.3674L21.9479 49.33L21.9716 49.2929L21.9956 49.2559L22.02 49.2192L22.0449 49.1827L22.0701 49.1463L22.0957 49.1103L22.1218 49.0744L22.1482 49.0387L22.175 49.0033L22.2022 48.9681L22.2298 48.9332L22.2578 48.8985L22.2862 48.864L22.3149 48.8298L22.344 48.7958L22.3735 48.7621L22.4034 48.7287L22.4336 48.6955L22.4642 48.6626L22.4952 48.63L22.5266 48.5976L22.5583 48.5655L22.5904 48.5337L22.6228 48.5022L22.6556 48.471L22.6888 48.4401L22.7222 48.4095L22.756 48.3792L22.7902 48.3492L22.8248 48.3196L22.8596 48.2902L22.8948 48.2611L22.9303 48.2324L22.9661 48.204L23.0023 48.1759L23.0388 48.1482L23.0756 48.1208L23.1127 48.0937L23.1502 48.067L23.1879 48.0407L23.2259 48.0146L23.2643 47.989L23.3029 47.9637L23.3419 47.9388L23.3812 47.9142L23.4207 47.8899L23.4605 47.8661L23.5006 47.8426L23.541 47.8195L23.5816 47.7968L23.6225 47.7745L23.6637 47.7525L23.7051 47.731L23.7468 47.7098L23.7888 47.689L23.831 47.6687L23.8734 47.6487L23.9161 47.6291L23.959 47.6099L24.0022 47.5912L24.0456 47.5728L24.0892 47.5549L24.1331 47.5374L24.1771 47.5203L24.2214 47.5036L24.2659 47.4873L24.3106 47.4715L24.3555 47.4561L24.4006 47.4411L24.4459 47.4266L24.4913 47.4125L24.537 47.3988L24.5828 47.3856L24.6288 47.3728L24.675 47.3605L24.7213 47.3485L24.7679 47.3371L24.8145 47.3261L24.8614 47.3156L24.9083 47.3055L24.9554 47.2959L25.0027 47.2867L25.0264 47.2823ZM25.607 50.6767L25.0681 50.8055L25.0365 48.1361L25.0111 48.1418L24.9728 48.1508L24.9346 48.1602L24.8967 48.17L24.8589 48.1801L24.8212 48.1905L24.7836 48.2014L24.7463 48.2125L24.709 48.2241L24.6721 48.236L24.6351 48.2483L24.5983 48.2609L24.5618 48.2738L24.5254 48.2871L24.4893 48.3007L24.4532 48.3147L24.4174 48.3291L24.3817 48.3437L24.3462 48.3587L24.311 48.374L24.2759 48.3897L24.2411 48.4056L24.2064 48.422L24.172 48.4386L24.1377 48.4556L24.1037 48.4728L24.0699 48.4904L24.0364 48.5083L24.003 48.5265L23.9699 48.545L23.937 48.5638L23.9044 48.5829L23.8718 48.6024L23.8397 48.6221L23.8078 48.6421L23.7761 48.6624L23.7446 48.683L23.7134 48.7039L23.6824 48.7251L23.6517 48.7465L23.6213 48.7682L23.5911 48.7902L23.5612 48.8125L23.5315 48.8351L23.5021 48.8579L23.473 48.8809L23.4442 48.9042L23.4156 48.9278L23.3873 48.9517L23.3593 48.9757L23.3316 49.0001L23.3042 49.0246L23.277 49.0495L23.2501 49.0746L23.2236 49.0999L23.1973 49.1254L23.1712 49.1512L23.1456 49.1771L23.1202 49.2033L23.0951 49.2297L23.0703 49.2565L23.0458 49.2832L23.0216 49.3103L22.9977 49.3376L22.9742 49.365L22.9509 49.3927L22.9281 49.4205L22.9054 49.4487L22.8832 49.4768L22.8611 49.5053L22.8395 49.534L22.8182 49.5627L22.7971 49.5917L22.7765 49.6208L22.7561 49.6502L22.736 49.6796L22.7163 49.7093L22.697 49.739L22.678 49.769L22.6592 49.7991L22.6409 49.8293L22.6228 49.8598L22.6051 49.8902L22.5877 49.921L22.5707 49.9518L22.554 49.9827L22.5376 50.0137L22.5217 50.0449L22.5059 50.0763L22.4907 50.1076L22.4757 50.1392L22.461 50.1708L22.4468 50.2025L22.4328 50.2344L22.4192 50.2664L22.4059 50.2983L22.393 50.3305L22.3805 50.3627L22.3683 50.395L22.3564 50.4273L22.3449 50.4598L22.3338 50.4924L22.323 50.525L22.3125 50.5576L22.3024 50.5904L22.2926 50.6231L22.2833 50.6559L22.2742 50.6888L22.2654 50.7218L22.2571 50.7548L22.2491 50.7878L22.2415 50.8208L22.2342 50.8539L22.2273 50.8871L22.2207 50.9202L22.2144 50.9533L22.2085 50.9866L22.203 51.0197L22.1978 51.0529L22.1929 51.0862L22.1884 51.1193L22.1843 51.1526L22.1805 51.1858L22.1771 51.219L22.174 51.2523L22.1712 51.2854L22.1689 51.3186L22.1668 51.3518L22.1651 51.3849L22.1637 51.418L22.1627 51.4511L22.162 51.4842L22.1617 51.5172L22.1617 51.5502L22.162 51.5831L22.1627 51.616L22.1638 51.6488L22.1651 51.6816L22.1668 51.7143L22.1689 51.7469L22.1712 51.7795L22.174 51.8121L22.177 51.8445L22.1804 51.877L22.1841 51.9092L22.1881 51.9415L22.1924 51.9736L22.1971 52.0057L22.2021 52.0376L22.2075 52.0695L22.2131 52.1013L22.2191 52.133L22.2254 52.1646L22.232 52.196L22.239 52.2274L22.2462 52.2587L22.2538 52.2898L22.2617 52.3208L22.2699 52.3518L22.2784 52.3825L22.2871 52.4132L22.2963 52.4437L22.3057 52.4741L22.3154 52.5044L22.3254 52.5345L22.3357 52.5645L22.3463 52.5944L22.3572 52.624L22.3684 52.6536L22.3799 52.683L22.3917 52.7122L22.4037 52.7413L22.416 52.7702L22.4287 52.799L22.4416 52.8276L22.4548 52.856L22.4683 52.8843L22.482 52.9123L22.496 52.9403L22.5102 52.968L22.5248 52.9955L22.5396 53.0229L22.5547 53.0501L22.57 53.0771L22.5856 53.104L22.6015 53.1305L22.6176 53.157L22.6339 53.1832L22.6505 53.2092L22.6674 53.2351L22.6845 53.2607L22.7018 53.2862L22.7193 53.3113L22.7371 53.3363L22.7552 53.3611L22.7734 53.3857L22.792 53.4101L22.8107 53.4342L22.8296 53.4581L22.8488 53.4818L22.8682 53.5053L22.8877 53.5285L22.9076 53.5515L22.9276 53.5743L22.9478 53.5969L22.9683 53.6192L22.9889 53.6413L23.0098 53.6632L23.0308 53.6848L23.052 53.7061L23.0734 53.7273L23.095 53.7482L23.1168 53.7688L23.1388 53.7892L23.161 53.8094L23.1833 53.8293L23.2058 53.8489L23.2285 53.8683L23.2513 53.8875L23.2743 53.9064L23.2975 53.925L23.3209 53.9434L23.3443 53.9615L23.3679 53.9794L23.3917 53.997L23.4157 54.0143L23.4397 54.0314L23.464 54.0482L23.4883 54.0648L23.5128 54.0811L23.5374 54.097L23.5621 54.1128L23.5871 54.1283L23.6121 54.1435L23.6372 54.1584L23.6625 54.1731L23.6878 54.1875L23.7132 54.2016L23.7389 54.2155L23.7645 54.229L23.7903 54.2423L23.8162 54.2553L23.8422 54.2681L23.8682 54.2805L23.8944 54.2927L23.9207 54.3046L23.9469 54.3162L23.9734 54.3276L23.9999 54.3387L24.0264 54.3495L24.0531 54.36L24.0798 54.3702L24.1066 54.3801L24.1333 54.3898L24.1603 54.3992L24.1872 54.4083L24.2142 54.4171L24.2412 54.4257L24.2684 54.434L24.2955 54.4419L24.3226 54.4496L24.3499 54.457L24.3772 54.4642L24.4044 54.471L24.4317 54.4776L24.459 54.4838L24.4864 54.4898L24.5138 54.4956L24.5412 54.501L24.5686 54.5062L24.596 54.511L24.6234 54.5157L24.6508 54.52L24.6783 54.524L24.7056 54.5278L24.7331 54.5312L24.7605 54.5345L24.7879 54.5374L24.8153 54.54L24.8427 54.5424L24.8701 54.5445L24.8974 54.5463L24.9247 54.5479L24.952 54.5492L24.9792 54.5502L25.0065 54.5509L25.0336 54.5513L25.0607 54.5515L25.0878 54.5514L25.1149 54.5511L25.1419 54.5505L25.1689 54.5496L25.1958 54.5485L25.2226 54.547L25.2495 54.5453L25.2761 54.5434L25.3028 54.5412L25.3294 54.5387L25.3559 54.536L25.3824 54.5329L25.4087 54.5297L25.4351 54.5262L25.4613 54.5224L25.4874 54.5184L25.5135 54.5141L25.5394 54.5096L25.5653 54.5048L25.5911 54.4998L25.6168 54.4945L25.6423 54.489L25.6678 54.4832L25.6932 54.4772L25.7185 54.4709L25.7437 54.4645L25.7687 54.4577L25.7936 54.4508L25.8186 54.4435L25.8432 54.4361L25.8677 54.4284L25.8923 54.4205L25.9166 54.4124L25.9409 54.404L25.9649 54.3954L25.9889 54.3866L26.0128 54.3775L26.0365 54.3683L26.06 54.3588L26.0834 54.3491L26.1067 54.3391L26.1299 54.329L26.1528 54.3187L26.1757 54.3081L26.1984 54.2973L26.2209 54.2864L26.2433 54.2752L26.2655 54.2638L26.2876 54.2522L26.3095 54.2404L26.3313 54.2284L26.3528 54.2163L26.3743 54.2039L26.3955 54.1913L26.4166 54.1785L26.4375 54.1656L26.4582 54.1525L26.4788 54.1392L26.4992 54.1257L26.5194 54.112L26.5395 54.0981L26.5594 54.0841L26.579 54.0699L26.5985 54.0555L26.6178 54.041L26.6369 54.0263L26.6559 54.0114L26.6747 53.9963L26.6932 53.9812L26.7115 53.9659L26.7297 53.9503L26.7476 53.9347L26.7654 53.9189L26.783 53.9029L26.8004 53.8868L26.8175 53.8706L26.8345 53.8542L26.8513 53.8376L26.8679 53.821L26.8843 53.8042L26.9004 53.7872L26.9164 53.7702L26.9322 53.7529L26.9476 53.7357L26.963 53.7182L26.9781 53.7006L26.993 53.683L27.0078 53.6651L27.0222 53.6473L27.0365 53.6292L27.0505 53.6111L27.0643 53.5929L27.078 53.5745L27.0914 53.5562L27.1045 53.5376L27.1175 53.5189L27.1303 53.5002L27.1428 53.4814L27.1551 53.4625L27.1672 53.4435L27.179 53.4244L27.1907 53.4052L27.2021 53.386L27.2133 53.3667L27.2242 53.3473L27.235 53.3278L27.2455 53.3082L27.2558 53.2887L27.2658 53.269L27.2757 53.2493L27.2853 53.2295L27.2947 53.2096L27.3039 53.1897L27.3128 53.1697L27.3215 53.1498L27.33 53.1297L27.3383 53.1096L27.3464 53.0894L27.3541 53.0693L27.3617 53.0489L27.369 53.0289L27.3762 53.0085L27.3831 52.9881L27.3897 52.9678L27.3962 52.9474L27.4024 52.9271L27.4084 52.9065L27.4141 52.8862L27.4198 52.8656L27.425 52.8453L27.4301 52.8248L27.435 52.8042L27.4396 52.7837L27.444 52.7634L27.4482 52.7427L27.4522 52.7223L27.4559 52.7017L27.4595 52.6813L27.4628 52.6608L27.4659 52.6403L27.4687 52.6197L27.4713 52.5993L27.4738 52.5789L27.476 52.5585L27.4779 52.538L27.4797 52.5177L27.4812 52.4973L27.4825 52.477L27.4837 52.4567L27.4846 52.4364L27.4852 52.4163L27.4857 52.396L27.486 52.3757L27.486 52.3557L27.4858 52.3356L27.4854 52.3156L27.4848 52.2956L27.484 52.2756L27.483 52.2559L27.4818 52.2358L27.4804 52.2162L27.4788 52.1965L27.4769 52.1767L27.4749 52.1571L27.4727 52.1377L27.4702 52.118L27.4676 52.0988L27.4647 52.0794L27.4617 52.0602L27.4585 52.0409L27.4551 52.0218L27.4515 52.0028L27.4477 51.9838L27.4437 51.9649L27.4394 51.9461L27.4351 51.9274L27.4305 51.9088L27.4258 51.8903L27.4208 51.8717L27.4157 51.8535L27.4104 51.835L27.4049 51.8169L27.3993 51.7988L27.3934 51.7809L27.3874 51.763L27.3812 51.7451L27.3749 51.7275L27.3683 51.71L27.3616 51.6924L27.3547 51.6751L27.3477 51.6577L27.3405 51.6408L27.3331 51.6236L27.3256 51.6067L27.3179 51.59L27.31 51.5733L27.302 51.5567L27.2939 51.5403L27.2855 51.5239L27.2771 51.5077L27.2684 51.4916L27.2597 51.4757L27.2507 51.4598L27.2416 51.4441L27.2325 51.4286L27.2231 51.4131L27.2136 51.3977L27.2039 51.3826L27.1942 51.3676L27.1843 51.3527L27.1742 51.3379L27.1641 51.3233L27.1537 51.3087L27.1433 51.2944L27.1327 51.2802L27.122 51.2661L27.1113 51.2522L27.1003 51.2383L27.0893 51.2247L27.0781 51.2112L27.0668 51.1978L27.0554 51.1846L27.044 51.1716L27.0323 51.1587L27.0206 51.1459L27.0088 51.1332L26.9968 51.1208L26.9848 51.1085L26.9726 51.0963L26.9604 51.0843L26.9481 51.0725L26.9357 51.0608L26.9231 51.0492L26.9105 51.0378L26.8978 51.0266L26.885 51.0155L26.8721 51.0046L26.8592 50.9939L26.8461 50.9833L26.8331 50.9729L26.8199 50.9626L26.8066 50.9524L26.7933 50.9425L26.7798 50.9327L26.7663 50.9231L26.7528 50.9136L26.7392 50.9043L26.7256 50.8952L26.7118 50.8862L26.698 50.8773L26.6842 50.8687L26.6702 50.8602L26.6563 50.8519L26.6423 50.8437L26.6282 50.8357L26.6141 50.8279L26.5999 50.8202L26.5858 50.8127L26.5715 50.8053L26.5573 50.7982L26.5429 50.7911L26.5286 50.7843L26.5142 50.7777L26.4998 50.7711L26.4853 50.7648L26.4708 50.7585L26.4564 50.7526L26.4418 50.7467L26.4272 50.741L26.4127 50.7355L26.3981 50.7301L26.3835 50.7249L26.3689 50.7199L26.3543 50.715L26.3397 50.7103L26.325 50.7057L26.3103 50.7013L26.2957 50.6971L26.2809 50.693L26.2664 50.6892L26.2517 50.6854L26.237 50.6818L26.2223 50.6784L26.2077 50.6751L26.193 50.672L26.1784 50.6691L26.1638 50.6663L26.1492 50.6637L26.1345 50.6612L26.12 50.6589L26.1053 50.6568L26.0909 50.6547L26.0763 50.6529L26.0618 50.6512L26.0474 50.6497L26.0329 50.6483L26.0185 50.647L26.0041 50.646L25.9898 50.645L25.9754 50.6442L25.9611 50.6436L25.9469 50.6432L25.9327 50.6428L25.9185 50.6426L25.9043 50.6425L25.8903 50.6427L25.8762 50.6429L25.8622 50.6433L25.8482 50.6439L25.8344 50.6445L25.8205 50.6453L25.8067 50.6463L25.793 50.6474L25.7793 50.6486L25.7657 50.65L25.752 50.6515L25.7386 50.6531L25.7251 50.6549L25.7117 50.6568L25.6984 50.6589L25.6851 50.661L25.6719 50.6633L25.6588 50.6657L25.6457 50.6683L25.6328 50.671L25.6198 50.6738L25.607 50.6767Z" fill="#D1D1D1"/>
<defs>
<linearGradient id="paint0_linear_43_1706" x1="-1.07003e-06" y1="-3.68497" x2="110.285" y2="5.81496" gradientUnits="userSpaceOnUse">
<stop stop-color="white"/>
<stop offset="1" stop-color="white" stop-opacity="0"/>
</linearGradient>
</defs>
</svg>
