<svg width="102" height="102" viewBox="0 0 102 102" fill="none" xmlns="http://www.w3.org/2000/svg">
<circle cx="51" cy="51" r="51" fill="#252532" fill-opacity="0.8"/>
<circle cx="51" cy="51" r="50.5" stroke="url(#paint0_linear_43_1720)" stroke-opacity="0.3"/>
<path d="M23.3015 45.5726V43.2891H16.1015V58.9786H23.3015V56.695C21.8266 56.695 20.412 56.1091 19.3691 55.0662C18.3262 54.0232 17.7403 52.6088 17.7403 51.1338C17.7403 49.6589 18.3262 48.2444 19.3691 47.2015C20.412 46.1586 21.8266 45.5726 23.3015 45.5726Z" fill="#D1D1D1"/>
<path d="M23.3015 45.5732V56.6956C24.7764 56.6956 26.191 56.1097 27.2339 55.0668C28.2768 54.0238 28.8627 52.6094 28.8627 51.1344C28.8627 49.6595 28.2768 48.245 27.2339 47.2021C26.191 46.1592 24.7764 45.5732 23.3015 45.5732Z" fill="#D1D1D1"/>
<path d="M32.9033 46.9697H34.5152V54.7339H32.9033V46.9697Z" fill="#D1D1D1"/>
<path d="M35.4179 52.0747C35.4179 51.5162 35.5838 50.9701 35.8945 50.5059C36.2051 50.0417 36.6466 49.6801 37.1631 49.4671C37.6795 49.2541 38.2475 49.1991 38.7951 49.3093C39.3427 49.4194 39.8453 49.6897 40.2392 50.0858C40.633 50.482 40.9004 50.9861 41.0075 51.5344C41.1145 52.0826 41.0563 52.6503 40.8403 53.1655C40.6243 53.6806 40.2603 54.1201 39.7943 54.4281C39.3283 54.7361 38.7813 54.8988 38.2227 54.8956C37.8522 54.8985 37.4849 54.8275 37.1422 54.6865C36.7996 54.5455 36.4885 54.3376 36.2272 54.0749C35.966 53.8121 35.7599 53.4999 35.6209 53.1564C35.4819 52.813 35.4129 52.4452 35.4179 52.0747ZM39.4585 52.0747C39.4522 51.8339 39.375 51.6003 39.2365 51.4032C39.0981 51.206 38.9047 51.054 38.6803 50.9662C38.456 50.8784 38.2108 50.8586 37.9753 50.9095C37.7398 50.9604 37.5246 51.0795 37.3564 51.2521C37.1883 51.4246 37.0748 51.6428 37.0301 51.8796C36.9854 52.1163 37.0114 52.361 37.105 52.5829C37.1986 52.8049 37.3556 52.9944 37.5563 53.1276C37.757 53.2609 37.9925 53.3319 38.2334 53.3321C38.3975 53.3353 38.5604 53.3046 38.712 53.2419C38.8637 53.1794 39.0007 53.0861 39.1147 52.9681C39.2287 52.8501 39.317 52.7098 39.3744 52.5562C39.4317 52.4024 39.4567 52.2386 39.4478 52.0747H39.4585Z" fill="#D1D1D1"/>
<path d="M47.4054 49.4152V54.4714C47.4054 56.2552 46.0084 57.0129 44.5953 57.0129C44.0968 57.0537 43.5968 56.9547 43.1516 56.7269C42.7064 56.4991 42.3336 56.1515 42.0752 55.7233L43.4347 54.9388C43.5448 55.161 43.72 55.3442 43.937 55.4642C44.154 55.5841 44.4023 55.6352 44.649 55.6105C44.8061 55.6298 44.9656 55.6142 45.116 55.5648C45.2665 55.5153 45.4041 55.4333 45.5191 55.3244C45.6341 55.2155 45.7236 55.0827 45.7813 54.9352C45.8389 54.7877 45.8633 54.6293 45.8526 54.4714V53.9824C45.665 54.2099 45.427 54.3904 45.1574 54.5098C44.8879 54.6292 44.5942 54.6841 44.2997 54.6702C43.5872 54.6702 42.9039 54.3871 42.4001 53.8833C41.8962 53.3795 41.6132 52.6961 41.6132 51.9836C41.6132 51.2711 41.8962 50.5878 42.4001 50.0839C42.9039 49.5801 43.5872 49.297 44.2997 49.297C44.5942 49.2831 44.8879 49.338 45.1574 49.4574C45.427 49.5768 45.665 49.7574 45.8526 49.9848V49.4475L47.4054 49.4152ZM45.8526 51.9675C45.8633 51.7104 45.7968 51.456 45.6618 51.237C45.5268 51.018 45.3294 50.8444 45.0948 50.7385C44.8604 50.6326 44.5996 50.5993 44.346 50.6428C44.0924 50.6863 43.8576 50.8047 43.6719 50.9827C43.4861 51.1607 43.3579 51.3902 43.3036 51.6418C43.2493 51.8933 43.2715 52.1552 43.3673 52.394C43.4632 52.6328 43.6282 52.8374 43.8413 52.9817C44.0544 53.1259 44.3057 53.2031 44.563 53.2033C44.7309 53.2154 44.8995 53.1921 45.0578 53.1351C45.2161 53.0779 45.3608 52.9883 45.4822 52.8718C45.6038 52.7553 45.6995 52.6147 45.7633 52.4589C45.8271 52.3031 45.8575 52.1357 45.8526 51.9675Z" fill="#D1D1D1"/>
<path d="M48.3134 52.0748C48.3134 51.5167 48.479 50.9711 48.7892 50.507C49.0994 50.043 49.5403 49.6815 50.056 49.4681C50.5718 49.2548 51.1393 49.1992 51.6866 49.3085C52.234 49.4178 52.7366 49.687 53.1309 50.082C53.5252 50.4771 53.7934 50.9803 53.9016 51.5278C54.0099 52.0753 53.9533 52.6427 53.7389 53.158C53.5246 53.6734 53.1622 54.1136 52.6976 54.4229C52.233 54.7323 51.6871 54.8968 51.1289 54.8957C50.7578 54.8993 50.3895 54.8288 50.046 54.6882C49.7024 54.5476 49.3904 54.3399 49.1281 54.0772C48.8659 53.8144 48.6588 53.502 48.5188 53.1581C48.379 52.8143 48.3091 52.446 48.3134 52.0748ZM52.354 52.0748C52.3477 51.8338 52.2703 51.5999 52.1317 51.4026C51.9931 51.2054 51.7992 51.0534 51.5746 50.9657C51.3499 50.8781 51.1044 50.8587 50.8688 50.91C50.6332 50.9613 50.418 51.081 50.2501 51.2541C50.0821 51.4271 49.969 51.6459 49.925 51.883C49.8809 52.1201 49.9077 52.3649 50.0021 52.5867C50.0965 52.8086 50.2543 52.9977 50.4557 53.1303C50.6571 53.2629 50.8932 53.3331 51.1343 53.3321C51.2984 53.3353 51.4613 53.3047 51.6129 53.242C51.7645 53.1794 51.9016 53.0862 52.0156 52.9682C52.1295 52.8502 52.2179 52.7099 52.2752 52.5562C52.3326 52.4025 52.3576 52.2386 52.3486 52.0748H52.354Z" fill="#D1D1D1"/>
<path d="M54.6913 47.9906C54.6913 47.8015 54.7474 47.6165 54.8525 47.4592C54.9576 47.302 55.107 47.1794 55.2817 47.107C55.4565 47.0346 55.6488 47.0157 55.8344 47.0526C56.0199 47.0895 56.1903 47.1806 56.3241 47.3143C56.4578 47.4481 56.5489 47.6185 56.5858 47.804C56.6227 47.9895 56.6038 48.1818 56.5314 48.3566C56.459 48.5314 56.3364 48.6807 56.1791 48.7858C56.0218 48.8909 55.837 48.947 55.6478 48.947C55.395 48.9442 55.1533 48.8426 54.9746 48.6638C54.7958 48.485 54.6941 48.2434 54.6913 47.9906ZM54.8472 49.4145H56.4591V54.7339H54.8472V49.4145Z" fill="#D1D1D1"/>
<path d="M63.3582 52.0743C63.3763 52.4281 63.3242 52.782 63.205 53.1155C63.0858 53.4491 62.9018 53.7558 62.6636 54.0179C62.4253 54.2802 62.1377 54.4926 61.817 54.6432C61.4964 54.7937 61.1491 54.8794 60.7952 54.8952C60.4949 54.9152 60.194 54.8671 59.9149 54.7545C59.6358 54.6419 59.3857 54.4678 59.1833 54.2451V56.8725H57.5714V49.4146H59.1833V49.9143C59.386 49.6922 59.6362 49.5189 59.9154 49.4073C60.1945 49.2956 60.4953 49.2485 60.7952 49.2695C61.1477 49.2854 61.4936 49.3706 61.8131 49.5201C62.1327 49.6696 62.4196 49.8807 62.6576 50.1411C62.8956 50.4016 63.08 50.7063 63.2002 51.0381C63.3204 51.3697 63.3741 51.7218 63.3582 52.0743ZM61.7463 52.0743C61.7399 51.8247 61.66 51.5826 61.5167 51.3783C61.3733 51.1739 61.1728 51.0164 60.9403 50.9255C60.7078 50.8346 60.4537 50.8144 60.2097 50.8674C59.9657 50.9203 59.7428 51.0441 59.5689 51.2232C59.395 51.4022 59.2778 51.6287 59.2321 51.8741C59.1863 52.1195 59.214 52.373 59.3117 52.6027C59.4093 52.8324 59.5726 53.0282 59.7811 53.1656C59.9896 53.3029 60.234 53.3756 60.4836 53.3746C60.6546 53.3819 60.8252 53.3529 60.9841 53.2896C61.1432 53.2263 61.287 53.1301 61.4063 53.0074C61.5255 52.8846 61.6174 52.738 61.676 52.5772C61.7346 52.4164 61.7585 52.245 61.7463 52.0743Z" fill="#D1D1D1"/>
<path d="M68.2639 53.1386C68.2639 54.3636 67.1892 54.8848 66.0501 54.8848C65.5855 54.9266 65.1191 54.8282 64.711 54.6021C64.303 54.3761 63.9721 54.0328 63.7612 53.6168L65.1474 52.8323C65.2024 53.024 65.3214 53.1911 65.4848 53.3055C65.6481 53.42 65.8458 53.4748 66.0448 53.461C66.4262 53.461 66.6197 53.3428 66.6197 53.1278C66.6197 52.5422 64.003 52.8538 64.003 51.0108C64.003 49.8502 64.9809 49.2699 66.0877 49.2699C66.5085 49.2511 66.9265 49.3465 67.2973 49.5461C67.6681 49.7458 67.978 50.0421 68.194 50.4036L66.8077 51.1344C66.7465 50.9958 66.6464 50.8779 66.5196 50.7949C66.3928 50.712 66.2446 50.6675 66.0931 50.6669C65.8137 50.6669 65.6471 50.7744 65.6471 50.9625C65.6471 51.575 68.2639 51.172 68.2639 53.1386Z" fill="#D1D1D1"/>
<path d="M74.1045 49.415V54.7344H72.4925V54.2347C72.3093 54.456 72.0767 54.631 71.8139 54.7458C71.5506 54.8606 71.2642 54.9119 70.9773 54.8956C69.9027 54.8956 68.9839 54.1273 68.9839 52.6927V49.415H70.5958V52.4509C70.5829 52.5778 70.598 52.7059 70.6399 52.8265C70.6818 52.947 70.749 53.0571 70.8371 53.149C70.9257 53.241 71.0332 53.3127 71.1519 53.3591C71.2707 53.4056 71.398 53.4257 71.5254 53.418C72.1057 53.418 72.514 53.0741 72.514 52.3434V49.415H74.1045Z" fill="#D1D1D1"/>
<path d="M83.2388 51.4677V54.7346H81.6269V51.6074C81.6269 51.0701 81.3744 50.737 80.8639 50.737C80.3535 50.737 80.0311 51.1077 80.0311 51.7364V54.7346H78.4191V51.6074C78.4191 51.0701 78.1666 50.737 77.6561 50.737C77.1457 50.737 76.8233 51.1077 76.8233 51.7364V54.7346H75.2114V49.4152H76.8233V49.9041C76.9904 49.6881 77.208 49.5171 77.4579 49.4064C77.7072 49.2957 77.9807 49.2488 78.2526 49.2701C78.525 49.2559 78.7969 49.3128 79.0408 49.4353C79.2847 49.5577 79.4927 49.7416 79.6442 49.9686C79.8215 49.7313 80.0558 49.5429 80.3255 49.4207C80.5947 49.2985 80.8913 49.2467 81.1863 49.2701C82.4436 49.2701 83.2388 50.1406 83.2388 51.4677Z" fill="#D1D1D1"/>
<path d="M84.5929 49.3827C85.2457 49.3827 85.7749 48.8535 85.7749 48.2006C85.7749 47.5478 85.2457 47.0186 84.5929 47.0186C83.94 47.0186 83.4108 47.5478 83.4108 48.2006C83.4108 48.8535 83.94 49.3827 84.5929 49.3827Z" fill="#D1D1D1"/>
<defs>
<linearGradient id="paint0_linear_43_1720" x1="-1.07003e-06" y1="-3.68497" x2="110.285" y2="5.81496" gradientUnits="userSpaceOnUse">
<stop stop-color="white"/>
<stop offset="1" stop-color="white" stop-opacity="0"/>
</linearGradient>
</defs>
</svg>
