<svg width="20" height="20" fill="none" xmlns="http://www.w3.org/2000/svg"><path fill-rule="evenodd" clip-rule="evenodd" d="M13.882 1.666c2.775 0 4.868 2.264 4.868 5.267v5.723c0 1.537-.543 2.925-1.53 3.91-.887.883-2.036 1.35-3.324 1.35H5.685c-1.286 0-2.434-.467-3.32-1.35-.988-.985-1.532-2.373-1.532-3.91V6.933c0-3.003 2.093-5.267 4.868-5.267h8.181Zm0 1.25H5.701c-2.096 0-3.618 1.69-3.618 4.017v5.723c0 1.202.414 2.277 1.164 3.024.646.646 1.49.986 2.44.986h8.195c.002-.002.009 0 .014 0 .95 0 1.794-.34 2.44-.986.751-.747 1.164-1.822 1.164-3.024V6.933c0-2.328-1.522-4.017-3.618-4.017Zm1.314 3.857a.626.626 0 0 1-.091.88l-3.703 3.01a2.535 2.535 0 0 1-3.166.005L4.498 7.654a.626.626 0 0 1 .784-.973l3.735 3.01c.469.371 1.13.371 1.602-.003l3.697-3.005a.624.624 0 0 1 .88.09Z" fill="#B0B0B2"/></svg>