<svg width="19" height="16" fill="none" xmlns="http://www.w3.org/2000/svg"><path d="M18.357 2.431a8.383 8.383 0 0 1-2.18.612c.765-.46 1.377-1.186 1.645-2.065-.727.42-1.53.726-2.41.918A3.812 3.812 0 0 0 12.66.71 3.754 3.754 0 0 0 8.91 4.458c0 .306.038.574.115.841A10.715 10.715 0 0 1 1.262 1.36C.956 1.934.765 2.546.765 3.234c0 1.3.65 2.448 1.683 3.136a4.425 4.425 0 0 1-1.721-.459v.038c0 1.836 1.3 3.366 3.02 3.71-.305.077-.65.115-.993.115-.23 0-.498-.038-.727-.077.497 1.492 1.874 2.6 3.518 2.6-1.3.995-2.906 1.607-4.665 1.607-.306 0-.612 0-.88-.038a10.642 10.642 0 0 0 5.775 1.683c6.922 0 10.708-5.737 10.708-10.709v-.497a6.869 6.869 0 0 0 1.874-1.912Z" fill="#fff"/></svg>