<svg width="48" height="7" fill="none" xmlns="http://www.w3.org/2000/svg"><mask id="a" style="mask-type:luminance" maskUnits="userSpaceOnUse" x="0" y="0" width="48" height="7"><path d="M0 0h47.704v7H0V0Z" fill="#fff"/></mask><g mask="url(#a)"><mask id="b" style="mask-type:luminance" maskUnits="userSpaceOnUse" x="-1" y="-1" width="50" height="9"><path d="M-.297 3.8 47.586-.848 48 2.697.117 7.345-.297 3.8Z" fill="#fff"/></mask><g mask="url(#b)"><mask id="c" style="mask-type:luminance" maskUnits="userSpaceOnUse" x="-1" y="-1" width="50" height="9"><path d="M-.297 3.8 47.586-.848 48 2.697.117 7.345-.297 3.8Z" fill="#fff"/></mask><g mask="url(#c)"><path d="M43.517 1.86c-.509.025-1.018.048-1.527.075-1.16.06-2.32.11-3.477.188a39.45 39.45 0 0 0-2.593.279c-.23.03-.466.015-.694.05-2.154.334-4.34.437-6.5.724-.977.13-1.961.206-2.934.362-2.163.345-4.35.55-6.518.867-1.445.212-2.89.422-4.337.631-1.469.212-2.939.418-4.408.631-1.181.173-2.362.347-3.541.532-.585.092-1.177.11-1.764.171-1.074.112-2.14.276-3.217.362a1.01 1.01 0 0 1-.474-.033c-.168-.063-.366.003-.552.01l-.935.032c.223-.094.458-.14.703-.14.222-.027.383-.075.387-.311 0-.025.036-.049.082-.106l-1.14.11c.178-.141.228-.154.763-.205.256-.008.507-.045.754-.109.248-.081.45-.251.74-.285-.097-.074-.183-.04-.31-.065l1.042-.194c.055-.01.116-.006.15-.06.049-.076-.199-.21.072-.252.117-.018.121-.2.26-.24.07-.021.124-.075.091-.146-.036-.08-.121-.04-.184-.033-.448.052-.897.107-1.345.162a.823.823 0 0 1-.485-.041c.16-.027.319-.052.478-.08.172-.03.34-.069.512-.097.812-.133 1.624-.268 2.437-.395 1.352-.213 2.706-.418 4.056-.628 1.008-.156 2.011-.332 3.022-.47.723-.1 1.443-.218 2.163-.328.743-.112 1.485-.24 2.229-.349.767-.111 1.535-.228 2.303-.334.791-.11 1.584-.21 2.374-.324 1.389-.198 2.785-.336 4.18-.488 1.557-.169 3.117-.323 4.677-.47C31.317.744 32.58.644 33.841.54a64.087 64.087 0 0 1 2.568-.158c1.67-.072 3.337-.18 5.009-.238C43.31.079 45.204.059 47.097.011c.199-.006.395.013.589.055-.286.027-.571.07-.858.08-.603.02-1.21-.014-1.81.041-.787.073-1.58-.008-2.362.09-.437.055-.876.083-1.318.085-.023 0-.053-.004-.067.007-.33.27-.75.126-1.122.197a10.7 10.7 0 0 1-1.304.173 286.48 286.48 0 0 0-4.234.316c-1.701.142-3.403.277-5.097.48-.098.011-.213-.008-.301.096.1.08.218.046.32.04 1.268-.077 2.537-.157 3.806-.24.336-.022.673-.037 1.006-.075.428-.03.855-.019 1.28.034.116.01.232.013.348.006 1.586-.122 3.178-.163 4.765-.258a5.799 5.799 0 0 1 1.077-.028c.382.049.779 0 1.15.175.263.106.537.14.821.098a.986.986 0 0 1 .4.025.683.683 0 0 1-.42.095.505.505 0 0 0-.203.028c-.24.063-.246.095-.068.27.014.013.013.039.02.059h.002Zm-27.126 3.3a.955.955 0 0 0-.667-.063c-.27.059-.544.104-.82.136-1.027.112-2.043.287-3.065.43-2.675.375-5.347.771-8.033 1.088-.064.008-.144-.006-.174.055.008.027.023.05.041.073a.238.238 0 0 0 .154.08c.03.003.06.002.09-.005.378-.054.762-.081 1.141-.131 2.136-.285 4.26-.642 6.405-.877.103-.011.205-.037.308-.051.8-.104 1.588-.275 2.39-.377.655-.082 1.308-.184 1.96-.282a.47.47 0 0 0 .26-.084l.01.008Zm-1.668.189a.224.224 0 0 1-.233.024.325.325 0 0 1 .232-.024Zm1.657-.197a.41.41 0 0 0 .238.01 94.397 94.397 0 0 1 1.541-.224c1.227-.165 2.454-.327 3.681-.488l.969-.126a.764.764 0 0 0-.6-.008c-.237.087-.523.061-.787.095-.37.024-.735.073-1.096.149a1.926 1.926 0 0 1-.85.053l.533-.082c-.6.043-1.196.114-1.788.215-.51.06-1.019.143-1.53.207-.092.01-.182.03-.27.056-.09.03-.08.09-.031.151l-.01-.008Zm1.43-.282c.217-.075.443-.103.675-.08-.22.063-.445.09-.675.08Zm17.505-2.086 2.326-.226-.002-.02-2.317.224-.007.022ZM44.59 1.75c.042.091.13.078.208.068.22-.01.436-.038.65-.084l-.86.016h.002ZM22.03 4.255l-.777.075.003.028.778-.076-.004-.027ZM44.588 1.75c-.36.034-.728-.021-1.074.11l.005-.001c.363.01.72-.026 1.07-.11h-.001ZM33.829 2.922l.468-.045-.003-.016-.474.046.01.015Zm-4.134.398-.47.045.002.02.467-.046v-.02Zm-4.854.586c-.192.028-.332-.01-.456.065.16.027.313.006.456-.065Zm5.279-.615.403-.04a.918.918 0 0 0-.403.04Zm-5.495.79.392-.038c-.13-.013-.271-.09-.392.038Zm7.333-.998a.839.839 0 0 0-.383.085c.157-.034.257-.01.383-.085Zm2.705-.236a.411.411 0 0 0 .23-.036c-.08.004-.162-.016-.23.036ZM23.679 4.06c.037-.003.037-.024-.012-.041l-.335.054c.165-.005.257-.005.347-.013Zm-.15.13a.771.771 0 0 0 .373-.056c-.154.015-.246-.038-.374.057Zm4.476-.641a.262.262 0 0 0-.181.021c.064.004.125.019.181-.021Zm-1.926.2.166-.016-.166-.006v.022Zm5.076-.566c.026.01.053.014.08.01a.156.156 0 0 0 .075-.029c-.057-.006-.113-.025-.156.02h.001Zm-2.26.22a.395.395 0 0 0-.067-.001.161.161 0 0 0-.044.018l.067.004.043-.022Z" fill="url(#d)"/></g></g></g><defs><linearGradient id="d" x1=".046" y1="3.485" x2="47.686" y2="3.485" gradientUnits="userSpaceOnUse"><stop offset="0" stop-color="#0CBAF1"/><stop offset="1" stop-color="#E95CE9"/></linearGradient></defs></svg>