<svg width="102" height="102" viewBox="0 0 102 102" fill="none" xmlns="http://www.w3.org/2000/svg">
<circle cx="51" cy="51" r="51" fill="#252532" fill-opacity="0.8"/>
<circle cx="51" cy="51" r="50.5" stroke="url(#paint0_linear_43_1692)" stroke-opacity="0.3"/>
<path d="M26.5297 49.8768C26.3348 50.0729 26.1856 50.3096 26.0926 50.5699C25.9996 50.8303 25.9652 51.108 25.9918 51.3832L25.9825 51.3739C26.0099 51.6979 25.9662 52.0238 25.8545 52.3292C25.7429 52.6344 25.566 52.9117 25.3361 53.1416C25.1062 53.3714 24.829 53.5484 24.5236 53.66C24.2184 53.7716 23.8924 53.8153 23.5685 53.788L23.5777 53.7972C23.1903 53.7612 22.8011 53.8455 22.4633 54.0387C22.1255 54.2319 21.8555 54.5246 21.6901 54.8769C21.5248 55.2292 21.4721 55.6238 21.5392 56.0072C21.6065 56.3905 21.7902 56.7437 22.0655 57.0188C22.3408 57.2938 22.6942 57.4773 23.0776 57.5441C23.461 57.6109 23.8556 57.5579 24.2077 57.3922C24.5599 57.2265 24.8523 56.9563 25.0452 56.6183C25.2381 56.2803 25.3221 55.8911 25.2857 55.5036L25.2954 55.5129C25.2681 55.189 25.3117 54.863 25.4234 54.5577C25.535 54.2524 25.712 53.9751 25.9418 53.7452C26.1717 53.5154 26.449 53.3384 26.7543 53.2268C27.0596 53.1152 27.3855 53.0715 27.7095 53.0988L27.6997 53.0896C28.0162 53.118 28.3348 53.0661 28.626 52.9387C28.917 52.8113 29.1713 52.6124 29.3651 52.3605C29.5589 52.1087 29.686 51.8119 29.7345 51.4979C29.7831 51.1838 29.7517 50.8626 29.6431 50.5639C29.5344 50.2653 29.3522 49.9989 29.1132 49.7894C28.8742 49.5799 28.5862 49.4342 28.2759 49.3657C27.9656 49.2972 27.6429 49.3081 27.338 49.3974C27.033 49.4868 26.7555 49.6517 26.5313 49.8768H26.5297Z" fill="#D1D1D1"/>
<path d="M22.7359 52.5847L22.7261 52.5754C23.0014 52.6031 23.2794 52.5693 23.5401 52.4765C23.8007 52.3836 24.0375 52.234 24.2333 52.0384C24.4289 51.8428 24.5788 51.6061 24.6718 51.3455C24.7649 51.085 24.7989 50.807 24.7714 50.5316L24.7812 50.5409C24.7538 50.2169 24.7975 49.891 24.9091 49.5857C25.0208 49.2804 25.1977 49.0031 25.4276 48.7732C25.6575 48.5434 25.9347 48.3664 26.24 48.2548C26.5453 48.1432 26.8713 48.0995 27.1952 48.1268L27.1855 48.1176C27.573 48.154 27.9622 48.0699 28.3002 47.8769C28.6383 47.6839 28.9085 47.3914 29.0741 47.0392C29.2397 46.687 29.2926 46.2922 29.2256 45.9088C29.1587 45.5254 28.9751 45.172 28.6998 44.8968C28.4246 44.6216 28.0712 44.438 27.6878 44.371C27.3044 44.304 26.9097 44.3569 26.5575 44.5226C26.2052 44.6882 25.9127 44.9584 25.7197 45.2964C25.5267 45.6344 25.4427 46.0237 25.4791 46.4112L25.4698 46.4014C25.4972 46.7253 25.4536 47.0514 25.342 47.3567C25.2304 47.6621 25.0534 47.9394 24.8236 48.1693C24.5937 48.3991 24.3164 48.5761 24.0111 48.6877C23.7057 48.7993 23.3797 48.8429 23.0557 48.8155L23.065 48.8252C22.7897 48.7975 22.5116 48.8313 22.251 48.9242C21.9904 49.017 21.7536 49.1667 21.5578 49.3622C21.3621 49.5578 21.2123 49.7945 21.1192 50.0551C21.0262 50.3157 20.9922 50.5937 21.0197 50.869L21.0104 50.8597C21.0377 51.1836 20.9939 51.5096 20.8823 51.8149C20.7706 52.1201 20.5937 52.3974 20.3638 52.6272C20.134 52.857 19.8567 53.0339 19.5515 53.1456C19.2462 53.2573 18.9203 53.3011 18.5964 53.2738L18.6056 53.2831C18.2181 53.2466 17.8288 53.3307 17.4908 53.5237C17.1529 53.7167 16.8826 54.0092 16.717 54.3615C16.5514 54.7137 16.4985 55.1084 16.5654 55.4918C16.6324 55.8752 16.816 56.2286 17.0913 56.5038C17.3665 56.7791 17.7199 56.9627 18.1033 57.0296C18.4867 57.0966 18.8814 57.0437 19.2336 56.8781C19.5858 56.7125 19.8784 56.4423 20.0714 56.1043C20.2644 55.7662 20.3484 55.377 20.312 54.9895L20.3218 54.9987C20.2944 54.6748 20.3382 54.3488 20.4498 54.0435C20.5614 53.7382 20.7384 53.4609 20.9682 53.2311C21.1981 53.0012 21.4753 52.8243 21.7806 52.7127C22.086 52.601 22.4119 52.5573 22.7359 52.5847Z" fill="#D1D1D1"/>
<path d="M19.2891 51.5516C19.484 51.3556 19.6333 51.1189 19.7262 50.8585C19.8191 50.5981 19.8533 50.3204 19.8265 50.0453L19.8363 50.0546C19.8089 49.7305 19.8526 49.4044 19.9643 49.0991C20.076 48.7937 20.2531 48.5164 20.4831 48.2865C20.713 48.0566 20.9904 47.8797 21.2958 47.7681C21.6013 47.6565 21.9274 47.613 22.2514 47.6405L22.2416 47.6312C22.629 47.6675 23.0181 47.5834 23.356 47.3905C23.6938 47.1975 23.9638 46.905 24.1294 46.5529C24.2949 46.2008 24.3478 45.8062 24.2808 45.4229C24.2138 45.0397 24.0302 44.6864 23.7552 44.4113C23.4801 44.1362 23.1267 43.9526 22.7435 43.8857C22.3603 43.8187 21.9656 43.8716 21.6136 44.0371C21.2614 44.2026 20.969 44.4727 20.776 44.8105C20.583 45.1483 20.4989 45.5375 20.5352 45.9248L20.526 45.9156C20.5533 46.2395 20.5096 46.5655 20.3979 46.8708C20.2863 47.1761 20.1094 47.4533 19.8795 47.6832C19.6497 47.9131 19.3724 48.09 19.0671 48.2016C18.7618 48.3133 18.4358 48.357 18.1119 48.3296L18.1212 48.3389C17.8046 48.3105 17.4861 48.3625 17.195 48.49C16.9039 48.6175 16.6498 48.8164 16.456 49.0683C16.2623 49.3201 16.1353 49.6169 16.0867 49.9309C16.0382 50.245 16.0697 50.5662 16.1784 50.8648C16.287 51.1635 16.4693 51.4298 16.7083 51.6392C16.9473 51.8487 17.2353 51.9944 17.5456 52.0629C17.8559 52.1313 18.1785 52.1204 18.4835 52.0311C18.7884 51.9417 19.0659 51.7768 19.2901 51.5516H19.2891Z" fill="#D1D1D1"/>
<path d="M35.2202 46.4229H36.7476V53.8558H35.2202V46.4229Z" fill="#D1D1D1"/>
<path d="M37.6126 51.3108C37.6105 50.7767 37.767 50.2539 38.0622 49.8087C38.3574 49.3635 38.778 49.016 39.2709 48.8101C39.7638 48.6042 40.3067 48.5492 40.8309 48.6521C41.355 48.755 41.8369 49.0111 42.2153 49.3881C42.5938 49.765 42.8519 50.2458 42.9569 50.7696C43.0619 51.2933 43.0091 51.8365 42.8052 52.3302C42.6012 52.8238 42.2554 53.246 41.8114 53.5429C41.3674 53.8399 40.8453 53.9985 40.3111 53.9985C39.9565 54.0025 39.6047 53.9358 39.2762 53.8023C38.9477 53.6688 38.6491 53.4712 38.3978 53.221C38.1466 52.9707 37.9477 52.6729 37.8129 52.3449C37.6781 52.017 37.61 51.6654 37.6126 51.3108ZM41.4821 51.3108C41.4757 51.0806 41.4016 50.8573 41.2691 50.6689C41.1365 50.4806 40.9514 50.3355 40.7368 50.2518C40.5222 50.1681 40.2877 50.1495 40.0626 50.1983C39.8375 50.2472 39.6318 50.3612 39.4712 50.5264C39.3106 50.6915 39.2022 50.9003 39.1597 51.1266C39.1171 51.353 39.1422 51.5869 39.2318 51.7991C39.3214 52.0113 39.4716 52.1923 39.6635 52.3196C39.8555 52.4469 40.0808 52.5148 40.3111 52.5148C40.4688 52.519 40.6257 52.4904 40.7719 52.431C40.9181 52.3715 41.0504 52.2825 41.1604 52.1694C41.2704 52.0562 41.3558 51.9215 41.4111 51.7738C41.4665 51.626 41.4907 51.4684 41.4821 51.3108Z" fill="#D1D1D1"/>
<path d="M49.0971 48.7647V53.599C49.0971 55.3095 47.763 56.0326 46.4089 56.0326C45.9322 56.0683 45.4548 55.972 45.0291 55.7543C44.6035 55.5365 44.246 55.2058 43.9959 54.7983L45.2991 54.0449C45.4042 54.2573 45.5717 54.4325 45.7791 54.5471C45.9866 54.6617 46.2241 54.7103 46.4598 54.6862C46.6105 54.7071 46.764 54.6938 46.9088 54.6474C47.0537 54.6009 47.1863 54.5225 47.2967 54.4179C47.4072 54.3133 47.4927 54.1853 47.547 54.0431C47.6013 53.901 47.6229 53.7485 47.6103 53.5969V53.1315C47.4314 53.3503 47.2038 53.5242 46.9456 53.6392C46.6873 53.7541 46.4058 53.8069 46.1235 53.7934C45.4517 53.7722 44.8146 53.4905 44.3469 53.0078C43.8792 52.5251 43.6177 51.8794 43.6177 51.2073C43.6177 50.5352 43.8792 49.8895 44.3469 49.4068C44.8146 48.9241 45.4517 48.6424 46.1235 48.6212C46.4058 48.6077 46.6873 48.6605 46.9456 48.7754C47.2038 48.8904 47.4314 49.0643 47.6103 49.2831V48.7637L49.0971 48.7647ZM47.6108 51.2081C47.6211 50.9619 47.5574 50.7183 47.4281 50.5086C47.2987 50.2989 47.1096 50.1328 46.885 50.0315C46.6604 49.9302 46.4107 49.8984 46.1679 49.9403C45.9251 49.9822 45.7004 50.0957 45.5226 50.2664C45.345 50.4371 45.2224 50.657 45.1707 50.8979C45.1191 51.1387 45.1407 51.3896 45.2328 51.6181C45.325 51.8466 45.4834 52.0423 45.6876 52.1801C45.8919 52.3178 46.1327 52.3912 46.3791 52.3909C46.5396 52.4021 46.7006 52.3796 46.8519 52.3248C47.0031 52.27 47.1412 52.184 47.2572 52.0726C47.3732 51.9612 47.4647 51.8267 47.5256 51.6778C47.5865 51.5289 47.6155 51.3689 47.6108 51.2081Z" fill="#D1D1D1"/>
<path d="M49.9622 51.3108C49.9601 50.7767 50.1165 50.2539 50.4118 49.8087C50.707 49.3635 51.1277 49.016 51.6205 48.8101C52.1134 48.6042 52.6563 48.5492 53.1805 48.6521C53.7046 48.755 54.1865 49.0111 54.5649 49.3881C54.9434 49.765 55.2015 50.2458 55.3065 50.7696C55.4115 51.2933 55.3587 51.8365 55.1548 52.3302C54.9509 52.8238 54.605 53.246 54.161 53.5429C53.717 53.8399 53.1949 53.9985 52.6607 53.9985C52.3061 54.0025 51.9543 53.9358 51.6258 53.8023C51.2973 53.6688 50.9987 53.4712 50.7474 53.221C50.4962 52.9707 50.2973 52.6729 50.1625 52.3449C50.0277 52.017 49.9596 51.6654 49.9622 51.3108ZM53.8317 51.3108C53.8253 51.0806 53.7512 50.8573 53.6187 50.6689C53.4861 50.4806 53.301 50.3355 53.0864 50.2518C52.8718 50.1681 52.6373 50.1495 52.4122 50.1983C52.1871 50.2472 51.9814 50.3612 51.8208 50.5264C51.6602 50.6915 51.5518 50.9003 51.5093 51.1266C51.4667 51.353 51.4918 51.5869 51.5814 51.7991C51.671 52.0113 51.8212 52.1923 52.0132 52.3196C52.2051 52.4469 52.4303 52.5148 52.6607 52.5148C52.8184 52.519 52.9753 52.4904 53.1215 52.431C53.2677 52.3715 53.4 52.2825 53.51 52.1694C53.62 52.0562 53.7054 51.9215 53.7607 51.7738C53.8161 51.626 53.8403 51.4684 53.8317 51.3108Z" fill="#D1D1D1"/>
<path d="M56.0714 47.3999C56.0714 47.2186 56.1252 47.0414 56.2259 46.8907C56.3265 46.74 56.4697 46.6225 56.6372 46.5532C56.8046 46.4838 56.9889 46.4656 57.1667 46.501C57.3444 46.5364 57.5078 46.6237 57.6359 46.7518C57.7641 46.88 57.8514 47.0433 57.8867 47.2211C57.9221 47.3988 57.9039 47.5831 57.8346 47.7506C57.7652 47.918 57.6478 48.0612 57.497 48.1619C57.3463 48.2626 57.1692 48.3163 56.9879 48.3163C56.7456 48.3139 56.5139 48.2166 56.3425 48.0452C56.1712 47.8739 56.0738 47.6422 56.0714 47.3999ZM56.2257 48.7643H57.7536V53.8557H56.2236L56.2257 48.7643Z" fill="#D1D1D1"/>
<path d="M64.3488 51.3101C64.3664 51.6466 64.3174 51.9833 64.2044 52.3008C64.0916 52.6182 63.917 52.9102 63.6908 53.16C63.4647 53.4098 63.1913 53.6124 62.8866 53.7562C62.5819 53.8999 62.2517 53.9821 61.9152 53.9978C61.6321 54.0132 61.3492 53.9655 61.0868 53.8581C60.8245 53.7506 60.5894 53.5861 60.3985 53.3765V55.8919H58.8711V48.7644H60.3985V49.2427C60.5895 49.0333 60.8247 48.8689 61.0869 48.7616C61.3493 48.6542 61.6321 48.6065 61.9152 48.622C62.2518 48.6377 62.582 48.7197 62.8868 48.8635C63.1917 49.0073 63.465 49.21 63.6912 49.4598C63.9174 49.7096 64.0919 50.0018 64.2048 50.3193C64.3176 50.6368 64.3665 50.9736 64.3488 51.3101ZM62.8213 51.3101C62.8154 51.0719 62.7392 50.8407 62.6025 50.6454C62.4657 50.4502 62.2745 50.2996 62.0526 50.2126C61.8307 50.1255 61.5881 50.1058 61.355 50.156C61.122 50.2061 60.909 50.3239 60.7426 50.4945C60.5762 50.6652 60.4638 50.8811 60.4195 51.1154C60.3752 51.3496 60.401 51.5916 60.4936 51.8113C60.5862 52.0309 60.7416 52.2183 60.9402 52.3501C61.1388 52.4819 61.3718 52.5522 61.6102 52.5521C61.7738 52.5594 61.9372 52.532 62.0895 52.4718C62.2418 52.4115 62.3797 52.3197 62.494 52.2025C62.6084 52.0852 62.6966 51.9451 62.753 51.7913C62.8094 51.6375 62.8327 51.4735 62.8213 51.3101Z" fill="#D1D1D1"/>
<path d="M69.0622 52.3282C69.0622 53.4992 68.0445 53.998 66.9449 53.998C66.5006 54.0383 66.0545 53.9443 65.6643 53.7283C65.274 53.5123 64.9575 53.1842 64.7556 52.7864L66.0789 52.033C66.1324 52.2168 66.2474 52.3768 66.4046 52.4861C66.5618 52.5954 66.7521 52.6475 66.9429 52.6336C67.309 52.6336 67.4926 52.5215 67.4926 52.3184C67.4926 51.7578 64.9876 52.0535 64.9876 50.2921C64.9876 49.1818 65.9246 48.6222 66.9835 48.6222C67.3816 48.6096 67.7755 48.704 68.1247 48.8956C68.4739 49.0872 68.7655 49.369 68.9686 49.7115L67.6654 50.414C67.6084 50.2806 67.5132 50.167 67.3918 50.0874C67.2705 50.0077 67.1285 49.9655 66.9835 49.966C66.7186 49.966 66.5556 50.0689 66.5556 50.251C66.5577 50.8316 69.0622 50.4443 69.0622 52.3282Z" fill="#D1D1D1"/>
<path d="M74.6417 48.7646V53.8561H73.1143V53.3773C72.9379 53.5885 72.7142 53.755 72.4611 53.863C72.2081 53.971 71.9335 54.0175 71.6588 53.9985C70.6303 53.9985 69.756 53.2657 69.756 51.89V48.7646H71.2834V51.6662C71.2706 51.7875 71.2844 51.9101 71.324 52.0255C71.3631 52.1409 71.4274 52.2463 71.5118 52.3344C71.5961 52.4225 71.6984 52.4912 71.8121 52.5356C71.9252 52.5801 72.0471 52.5994 72.169 52.592C72.7291 52.592 73.1158 52.2664 73.1158 51.5433V48.7662L74.6417 48.7646Z" fill="#D1D1D1"/>
<path d="M83.4001 50.7293V53.8552H81.8726V50.8615C81.8726 50.3524 81.6283 50.0268 81.1398 50.0268C80.6306 50.0268 80.3452 50.3832 80.3452 50.9839V53.8552H78.8183V50.8615C78.8183 50.3524 78.574 50.0268 78.0849 50.0268C77.5758 50.0268 77.2909 50.3832 77.2909 50.9839V53.8552H75.7634V48.7637H77.2909V49.2317C77.4493 49.0241 77.657 48.8594 77.8951 48.7528C78.1338 48.6462 78.395 48.601 78.6553 48.6213C78.9165 48.6085 79.1767 48.6636 79.4107 48.7814C79.6442 48.899 79.8433 49.0753 79.9888 49.2929C80.158 49.0653 80.3822 48.8842 80.6404 48.7668C80.8986 48.6493 81.1825 48.5993 81.4653 48.6213C82.6343 48.6218 83.4001 49.4565 83.4001 50.7293Z" fill="#D1D1D1"/>
<path d="M84.6918 48.7328C85.3177 48.7328 85.8253 48.2253 85.8253 47.5993C85.8253 46.9733 85.3177 46.4658 84.6918 46.4658C84.0659 46.4658 83.5583 46.9733 83.5583 47.5993C83.5583 48.2253 84.0659 48.7328 84.6918 48.7328Z" fill="#D1D1D1"/>
<defs>
<linearGradient id="paint0_linear_43_1692" x1="-1.07003e-06" y1="-3.68497" x2="110.285" y2="5.81496" gradientUnits="userSpaceOnUse">
<stop offset="0" stop-color="white"/>
<stop offset="1" stop-color="white" stop-opacity="0"/>
</linearGradient>
</defs>
</svg>
